{
.appVersion = "1230";
classes = (
{
automatic = 1;

glyphs = (
{
color = 6;
glyphname = A;
lastChange = "2019-09-06 19:31:13 +0000";
layers = (
{
anchors = (
{
name = abovecomb;
position = "{616, 766}";
},
{
name = bottom;
position = "{418, 0}";
},
{
name = dotbelow;
position = "{430, 6}";
},
{
name = dotbelowcomb;
position = "{427, 7}";
},
{
name = greekcap;
position = "{370, 603}";
},
{
name = ogonek;
position = "{649, 0}";
},
{
name = polyomicron;
position = "{379, 605}";
},
{
name = top;
position = "{617, 764}";
}
);
hints = (
{
horizontal = 1;
origin = "{0, 7}";
target = up;
type = BottomGhost;
},
{
horizontal = 1;
place = "{118.5, 120.5}";
type = Stem;
},
{
horizontal = 1;
origin = "{0, 0}";
target = down;
type = TopGhost;
},
{
horizontal = 1;
origin = "{0, 3}";
target = up;
type = BottomGhost;
},
{
horizontal = 1;
place = "{686, 2000}";
type = Stem;
},
{
origin = "{0, 7}";
target = "{0, 4}";
type = Stem;
}
);
layerId = "BA196CD0-EE58-4274-B8DF-4393D3617A29";
paths = (
{
closed = 1;
nodes = (
"231 -3 LINE",
"300 121 LINE",
"619 116 LINE",
"614 -7 LINE",
"751 -8 LINE",
"670 749 LINE",
"579 750 LINE",
"101 0 LINE"
);
},
{
closed = 1;
nodes = (
"360 241 LINE",
"606 686 LINE",
"621 237 LINE"
);
}
);
width = 836;
},
{
anchors = (
{
name = abovecomb;
position = "{629, 781}";
},
{
name = bottom;
position = "{418, 0}";
},
{
name = dotbelow;
position = "{430, 6}";
},
{
name = dotbelowcomb;
position = "{427, 7}";
},
{
name = greekcap;
position = "{370, 603}";
},
{
name = ogonek;
position = "{649, 0}";
},
{
name = polyomicron;
position = "{379, 605}";
},
{
name = top;
position = "{634, 759}";
}
);
layerId = "BBDB329E-CE83-4304-A6B1-53EA5ACC004E";
paths = (
{
closed = 1;
nodes = (
"229 -27 LINE",
"298 92 LINE",
"588 92 LINE",
"585 -27 LINE",
"789 -27 LINE",
"686 756 LINE",
"556 756 LINE",
"33 -27 LINE"
);
},
{
closed = 1;
nodes = (
"390 262 LINE",
"572 577 LINE",
"587 262 LINE"
);
}
);
width = 836;
}
);
unicode = 0041;
},
{
glyphname = "Alpha-latin";
lastChange = "2019-09-05 22:37:16 +0000";
layers = (
{
anchors = (
{
name = bottom;
position = "{407, 0}";
},
{
name = ogonek;
position = "{577, 29}";
},
{
name = top;
position = "{551, 577}";
}
);
hints = (
{
horizontal = 1;
origin = "{0, 14}";
target = "{1, 14}";
type = Stem;
},
{
horizontal = 1;
origin = "{1, 5}";
target = "{0, 2}";
type = Stem;
},
{
horizontal = 1;
origin = "{0, 18}";
target = "{1, 14}";
type = Stem;
},
{
place = "{127.25, 104.4}";
type = Stem;
},
{
place = "{678.76, 51.24}";
type = Stem;
}
);
layerId = "BA196CD0-EE58-4274-B8DF-4393D3617A29";
paths = (
{
closed = 1;
nodes = (
"629 655 OFFCURVE",
"594 677 OFFCURVE",
"541 677 CURVE SMOOTH",
"530 677 OFFCURVE",
"519 676 OFFCURVE",
"506 674 CURVE SMOOTH",
"405 658 OFFCURVE",
"248 547 OFFCURVE",
"155 387 CURVE SMOOTH",
"115 318 OFFCURVE",
"91 261 OFFCURVE",
"78 214 CURVE SMOOTH",
"22 13 OFFCURVE",
"183 -14 OFFCURVE",
"311 -14 CURVE SMOOTH",
"392 -14 OFFCURVE",
"473 17 OFFCURVE",
"529 82 CURVE",
"507 0 LINE",
"616 0 LINE",
"636 75 OFFCURVE",
"612 60 OFFCURVE",
"684 329 CURVE SMOOTH",
"758 605 OFFCURVE",
"790 600 OFFCURVE",
"809 673 CURVE",
"713 673 LINE",
"670 602 LINE"
);
},
{
closed = 1;
nodes = (
"279 485 OFFCURVE",
"424 598 OFFCURVE",
"488 610 CURVE SMOOTH",
"499 612 OFFCURVE",
"510 613 OFFCURVE",
"523 613 CURVE SMOOTH",
"583 613 OFFCURVE",
"648 582 OFFCURVE",
"602 396 CURVE SMOOTH",
"595 368 OFFCURVE",
"583 335 OFFCURVE",
"570 299 CURVE SMOOTH",
"524 172 OFFCURVE",
"522 138 OFFCURVE",
"340 138 CURVE SMOOTH",
"214 138 OFFCURVE",
"152 205 OFFCURVE",
"177 296 CURVE SMOOTH",
"182 314 OFFCURVE",
"190 333 OFFCURVE",
"201 352 CURVE"
);
}
);
width = 769;
},
{
anchors = (
{
name = bottom;
position = "{354, 0}";
},
{
name = ogonek;
position = "{524, 29}";
},
{
name = top;
position = "{497, 577}";
}
);
layerId = "BBDB329E-CE83-4304-A6B1-53EA5ACC004E";
paths = (
{
closed = 1;
nodes = (
"640 688 OFFCURVE",
"603 704 OFFCURVE",
"554 704 CURVE SMOOTH",
"542 704 OFFCURVE",
"530 703 OFFCURVE",
"516 701 CURVE SMOOTH",
"390 683 OFFCURVE",
"227 551 OFFCURVE",
"137 395 CURVE SMOOTH",
"98 327 OFFCURVE",
"71 266 OFFCURVE",
"57 214 CURVE SMOOTH",
"12 43 OFFCURVE",
"98 -41 OFFCURVE",
"310 -41 CURVE SMOOTH",
"375 -41 OFFCURVE",
"437 -23 OFFCURVE",
"489 11 CURVE",
"479 -27 LINE",
"641 -27 LINE",
"670 54 OFFCURVE",
"655 95 OFFCURVE",
"717 329 CURVE SMOOTH",
"791 602 OFFCURVE",
"833 605 OFFCURVE",
"849 700 CURVE",
"708 700 LINE",
"677 649 LINE"
);
},
{
closed = 1;
nodes = (
"294 451 OFFCURVE",
"430 574 OFFCURVE",
"493 583 CURVE",
"501 585 OFFCURVE",
"511 586 OFFCURVE",
"523 586 CURVE SMOOTH",
"595 586 OFFCURVE",
"615 525 OFFCURVE",
"581 396 CURVE SMOOTH",
"573 368 OFFCURVE",
"563 336 OFFCURVE",
"550 302 CURVE SMOOTH",
"500 171 OFFCURVE",
"500 165 OFFCURVE",
"353 165 CURVE SMOOTH",
"246 165 OFFCURVE",
"190 218 OFFCURVE",
"211 296 CURVE SMOOTH",
"215 311 OFFCURVE",
"222 328 OFFCURVE",
"232 344 CURVE SMOOTH"
);
}
);
width = 663;
}
);
unicode = 2C6D;
},
{
color = 6;
glyphname = B;
lastChange = "2019-09-05 22:37:16 +0000";
layers = (
{
anchors = (
{
name = bottom;
position = "{347, 0}";
},
{
name = top;
position = "{535, 700}";
},
{
name = top_hook;
position = "{66, 470}";
}
);
layerId = "BA196CD0-EE58-4274-B8DF-4393D3617A29";
paths = (
{
closed = 1;
nodes = (
"487 348 OFFCURVE",
"525 338 OFFCURVE",
"544 316 CURVE SMOOTH",
"564 293 OFFCURVE",
"575 268 OFFCURVE",
"569 248 CURVE SMOOTH",
"546 160 OFFCURVE",
"486 145 OFFCURVE",
"379 145 CURVE SMOOTH",
"220 145 LINE",
"274 348 LINE",
"434 348 LINE SMOOTH"
);
},
{
closed = 1;
nodes = (
"603 663 OFFCURVE",
"637 612 OFFCURVE",
"617 538 CURVE SMOOTH",
"597 464 OFFCURVE",
"540 428 OFFCURVE",
"443 428 CURVE SMOOTH",
"295 428 LINE",
"358 663 LINE",
"506 663 LINE SMOOTH"
);
},
{
closed = 1;
nodes = (
"345 0 LINE SMOOTH",
"511 0 OFFCURVE",
"613 0 OFFCURVE",
"668 204 CURVE SMOOTH",
"694 303 OFFCURVE",
"654 372 OFFCURVE",
"530 393 CURVE",
"614 406 OFFCURVE",
"671 459 OFFCURVE",
"696 549 CURVE SMOOTH",
"726 664 OFFCURVE",
"658 729 OFFCURVE",
"506 729 CURVE SMOOTH",
"276 729 LINE",
"81 0 LINE"
);
}
);
width = 694;
},
{
anchors = (
{
name = bottom;
position = "{347, 0}";
},
{
name = top;
position = "{535, 700}";
},
{
name = top_hook;
position = "{66, 470}";
}
);
layerId = "BBDB329E-CE83-4304-A6B1-53EA5ACC004E";
paths = (
{
closed = 1;
nodes = (
"476 321 OFFCURVE",
"506 313 OFFCURVE",
"521 296 CURVE SMOOTH",
"538 277 OFFCURVE",
"545 258 OFFCURVE",
"542 248 CURVE SMOOTH",
"526 188 OFFCURVE",
"496 172 OFFCURVE",
"386 172 CURVE SMOOTH",
"254 172 LINE",
"294 321 LINE",
"426 321 LINE SMOOTH"
);
},
{
closed = 1;
nodes = (
"575 636 OFFCURVE",
"606 601 OFFCURVE",
"590 538 CURVE SMOOTH",
"574 481 OFFCURVE",
"533 455 OFFCURVE",
"450 455 CURVE SMOOTH",
"330 455 LINE",
"378 636 LINE",
"499 636 LINE SMOOTH"
);
},
{
closed = 1;
nodes = (
"338 -27 LINE SMOOTH",
"504 -27 OFFCURVE",
"633 -27 OFFCURVE",
"695 204 CURVE SMOOTH",
"720 296 OFFCURVE",
"692 363 OFFCURVE",
"616 398 CURVE",
"667 429 OFFCURVE",
"705 481 OFFCURVE",
"723 549 CURVE SMOOTH",
"758 680 OFFCURVE",
"679 756 OFFCURVE",
"514 756 CURVE SMOOTH",
"256 756 LINE",
"46 -27 LINE"
);
}
);
width = 694;
}
);
unicode = 0042;
},
{
color = 6;
glyphname = C;
lastChange = "2019-09-06 19:32:30 +0000";
layers = (
{
anchors = (
{
name = bottom;
position = "{393, 0}";
},
{
name = top;
position = "{588, 729}";
},
{
name = top_hook;
position = "{805, 682}";
}
);
layerId = "BA196CD0-EE58-4274-B8DF-4393D3617A29";
paths = (
{
closed = 1;
nodes = (
"753 744 OFFCURVE",
"729 746 OFFCURVE",
"640 746 CURVE SMOOTH",
"417 746 OFFCURVE",
"242 602 OFFCURVE",
"179 368 CURVE SMOOTH",
"81 0 OFFCURVE",
"113 -13 OFFCURVE",
"305 -13 CURVE SMOOTH",
"389 -13 OFFCURVE",
"420 -13 OFFCURVE",
"619 -13 CURVE",
"665 159 LINE",
"611 144 OFFCURVE",
"570 139 OFFCURVE",
"484 139 CURVE SMOOTH",
"316 139 OFFCURVE",
"220 197 OFFCURVE",
"266 368 CURVE SMOOTH",
"318 561 OFFCURVE",
"459 672 OFFCURVE",
"626 672 CURVE SMOOTH",
"712 672 OFFCURVE",
"712 672 OFFCURVE",
"805 656 CURVE",
"840 732 LINE"
);
}
);
width = 724;
},
{
anchors = (
{
name = bottom;
position = "{393, 0}";
},
{
name = top;
position = "{688, 732}";
},
{
name = top_hook;
position = "{805, 682}";
}
);
layerId = "BBDB329E-CE83-4304-A6B1-53EA5ACC004E";
paths = (
{
closed = 1;
nodes = (
"767 770 OFFCURVE",
"746 773 OFFCURVE",
"647 773 CURVE SMOOTH",
"409 773 OFFCURVE",
"219 617 OFFCURVE",
"152 368 CURVE SMOOTH",
"56 9 OFFCURVE",
"71 -40 OFFCURVE",
"297 -40 CURVE SMOOTH",
"385 -40 OFFCURVE",
"416 -40 OFFCURVE",
"639 -40 CURVE",
"702 197 LINE",
"628 173 OFFCURVE",
"591 166 OFFCURVE",
"491 166 CURVE SMOOTH",
"317 166 OFFCURVE",
"256 229 OFFCURVE",
"294 368 CURVE SMOOTH",
"340 541 OFFCURVE",
"463 645 OFFCURVE",
"619 645 CURVE SMOOTH",
"714 645 OFFCURVE",
"706 644 OFFCURVE",
"819 625 CURVE",
"878 755 LINE"
);
}
);
width = 724;
}
);
unicode = 0043;
},
{
color = 6;
glyphname = D;
lastChange = "2019-09-06 19:33:48 +0000";
layers = (
{
anchors = (
{
name = bottom;
position = "{391, 0}";
},
{
name = dash;
position = "{304, 378}";
},
{
name = hook_top;
position = "{248, 669}";
},
{
name = top;
position = "{560, 729}";
}
);
layerId = "BA196CD0-EE58-4274-B8DF-4393D3617A29";
paths = (
{
closed = 1;
nodes = (
"286 0 LINE SMOOTH",
"571 0 OFFCURVE",
"700 0 OFFCURVE",
"798 365 CURVE SMOOTH",
"865 615 OFFCURVE",
"767 729 OFFCURVE",
"481 729 CURVE SMOOTH",
"276 729 LINE",
"81 0 LINE"
);
},
{
closed = 1;
nodes = (
"362 659 LINE",
"483 659 LINE SMOOTH",
"686 659 OFFCURVE",
"773 573 OFFCURVE",
"724 393 CURVE SMOOTH",
"692 271 OFFCURVE",
"611 190 OFFCURVE",
"357 190 CURVE SMOOTH",
"237 190 LINE"
);
}
);
width = 781;
},
{
anchors = (
{
name = bottom;
position = "{391, -60}";
},
{
name = dash;
position = "{304, 378}";
},
{
name = hook_top;
position = "{248, 669}";
},
{
name = top;
position = "{563, 766}";
}
);
layerId = "BBDB329E-CE83-4304-A6B1-53EA5ACC004E";
paths = (
{
closed = 1;
nodes = (
"279 -27 LINE SMOOTH",
"563 -27 OFFCURVE",
"720 -27 OFFCURVE",
"825 365 CURVE SMOOTH",
"896 631 OFFCURVE",
"788 756 OFFCURVE",
"488 756 CURVE SMOOTH",
"256 756 LINE",
"46 -27 LINE"
);
},
{
closed = 1;
nodes = (
"382 632 LINE",
"475 632 LINE SMOOTH",
"668 632 OFFCURVE",
"740 553 OFFCURVE",
"697 393 CURVE SMOOTH",
"663 266 OFFCURVE",
"573 217 OFFCURVE",
"364 217 CURVE SMOOTH",
"271 217 LINE"
);
}
);
width = 781;
}
);
unicode = 0044;
},
{
color = 6;
glyphname = E;
lastChange = "2019-09-06 19:35:47 +0000";
layers = (
{
anchors = (
{
name = bottom;
position = "{334, 0}";
},
{
name = ogonek;
position = "{348, 9}";
},
{
name = top;
position = "{504, 766}";
},
{
name = topleft;
position = "{213, 700}";
}
);
layerId = "BA196CD0-EE58-4274-B8DF-4393D3617A29";
paths = (
{
closed = 1;
nodes = (
"569 0 LINE",
"576 151 LINE",
"239 151 LINE",
"288 331 LINE",
"539 347 LINE",
"562 430 LINE",
"311 419 LINE",
"370 637 LINE",
"708 656 LINE",
"749 729 LINE",
"297 715 LINE",
"81 0 LINE"
);
}
);
width = 649;
},
{
anchors = (
{
name = bottom;
position = "{342, -12}";
},
{
name = ogonek;
position = "{348, 9}";
},
{
name = top;
position = "{541, 766}";
},
{
name = topleft;
position = "{213, 700}";
}
);
layerId = "BBDB329E-CE83-4304-A6B1-53EA5ACC004E";
paths = (
{
closed = 1;
nodes = (
"596 -27 LINE",
"605 178 LINE",
"274 178 LINE",
"308 306 LINE",
"560 322 LINE",
"596 458 LINE",
"346 447 LINE",
"390 612 LINE",
"722 630 LINE",
"793 757 LINE",
"277 741 LINE",
"45 -27 LINE"
);
}
);
width = 649;
}
);
unicode = 0045;
},
{
color = 6;
glyphname = F;
lastChange = "2019-09-05 22:37:16 +0000";
layers = (
{
anchors = (
{
name = bottom;
position = "{295, 0}";
},
{
name = bottom_hook;
position = "{105, -38}";
},
{
name = top;
position = "{482, 700}";
}
);
layerId = "BA196CD0-EE58-4274-B8DF-4393D3617A29";
paths = (
{
closed = 1;
nodes = (
"213 0 LINE",
"289 348 LINE",
"560 366 LINE",
"587 468 LINE",
"311 450 LINE",
"388 646 LINE",
"686 663 LINE",
"703 729 LINE",
"312 717 LINE",
"81 0 LINE"
);
}
);
width = 589;
},
{
anchors = (
{
name = bottom;
position = "{295, 0}";
},
{
name = bottom_hook;
position = "{105, -38}";
},
{
name = top;
position = "{482, 700}";
}
);
layerId = "BBDB329E-CE83-4304-A6B1-53EA5ACC004E";
paths = (
{
closed = 1;
nodes = (
"234 -27 LINE",
"311 323 LINE",
"580 341 LINE",
"622 497 LINE",
"351 479 LINE",
"405 620 LINE",
"706 638 LINE",
"738 757 LINE",
"293 743 LINE",
"44 -27 LINE"
);
}
);
width = 589;
}
);
unicode = 0046;
},
{
color = 6;
glyphname = G;
lastChange = "2019-09-05 22:37:16 +0000";
layers = (
{
anchors = (
{
name = bottom;
position = "{415, 0}";
},
{
name = top;
position = "{646, 766}";
},
{
name = top_hook;
position = "{810, 700}";
}
);
layerId = "BA196CD0-EE58-4274-B8DF-4393D3617A29";
paths = (
{
closed = 1;
nodes = (
"550 -14 OFFCURVE",
"622 -14 OFFCURVE",
"720 40 CURVE",
"764 246 LINE",
"832 245 LINE",
"841 341 LINE",
"565 373 LINE",
"549 279 LINE",
"681 261 LINE",
"660 182 LINE",
"629 157 OFFCURVE",
"566 145 OFFCURVE",
"495 145 CURVE SMOOTH",
"316 145 OFFCURVE",
"245 194 OFFCURVE",
"286 374 CURVE",
"361 654 OFFCURVE",
"455 665 OFFCURVE",
"635 665 CURVE SMOOTH",
"684 665 OFFCURVE",
"761 661 OFFCURVE",
"833 644 CURVE",
"843 722 LINE",
"820 726 OFFCURVE",
"742 736 OFFCURVE",
"646 736 CURVE SMOOTH",
"415 736 OFFCURVE",
"264 685 OFFCURVE",
"178 364 CURVE SMOOTH",
"115 126 OFFCURVE",
"214 -14 OFFCURVE",
"445 -14 CURVE SMOOTH"
);
}
);
width = 847;
},
{
anchors = (
{
name = bottom;
position = "{410, -20}";
},
{
name = top;
position = "{645, 746}";
},
{
name = top_hook;
position = "{810, 700}";
}
);
layerId = "BBDB329E-CE83-4304-A6B1-53EA5ACC004E";
paths = (
{
closed = 1;
nodes = (
"610 181 OFFCURVE",
"562 172 OFFCURVE",
"503 172 CURVE SMOOTH",
"325 172 OFFCURVE",
"278 221 OFFCURVE",
"314 375 CURVE",
"382 630 OFFCURVE",
"450 638 OFFCURVE",
"627 638 CURVE SMOOTH",
"711 638 OFFCURVE",
"796 627 OFFCURVE",
"856 608 CURVE",
"873 745 LINE",
"831 753 OFFCURVE",
"751 763 OFFCURVE",
"653 763 CURVE SMOOTH",
"362 763 OFFCURVE",
"230 659 OFFCURVE",
"151 364 CURVE SMOOTH",
"84 112 OFFCURVE",
"191 -41 OFFCURVE",
"437 -41 CURVE SMOOTH",
"548 -41 OFFCURVE",
"631 -41 OFFCURVE",
"744 26 CURVE",
"786 219 LINE",
"857 218 LINE",
"871 366 LINE",
"543 404 LINE",
"518 255 LINE",
"647 237 LINE",
"636 195 LINE"
);
}
);
width = 847;
}
);
unicode = 0047;
},
{
color = 6;
glyphname = H;
lastChange = "2019-09-05 22:37:16 +0000";
layers = (
{
anchors = (
{
name = bottom;
position = "{390, 0}";
},
{
name = caccent;
position = "{763, 153}";
},
{
name = center;
position = "{485, 365}";
},
{
name = eng;
position = "{642, 52}";
},
{
name = gram;
position = "{817, 323}";
},
{
name = greek_top;
position = "{222, 654}";
},
{
name = mark;
position = "{965, 682}";
},
{
name = top;
position = "{612, 810}";
},
{
name = top_hook;
position = "{97, 473}";
},
{
name = topleft;
position = "{213, 700}";
}
);
hints = (
{
horizontal = 1;
origin = "{0, 0}";
target = up;
type = BottomGhost;
},
{
horizontal = 1;
origin = "{2, 0}";
target = "{2, 3}";
type = Stem;
},
{
origin = "{0, 0}";
target = "{1, 2}";
type = Stem;
}
);
layerId = "BA196CD0-EE58-4274-B8DF-4393D3617A29";
paths = (
{
closed = 1;
nodes = (
"81 0 LINE",
"234 0 LINE",
"401 729 LINE",
"296 729 LINE"
);
},
{
closed = 1;
nodes = (
"537 0 LINE",
"698 0 LINE",
"862 729 LINE",
"757 729 LINE"
);
},
{
closed = 1;
nodes = (
"233 187 LINE",
"631 187 LINE",
"677 332 LINE",
"272 332 LINE"
);
}
);
width = 893;
},
{
anchors = (
{
name = bottom;
position = "{390, 0}";
},
{
name = caccent;
position = "{763, 153}";
},
{
name = center;
position = "{485, 365}";
},
{
name = eng;
position = "{642, 52}";
},
{
name = gram;
position = "{817, 323}";
},
{
name = greek_top;
position = "{222, 654}";
},
{
name = mark;
position = "{965, 682}";
},
{
name = top;
position = "{612, 810}";
},
{
name = top_hook;
position = "{97, 473}";
},
{
name = topleft;
position = "{213, 700}";
}
);
layerId = "BBDB329E-CE83-4304-A6B1-53EA5ACC004E";
paths = (
{
closed = 1;
nodes = (
"45 -27 LINE",
"255 -27 LINE",
"435 756 LINE",
"277 756 LINE"
);
},
{
closed = 1;
nodes = (
"502 -27 LINE",
"719 -27 LINE",
"895 756 LINE",
"738 756 LINE"
);
},
{
closed = 1;
nodes = (
"198 160 LINE",
"650 160 LINE",
"712 359 LINE",
"252 359 LINE"
);
}
);
width = 779;
}
);
unicode = 0048;
},
{
color = 6;
glyphname = I;
lastChange = "2019-09-06 19:56:06 +0000";
layers = (
{
anchors = (
{
name = bottom;
position = "{158, 4}";
},
{
name = ogonek;
position = "{132, 0}";
},
{
name = top;
position = "{354, 779}";
},
{
name = topleft;
position = "{213, 700}";
}
);
layerId = "BA196CD0-EE58-4274-B8DF-4393D3617A29";
paths = (
{
closed = 1;
nodes = (
"222 0 LINE",
"261 243 OFFCURVE",
"318 492 OFFCURVE",
"391 729 CURVE",
"281 729 LINE",
"265 632 OFFCURVE",
"190 292 OFFCURVE",
"81 0 CURVE"
);
}
);
width = 303;
},
{
anchors = (
{
name = bottom;
position = "{143, -50}";
},
{
name = ogonex;
position = "{149, 16}";
},
{
name = top;
position = "{383, 829}";
},
{
name = topleft;
position = "{213, 700}";
}
);
layerId = "BBDB329E-CE83-4304-A6B1-53EA5ACC004E";
paths = (
{
closed = 1;
nodes = (
"245 -27 LINE",
"287 243 OFFCURVE",
"349 510 OFFCURVE",
"427 756 CURVE",
"258 756 LINE",
"237 626 OFFCURVE",
"158 269 OFFCURVE",
"43 -27 CURVE"
);
}
);
width = 303;
}
);
unicode = 0049;
},
{
color = 6;
glyphname = J;
lastChange = "2019-09-05 22:37:16 +0000";
layers = (
{
anchors = (
{
name = bottom;
position = "{243, 0}";
},
{
name = top;
position = "{480, 729}";
}
);
layerId = "BA196CD0-EE58-4274-B8DF-4393D3617A29";
paths = (
{
closed = 1;
nodes = (
"484 727 LINE",
"600 727 LINE",
"379 31 LINE SMOOTH",
"323 -145 OFFCURVE",
"249 -209 OFFCURVE",
"91 -211 CURVE",
"26 -205 LINE",
"76 -44 LINE",
"124 -55 LINE SMOOTH",
"204 -74 OFFCURVE",
"259 -16 OFFCURVE",
"276 37 CURVE SMOOTH"
);
}
);
width = 486;
},
{
anchors = (
{
name = bottom;
position = "{243, 0}";
},
{
name = top;
position = "{480, 729}";
}
);
layerId = "BBDB329E-CE83-4304-A6B1-53EA5ACC004E";
paths = (
{
closed = 1;
nodes = (
"230 -14 OFFCURVE",
"170 -28 OFFCURVE",
"117 -14 CURVE SMOOTH",
"-21 23 LINE",
"-118 -192 LINE",
"155 -200 LINE SMOOTH",
"235 -202 OFFCURVE",
"334 -161 OFFCURVE",
"406 29 CURVE SMOOTH",
"668 719 LINE",
"497 719 LINE",
"249 38 LINE SMOOTH"
);
}
);
width = 486;
}
);
unicode = 004A;
},
{
color = 6;
glyphname = K;
lastChange = "2019-09-05 22:37:16 +0000";
layers = (
{
anchors = (
{
name = bottom;
position = "{315, 0}";
},
{
name = top;
position = "{569, 729}";
},
{
name = top_hook;
position = "{731, 515}";
}
);
layerId = "BA196CD0-EE58-4274-B8DF-4393D3617A29";
paths = (
{
closed = 1;
nodes = (
"210 0 LINE",
"300 289 LINE",
"421 0 LINE",
"657 0 LINE",
"403 327 LINE",
"756 729 LINE",
"628 729 LINE",
"318 359 LINE",
"431 729 LINE",
"342 729 LINE",
"81 0 LINE"
);
}
);
width = 737;
},
{
anchors = (
{
name = bottom;
position = "{315, 0}";
},
{
name = top;
position = "{569, 729}";
},
{
name = top_hook;
position = "{731, 515}";
}
);
layerId = "BBDB329E-CE83-4304-A6B1-53EA5ACC004E";
paths = (
{
closed = 1;
nodes = (
"229 -27 LINE",
"302 206 LINE",
"400 -27 LINE",
"717 -27 LINE",
"438 331 LINE",
"812 756 LINE",
"619 756 LINE",
"379 469 LINE",
"466 756 LINE",
"324 756 LINE",
"43 -27 LINE"
);
}
);
width = 737;
}
);
unicode = 004B;
},
{
color = 6;
glyphname = L;
lastChange = "2019-09-06 19:57:38 +0000";
layers = (
{
anchors = (
{
name = "_ circumflexbelowcomb";
position = "{316, -26}";
},
{
name = bottom;
position = "{322, 5}";
},
{
name = center;
position = "{412, 350}";
},
{
name = right;
position = "{498, 644}";
},
{
name = top;
position = "{340, 729}";
},
{
name = topright;
position = "{798, 700}";
}
);
layerId = "BA196CD0-EE58-4274-B8DF-4393D3617A29";
paths = (
{
closed = 1;
nodes = (
"554 0 LINE",
"585 151 LINE",
"225 145 LINE",
"381 729 LINE",
"302 729 LINE",
"81 0 LINE"
);
}
);
width = 635;
},
{
anchors = (
{
name = "_ circumflexbelowcomb";
position = "{316, -26}";
},
{
name = bottom;
position = "{322, 5}";
},
{
name = center;
position = "{264, 404}";
},
{
name = right;
position = "{498, 644}";
},
{
name = top;
position = "{353, 779}";
},
{
name = topright;
position = "{798, 700}";
}
);
layerId = "BBDB329E-CE83-4304-A6B1-53EA5ACC004E";
paths = (
{
closed = 1;
nodes = (
"577 -27 LINE",
"617 178 LINE",
"259 172 LINE",
"416 756 LINE",
"283 756 LINE",
"45 -27 LINE"
);
}
);
width = 635;
}
);
unicode = 004C;
},
{
color = 6;
glyphname = M;
lastChange = "2019-09-05 22:37:16 +0000";
layers = (
{
anchors = (
{
name = _top;
position = "{590, 663}";
},
{
name = bottom;
position = "{441, 0}";
},
{
name = hookbelow;
position = "{851, 157}";
},
{
name = top;
position = "{629, 700}";
}
);
layerId = "BA196CD0-EE58-4274-B8DF-4393D3617A29";
paths = (
{
closed = 1;
nodes = (
"225 0 LINE",
"359 671 LINE",
"406 63 LINE",
"516 63 LINE",
"870 671 LINE",
"639 0 LINE",
"802 0 LINE",
"966 729 LINE",
"828 729 LINE",
"524 289 LINE",
"451 729 LINE",
"302 729 LINE",
"81 0 LINE"
);
}
);
width = 883;
},
{
anchors = (
{
name = _top;
position = "{590, 663}";
},
{
name = bottom;
position = "{441, 0}";
},
{
name = hookbelow;
position = "{851, 157}";
},
{
name = top;
position = "{629, 700}";
}
);
layerId = "BBDB329E-CE83-4304-A6B1-53EA5ACC004E";
paths = (
{
closed = 1;
nodes = (
"247 -27 LINE",
"386 673 LINE",
"330 662 LINE",
"379 36 LINE",
"529 36 LINE",
"894 663 LINE",
"843 673 LINE",
"603 -27 LINE",
"823 -27 LINE",
"999 756 LINE",
"817 756 LINE",
"542 358 LINE",
"476 756 LINE",
"283 756 LINE",
"45 -27 LINE"
);
}
);
width = 883;
}
);
unicode = 004D;
},
{
color = 6;
glyphname = N;
lastChange = "2019-09-05 22:46:19 +0000";
layers = (
{
anchors = (
{
name = _;
position = "{419, 0}";
},
{
name = bottom;
position = "{401, 0}";
},
{
name = eng;
position = "{573, 12}";
},
{
name = top;
position = "{584, 729}";
}
);
layerId = "BA196CD0-EE58-4274-B8DF-4393D3617A29";
paths = (
{
closed = 1;
nodes = (
"243 0 LINE",
"388 616 LINE",
"481 0 LINE",
"643 0 LINE",
"879 727 LINE",
"787 727 LINE",
"580 139 LINE",
"451 700 LINE",
"327 700 LINE",
"81 0 LINE"
);
}
);
width = 765;
},
{
anchors = (
{
name = _;
position = "{419, 0}";
},
{
name = bottom;
position = "{383, 0}";
},
{
name = eng;
position = "{573, 12}";
},
{
name = top;
position = "{614, 729}";
}
);
layerId = "BBDB329E-CE83-4304-A6B1-53EA5ACC004E";
paths = (
{
closed = 1;
nodes = (
"264 -27 LINE",
"416 617 LINE",
"360 606 LINE",
"455 -27 LINE",
"662 -27 LINE",
"915 754 LINE",
"769 754 LINE",
"587 238 LINE",
"476 727 LINE",
"309 727 LINE",
"44 -27 LINE"
);
}
);
width = 765;
}
);
unicode = 004E;
},
{
color = 6;
glyphname = O;
lastChange = "2019-09-06 19:59:59 +0000";
layers = (
{
anchors = (
{
name = abovecomb;
position = "{634, 811}";
},
{
name = bottom;
position = "{408, -54}";
},
{
name = center;
position = "{526, 387}";
},
{
name = horn;
position = "{819, 639}";
},
{
name = ogonek;
position = "{758, 10}";
},
{
name = polyomicron;
position = "{295, 672}";
},
{
name = top;
position = "{637, 815}";
},
{
name = topleft;
position = "{213, 700}";
},
{
name = topright;
position = "{1006, 700}";
}
);
layerId = "BA196CD0-EE58-4274-B8DF-4393D3617A29";
paths = (
{
closed = 1;
nodes = (
"747 672 OFFCURVE",
"804 548 OFFCURVE",
"755 364 CURVE SMOOTH",
"715 213 OFFCURVE",
"613 173 OFFCURVE",
"469 173 CURVE SMOOTH",
"324 173 OFFCURVE",
"243 213 OFFCURVE",
"283 364 CURVE SMOOTH",
"333 548 OFFCURVE",
"458 672 OFFCURVE",
"602 672 CURVE SMOOTH"
);
},
{
closed = 1;
nodes = (
"414 742 OFFCURVE",
"240 594 OFFCURVE",
"178 364 CURVE SMOOTH",
"95 54 OFFCURVE",
"184 -12 OFFCURVE",
"418 -14 CURVE SMOOTH",
"674 -16 OFFCURVE",
"770 54 OFFCURVE",
"860 364 CURVE SMOOTH",
"927 594 OFFCURVE",
"828 742 OFFCURVE",
"621 742 CURVE SMOOTH"
);
}
);
width = 843;
},
{
anchors = (
{
name = abovecomb;
position = "{773, 811}";
},
{
name = bottom;
position = "{408, -54}";
},
{
name = center;
position = "{526, 387}";
},
{
name = horn;
position = "{819, 639}";
},
{
name = ogonek;
position = "{758, 10}";
},
{
name = polyomicron;
position = "{295, 672}";
},
{
name = top;
position = "{728, 883}";
},
{
name = topleft;
position = "{213, 700}";
},
{
name = topright;
position = "{1006, 700}";
}
);
layerId = "BBDB329E-CE83-4304-A6B1-53EA5ACC004E";
paths = (
{
closed = 1;
nodes = (
"721 645 OFFCURVE",
"774 536 OFFCURVE",
"728 364 CURVE SMOOTH",
"696 245 OFFCURVE",
"627 200 OFFCURVE",
"476 200 CURVE SMOOTH",
"324 200 OFFCURVE",
"279 246 OFFCURVE",
"311 364 CURVE SMOOTH",
"357 536 OFFCURVE",
"469 645 OFFCURVE",
"595 645 CURVE SMOOTH"
);
},
{
closed = 1;
nodes = (
"405 769 OFFCURVE",
"216 608 OFFCURVE",
"151 364 CURVE SMOOTH",
"71 64 OFFCURVE",
"137 -39 OFFCURVE",
"411 -41 CURVE SMOOTH",
"690 -43 OFFCURVE",
"795 47 OFFCURVE",
"887 363 CURVE SMOOTH",
"957 606 OFFCURVE",
"852 769 OFFCURVE",
"628 769 CURVE SMOOTH"
);
}
);
width = 843;
}
);
unicode = 004F;
},
{
color = 6;
glyphname = P;
lastChange = "2019-09-05 22:37:16 +0000";
layers = (
{
anchors = (
{
name = bottom;
position = "{326, 0}";
},
{
name = top;
position = "{514, 700}";
},
{
name = top_hook;
position = "{86, 455}";
}
);
layerId = "BA196CD0-EE58-4274-B8DF-4393D3617A29";
paths = (
{
closed = 1;
nodes = (
"620 651 OFFCURVE",
"641 584 OFFCURVE",
"632 549 CURVE SMOOTH",
"603 441 OFFCURVE",
"553 423 OFFCURVE",
"453 419 CURVE SMOOTH",
"316 413 LINE",
"379 651 LINE",
"489 651 LINE SMOOTH"
);
},
{
closed = 1;
nodes = (
"230 0 LINE",
"283 274 LINE",
"405 280 LINE SMOOTH",
"573 288 OFFCURVE",
"668 361 OFFCURVE",
"707 505 CURVE SMOOTH",
"733 601 OFFCURVE",
"688 716 OFFCURVE",
"502 716 CURVE SMOOTH",
"314 716 LINE",
"81 0 LINE"
);
}
);
width = 652;
},
{
anchors = (
{
name = bottom;
position = "{326, 0}";
},
{
name = top;
position = "{514, 700}";
},
{
name = top_hook;
position = "{86, 455}";
}
);
layerId = "BBDB329E-CE83-4304-A6B1-53EA5ACC004E";
paths = (
{
closed = 1;
nodes = (
"563 624 OFFCURVE",
"616 590 OFFCURVE",
"605 549 CURVE SMOOTH",
"583 467 OFFCURVE",
"558 450 OFFCURVE",
"459 446 CURVE SMOOTH",
"350 441 LINE",
"400 624 LINE",
"481 624 LINE SMOOTH"
);
},
{
closed = 1;
nodes = (
"252 -27 LINE",
"306 248 LINE",
"399 253 LINE SMOOTH",
"580 262 OFFCURVE",
"691 345 OFFCURVE",
"734 505 CURVE SMOOTH",
"771 644 OFFCURVE",
"679 743 OFFCURVE",
"509 743 CURVE SMOOTH",
"296 743 LINE",
"44 -27 LINE"
);
}
);
width = 652;
}
);
unicode = 0050;
},
{
glyphname = Thorn;
lastChange = "2019-09-05 22:37:16 +0000";
layers = (
{
layerId = "BA196CD0-EE58-4274-B8DF-4393D3617A29";
paths = (
{
closed = 1;
nodes = (
"81 0 LINE",
"170 0 LINE",
"357 700 LINE",
"268 700 LINE"
);
},
{
closed = 1;
nodes = (
"343 144 OFFCURVE",
"550 245 OFFCURVE",
"584 371 CURVE SMOOTH",
"618 496 OFFCURVE",
"463 597 OFFCURVE",
"318 597 CURVE",
"216 459 OFFCURVE",
"166 282 OFFCURVE",
"196 144 CURVE"
);
},
{
closed = 1;
nodes = (
"218 231 OFFCURVE",
"196 329 OFFCURVE",
"209 375 CURVE SMOOTH",
"221 421 OFFCURVE",
"291 520 OFFCURVE",
"344 520 CURVE SMOOTH",
"397 520 OFFCURVE",
"526 421 OFFCURVE",
"514 375 CURVE SMOOTH",
"501 329 OFFCURVE",
"324 231 OFFCURVE",
"272 231 CURVE SMOOTH"
);
}
);
width = 566;
},
{
layerId = "BBDB329E-CE83-4304-A6B1-53EA5ACC004E";
paths = (
{
closed = 1;
nodes = (
"46 -27 LINE",
"190 -27 LINE",
"392 727 LINE",
"248 727 LINE"
);
},
{
closed = 1;
nodes = (
"189 117 LINE",
"369 117 OFFCURVE",
"576 240 OFFCURVE",
"611 371 CURVE SMOOTH",
"646 501 OFFCURVE",
"504 624 OFFCURVE",
"325 624 CURVE",
"296 608 LINE",
"187 461 OFFCURVE",
"137 275 OFFCURVE",
"169 132 CURVE"
);
},
{
closed = 1;
nodes = (
"251 258 OFFCURVE",
"224 331 OFFCURVE",
"236 375 CURVE SMOOTH",
"248 421 OFFCURVE",
"310 493 OFFCURVE",
"337 493 CURVE SMOOTH",
"379 493 OFFCURVE",
"493 400 OFFCURVE",
"486 375 CURVE SMOOTH",
"480 350 OFFCURVE",
"321 258 OFFCURVE",
"279 258 CURVE SMOOTH"
);
}
);
width = 566;
}
);
unicode = 00DE;
},
{
color = 6;
glyphname = Q;
lastChange = "2019-09-05 22:37:16 +0000";
layers = (
{
anchors = (
{
name = bottom;
position = "{439, 0}";
},
{
name = top;
position = "{627, 700}";
}
);
layerId = "BA196CD0-EE58-4274-B8DF-4393D3617A29";
paths = (
{
closed = 1;
nodes = (
"744 662 OFFCURVE",
"801 548 OFFCURVE",
"752 364 CURVE SMOOTH",
"732 288 OFFCURVE",
"675 185 OFFCURVE",
"644 185 CURVE SMOOTH",
"604 185 OFFCURVE",
"554 206 OFFCURVE",
"508 234 CURVE",
"454 158 LINE",
"400 156 LINE SMOOTH",
"343 154 OFFCURVE",
"230 153 OFFCURVE",
"286 364 CURVE SMOOTH",
"328 519 OFFCURVE",
"455 662 OFFCURVE",
"600 662 CURVE SMOOTH"
);
},
{
closed = 1;
nodes = (
"727 106 OFFCURVE",
"812 194 OFFCURVE",
"857 364 CURVE SMOOTH",
"919 594 OFFCURVE",
"828 742 OFFCURVE",
"621 742 CURVE SMOOTH",
"414 742 OFFCURVE",
"232 565 OFFCURVE",
"178 364 CURVE SMOOTH",
"92 40 OFFCURVE",
"213 -14 OFFCURVE",
"413 -14 CURVE SMOOTH",
"424 -14 OFFCURVE",
"434 -14 OFFCURVE",
"455 -12 CURVE",
"528 -129 LINE",
"762 -129 LINE",
"652 42 LINE"
);
}
);
width = 878;
},
{
anchors = (
{
name = bottom;
position = "{439, 0}";
},
{
name = top;
position = "{627, 700}";
}
);
layerId = "BBDB329E-CE83-4304-A6B1-53EA5ACC004E";
paths = (
{
closed = 1;
nodes = (
"720 635 OFFCURVE",
"771 535 OFFCURVE",
"725 364 CURVE SMOOTH",
"711 314 OFFCURVE",
"657 212 OFFCURVE",
"652 212 CURVE SMOOTH",
"615 212 OFFCURVE",
"563 233 OFFCURVE",
"505 272 CURVE",
"443 184 LINE",
"407 183 LINE SMOOTH",
"349 181 OFFCURVE",
"264 180 OFFCURVE",
"314 364 CURVE SMOOTH",
"355 519 OFFCURVE",
"474 635 OFFCURVE",
"592 635 CURVE SMOOTH"
);
},
{
closed = 1;
nodes = (
"789 134 OFFCURVE",
"849 232 OFFCURVE",
"884 364 CURVE SMOOTH",
"950 610 OFFCURVE",
"849 769 OFFCURVE",
"628 769 CURVE SMOOTH",
"418 769 OFFCURVE",
"212 593 OFFCURVE",
"151 364 CURVE SMOOTH",
"73 72 OFFCURVE",
"145 -41 OFFCURVE",
"406 -41 CURVE SMOOTH",
"414 -41 OFFCURVE",
"422 -41 OFFCURVE",
"437 -40 CURVE",
"509 -156 LINE",
"817 -156 LINE",
"688 42 LINE"
);
}
);
width = 878;
}
);
unicode = 0051;
},
{
color = 6;
glyphname = R;
lastChange = "2019-09-05 22:37:16 +0000";
layers = (
{
anchors = (
{
name = bottom;
position = "{323, 0}";
},
{
name = bottom_hook;
position = "{121, -20}";
},
{
name = top;
position = "{519, 729}";
}
);
layerId = "BA196CD0-EE58-4274-B8DF-4393D3617A29";
paths = (
{
closed = 1;
nodes = (
"599 373 OFFCURVE",
"655 423 OFFCURVE",
"680 519 CURVE SMOOTH",
"718 660 OFFCURVE",
"650 729 OFFCURVE",
"501 729 CURVE SMOOTH",
"322 729 LINE",
"81 0 LINE",
"239 0 LINE",
"298 282 LINE",
"353 291 LINE SMOOTH",
"416 301 OFFCURVE",
"522 294 OFFCURVE",
"488 187 CURVE SMOOTH",
"429 0 LINE",
"611 0 LINE",
"607 199 LINE SMOOTH",
"605 277 OFFCURVE",
"564 340 OFFCURVE",
"527 362 CURVE"
);
},
{
closed = 1;
nodes = (
"573 677 OFFCURVE",
"643 644 OFFCURVE",
"610 519 CURVE SMOOTH",
"593 456 OFFCURVE",
"500 405 OFFCURVE",
"425 405 CURVE SMOOTH",
"299 405 LINE",
"372 677 LINE",
"498 677 LINE SMOOTH"
);
}
);
width = 692;
},
{
anchors = (
{
name = bottom;
position = "{323, 0}";
},
{
name = bottom_hook;
position = "{121, -20}";
},
{
name = top;
position = "{519, 729}";
}
);
layerId = "BBDB329E-CE83-4304-A6B1-53EA5ACC004E";
paths = (
{
closed = 1;
nodes = (
"643 382 OFFCURVE",
"686 439 OFFCURVE",
"708 519 CURVE SMOOTH",
"748 671 OFFCURVE",
"676 756 OFFCURVE",
"509 756 CURVE SMOOTH",
"304 756 LINE",
"44 -27 LINE",
"261 -27 LINE",
"320 260 LINE",
"351 264 LINE SMOOTH",
"438 278 OFFCURVE",
"481 250 OFFCURVE",
"461 188 CURVE SMOOTH",
"394 -27 LINE",
"640 -27 LINE",
"635 206 LINE SMOOTH",
"634 260 OFFCURVE",
"614 316 OFFCURVE",
"582 353 CURVE"
);
},
{
closed = 1;
nodes = (
"575 650 OFFCURVE",
"606 607 OFFCURVE",
"582 519 CURVE SMOOTH",
"571 476 OFFCURVE",
"498 432 OFFCURVE",
"432 432 CURVE SMOOTH",
"334 432 LINE",
"392 650 LINE",
"490 650 LINE SMOOTH"
);
}
);
width = 692;
}
);
unicode = 0052;
},
{
color = 6;
glyphname = S;
lastChange = "2019-09-05 22:37:16 +0000";
layers = (
{
anchors = (
{
name = bottom;
position = "{382, 13}";
},
{
name = top;
position = "{574, 729}";
}
);
layerId = "BA196CD0-EE58-4274-B8DF-4393D3617A29";
paths = (
{
closed = 1;
nodes = (
"695 737 OFFCURVE",
"654 742 OFFCURVE",
"586 742 CURVE SMOOTH",
"424 742 OFFCURVE",
"306 663 OFFCURVE",
"271 534 CURVE SMOOTH",
"242 423 OFFCURVE",
"288 364 OFFCURVE",
"429 335 CURVE SMOOTH",
"487 323 LINE SMOOTH",
"582 303 OFFCURVE",
"642 268 OFFCURVE",
"623 208 CURVE SMOOTH",
"592 110 OFFCURVE",
"525 100 OFFCURVE",
"424 100 CURVE SMOOTH",
"368 100 OFFCURVE",
"279 138 OFFCURVE",
"249 167 CURVE",
"104 85 LINE",
"142 -14 OFFCURVE",
"231 -14 OFFCURVE",
"361 -14 CURVE SMOOTH",
"598 -14 OFFCURVE",
"683 -14 OFFCURVE",
"741 201 CURVE SMOOTH",
"773 320 OFFCURVE",
"684 387 OFFCURVE",
"541 417 CURVE SMOOTH",
"485 429 LINE SMOOTH",
"402 447 OFFCURVE",
"333 485 OFFCURVE",
"350 549 CURVE SMOOTH",
"371 626 OFFCURVE",
"467 662 OFFCURVE",
"575 662 CURVE SMOOTH",
"646 662 OFFCURVE",
"658 659 OFFCURVE",
"704 646 CURVE",
"766 720 LINE"
);
}
);
width = 768;
},
{
anchors = (
{
name = bottom;
position = "{382, 13}";
},
{
name = top;
position = "{582, 759}";
}
);
layerId = "BBDB329E-CE83-4304-A6B1-53EA5ACC004E";
paths = (
{
closed = 1;
nodes = (
"591 -41 OFFCURVE",
"703 -41 OFFCURVE",
"768 201 CURVE SMOOTH",
"801 324 OFFCURVE",
"725 408 OFFCURVE",
"553 443 CURVE SMOOTH",
"497 455 LINE SMOOTH",
"409 475 OFFCURVE",
"367 509 OFFCURVE",
"377 549 CURVE SMOOTH",
"391 601 OFFCURVE",
"462 635 OFFCURVE",
"568 635 CURVE SMOOTH",
"644 635 OFFCURVE",
"646 632 OFFCURVE",
"709 615 CURVE",
"812 738 LINE",
"718 762 OFFCURVE",
"674 769 OFFCURVE",
"593 769 CURVE SMOOTH",
"417 769 OFFCURVE",
"283 679 OFFCURVE",
"244 534 CURVE SMOOTH",
"211 409 OFFCURVE",
"265 340 OFFCURVE",
"417 309 CURVE SMOOTH",
"474 297 LINE SMOOTH",
"569 277 OFFCURVE",
"608 246 OFFCURVE",
"596 209 CURVE SMOOTH",
"576 143 OFFCURVE",
"543 127 OFFCURVE",
"431 127 CURVE SMOOTH",
"378 127 OFFCURVE",
"276 170 OFFCURVE",
"261 201 CURVE",
"69 93 LINE",
"106 -41 OFFCURVE",
"215 -41 OFFCURVE",
"354 -41 CURVE SMOOTH"
);
}
);
width = 768;
}
);
unicode = 0053;
},
{
glyphname = Saltillo;
lastChange = "2019-09-05 22:37:16 +0000";
layers = (
{
layerId = "BA196CD0-EE58-4274-B8DF-4393D3617A29";
paths = (
{
closed = 1;
nodes = (
"192 120 LINE",
"296 120 LINE",
"520 763 LINE",
"285 763 LINE"
);
}
);
width = 396;
},
{
layerId = "BBDB329E-CE83-4304-A6B1-53EA5ACC004E";
paths = (
{
closed = 1;
nodes = (
"265 93 LINE",
"419 93 LINE",
"661 790 LINE",
"367 790 LINE"
);
}
);
width = 606;
}
);
unicode = A78B;
},
{
color = 6;
glyphname = T;
lastChange = "2019-09-05 22:37:16 +0000";
layers = (
{
anchors = (
{
name = bottom;
position = "{392, 0}";
},
{
name = bottom_hook;
position = "{413, -29}";
},
{
name = center;
position = "{490, 365}";
},
{
name = hook_top;
position = "{293, 691}";
},
{
name = top;
position = "{587, 729}";
}
);
layerId = "BA196CD0-EE58-4274-B8DF-4393D3617A29";
paths = (
{
closed = 1;
nodes = (
"518 656 LINE",
"323 0 LINE",
"463 0 LINE",
"618 656 LINE",
"877 646 LINE",
"899 729 LINE",
"276 729 LINE",
"254 646 LINE"
);
}
);
width = 785;
},
{
anchors = (
{
name = bottom;
position = "{384, -30}";
},
{
name = bottom_hook;
position = "{413, -29}";
},
{
name = center;
position = "{490, 365}";
},
{
name = hook_top;
position = "{319, 691}";
},
{
name = top;
position = "{596, 763}";
}
);
layerId = "BBDB329E-CE83-4304-A6B1-53EA5ACC004E";
paths = (
{
closed = 1;
nodes = (
"482 628 LINE",
"288 -27 LINE",
"484 -27 LINE",
"639 628 LINE",
"897 618 LINE",
"934 756 LINE",
"256 756 LINE",
"219 618 LINE"
);
}
);
width = 785;
}
);
unicode = 0054;
},
{
color = 6;
glyphname = U;
lastChange = "2019-09-05 22:48:56 +0000";
layers = (
{
anchors = (
{
name = bottom;
position = "{382, 0}";
},
{
name = horn;
position = "{875, 672}";
},
{
name = ogonek;
position = "{541, 35}";
},
{
name = top;
position = "{585, 800}";
},
{
name = top_hook;
position = "{805, 663}";
},
{
name = topright;
position = "{926, 700}";
}
);
layerId = "BA196CD0-EE58-4274-B8DF-4393D3617A29";
paths = (
{
closed = 1;
nodes = (
"103 -14 OFFCURVE",
"189 -14 OFFCURVE",
"376 -14 CURVE SMOOTH",
"561 -14 OFFCURVE",
"643 -14 OFFCURVE",
"734 274 CURVE SMOOTH",
"878 729 LINE",
"747 729 LINE",
"660 354 LINE SMOOTH",
"612 142 OFFCURVE",
"545 142 OFFCURVE",
"418 142 CURVE SMOOTH",
"290 142 OFFCURVE",
"222 142 OFFCURVE",
"287 354 CURVE SMOOTH",
"401 729 LINE",
"276 729 LINE",
"170 274 LINE SMOOTH"
);
}
);
width = 764;
},
{
anchors = (
{
name = bottom;
position = "{369, -41}";
},
{
name = horn;
position = "{875, 672}";
},
{
name = ogonek;
position = "{541, 35}";
},
{
name = top;
position = "{614, 858}";
},
{
name = top_hook;
position = "{791, 685}";
},
{
name = topright;
position = "{926, 700}";
}
);
layerId = "BBDB329E-CE83-4304-A6B1-53EA5ACC004E";
paths = (
{
closed = 1;
nodes = (
"70 -41 OFFCURVE",
"182 -41 OFFCURVE",
"369 -41 CURVE SMOOTH",
"554 -41 OFFCURVE",
"662 -41 OFFCURVE",
"761 273 CURVE SMOOTH",
"914 756 LINE",
"726 756 LINE",
"633 353 LINE SMOOTH",
"591 169 OFFCURVE",
"552 169 OFFCURVE",
"425 169 CURVE SMOOTH",
"297 169 OFFCURVE",
"257 169 OFFCURVE",
"314 353 CURVE SMOOTH",
"437 756 LINE",
"255 756 LINE",
"143 273 LINE SMOOTH"
);
}
);
width = 764;
}
);
unicode = 0055;
},
{
color = 6;
glyphname = V;
lastChange = "2019-09-05 22:37:16 +0000";
layers = (
{
anchors = (
{
name = bottom;
position = "{418, 0}";
},
{
name = top;
position = "{606, 700}";
},
{
name = top_hook;
position = "{850, 622}";
}
);
layerId = "BA196CD0-EE58-4274-B8DF-4393D3617A29";
paths = (
{
closed = 1;
nodes = (
"951 729 LINE",
"848 729 LINE",
"490 214 LINE",
"442 214 LINE",
"380 729 LINE",
"276 729 LINE",
"310 0 LINE",
"516 0 LINE"
);
}
);
width = 836;
},
{
anchors = (
{
name = bottom;
position = "{418, 0}";
},
{
name = top;
position = "{620, 752}";
},
{
name = top_hook;
position = "{850, 622}";
}
);
layerId = "BBDB329E-CE83-4304-A6B1-53EA5ACC004E";
paths = (
{
closed = 1;
nodes = (
"995 756 LINE",
"837 756 LINE",
"479 241 LINE",
"469 241 LINE",
"407 756 LINE",
"246 756 LINE",
"283 -27 LINE",
"529 -27 LINE"
);
}
);
width = 836;
}
);
unicode = 0056;
},
{
glyphname = Gammaafrican;
lastChange = "2019-09-05 22:37:16 +0000";
layers = (
{
layerId = "BA196CD0-EE58-4274-B8DF-4393D3617A29";
paths = (
{
closed = 1;
nodes = (
"475 749 CURVE SMOOTH",
"469 771 OFFCURVE",
"466 775 OFFCURVE",
"456 800 CURVE",
"295 800 LINE",
"303 780 OFFCURVE",
"317 738 OFFCURVE",
"322 726 CURVE SMOOTH",
"564 16 OFFCURVE",
"616 -78 OFFCURVE",
"449 -73 CURVE SMOOTH",
"237 -67 OFFCURVE",
"387 98 OFFCURVE",
"1012 713 CURVE SMOOTH",
"1022 723 OFFCURVE",
"1087 783 OFFCURVE",
"1105 800 CURVE",
"919 800 LINE",
"903 783 OFFCURVE",
"906 789 OFFCURVE",
"892 772 CURVE SMOOTH",
"291 93 OFFCURVE",
"-113 -194 OFFCURVE",
"419 -200 CURVE SMOOTH",
"859 -205 OFFCURVE",
"664 27 OFFCURVE"
);
}
);
width = 972;
},
{
layerId = "BBDB329E-CE83-4304-A6B1-53EA5ACC004E";
paths = (
{
closed = 1;
nodes = (
"896 -233 OFFCURVE",
"678 62 OFFCURVE",
"496 762 CURVE SMOOTH",
"488 791 OFFCURVE",
"483 794 OFFCURVE",
"470 827 CURVE",
"245 827 LINE",
"269 767 OFFCURVE",
"282 725 OFFCURVE",
"288 712 CURVE",
"533 -6 OFFCURVE",
"565 -49 OFFCURVE",
"450 -46 CURVE SMOOTH",
"297 -42 OFFCURVE",
"365 49 OFFCURVE",
"1023 697 CURVE",
"1016 690 OFFCURVE",
"1046 716 OFFCURVE",
"1170 827 CURVE",
"905 827 LINE",
"877 797 OFFCURVE",
"883 806 OFFCURVE",
"865 786 CURVE SMOOTH",
"281 127 OFFCURVE",
"-179 -220 OFFCURVE",
"405 -227 CURVE SMOOTH"
);
}
);
width = 957;
}
);
unicode = 0194;
},
{
color = 6;
glyphname = W;
lastChange = "2019-09-05 22:37:16 +0000";
layers = (
{
anchors = (
{
name = bottom;
position = "{547, 0}";
},
{
name = top;
position = "{740, 729}";
},
{
name = top_hook;
position = "{1211, 500}";
}
);
layerId = "BA196CD0-EE58-4274-B8DF-4393D3617A29";
paths = (
{
closed = 1;
nodes = (
"401 0 LINE",
"653 394 LINE",
"683 0 LINE",
"828 0 LINE",
"1208 729 LINE",
"1112 729 LINE",
"800 196 LINE",
"733 543 LINE",
"646 543 LINE",
"381 206 LINE",
"372 729 LINE",
"276 729 LINE",
"245 0 LINE"
);
}
);
width = 1094;
},
{
anchors = (
{
name = bottom;
position = "{547, 0}";
},
{
name = top;
position = "{740, 729}";
},
{
name = top_hook;
position = "{1211, 500}";
}
);
layerId = "BBDB329E-CE83-4304-A6B1-53EA5ACC004E";
paths = (
{
closed = 1;
nodes = (
"413 -27 LINE",
"630 313 LINE",
"656 -27 LINE",
"842 -27 LINE",
"1251 756 LINE",
"1099 756 LINE",
"815 271 LINE",
"758 570 LINE",
"638 570 LINE",
"408 279 LINE",
"400 756 LINE",
"249 756 LINE",
"216 -27 LINE"
);
}
);
width = 1094;
}
);
unicode = 0057;
},
{
color = 6;
glyphname = X;
lastChange = "2019-09-05 22:37:16 +0000";
layers = (
{
anchors = (
{
name = bottom;
position = "{399, 0}";
},
{
name = bottom_hook;
position = "{630, 21}";
},
{
name = top;
position = "{587, 700}";
}
);
layerId = "BA196CD0-EE58-4274-B8DF-4393D3617A29";
paths = (
{
closed = 1;
nodes = (
"556 0 LINE",
"716 0 LINE",
"404 729 LINE",
"315 729 LINE"
);
},
{
closed = 1;
nodes = (
"81 2 LINE",
"243 0 LINE",
"887 730 LINE",
"799 730 LINE"
);
}
);
width = 797;
},
{
anchors = (
{
name = bottom;
position = "{399, 0}";
},
{
name = bottom_hook;
position = "{630, 21}";
},
{
name = top;
position = "{587, 700}";
}
);
layerId = "BBDB329E-CE83-4304-A6B1-53EA5ACC004E";
paths = (
{
closed = 1;
nodes = (
"533 -27 LINE",
"760 -27 LINE",
"426 756 LINE",
"274 756 LINE"
);
},
{
closed = 1;
nodes = (
"22 -24 LINE",
"251 -27 LINE",
"943 757 LINE",
"792 757 LINE"
);
}
);
width = 797;
}
);
unicode = 0058;
},
{
color = 6;
glyphname = Y;
lastChange = "2019-09-05 22:37:16 +0000";
layers = (
{
anchors = (
{
name = bottom;
position = "{386, 0}";
},
{
name = top;
position = "{596, 785}";
},
{
name = top_hook;
position = "{876, 500}";
},
{
name = topleft;
position = "{213, 700}";
}
);
layerId = "BA196CD0-EE58-4274-B8DF-4393D3617A29";
paths = (
{
closed = 1;
nodes = (
"317 0 LINE",
"451 0 LINE",
"518 250 LINE",
"886 729 LINE",
"779 729 LINE",
"482 356 LINE",
"383 729 LINE",
"276 729 LINE",
"384 250 LINE"
);
}
);
width = 772;
},
{
anchors = (
{
name = bottom;
position = "{386, 0}";
},
{
name = top;
position = "{601, 829}";
},
{
name = top_hook;
position = "{876, 500}";
},
{
name = topleft;
position = "{156, 700}";
}
);
layerId = "BBDB329E-CE83-4304-A6B1-53EA5ACC004E";
paths = (
{
closed = 1;
nodes = (
"283 -27 LINE",
"472 -27 LINE",
"544 244 LINE",
"937 756 LINE",
"770 756 LINE",
"498 414 LINE",
"407 756 LINE",
"240 756 LINE",
"355 244 LINE"
);
}
);
width = 772;
}
);
unicode = 0059;
},
{
color = 6;
glyphname = Z;
lastChange = "2019-09-05 22:37:16 +0000";
layers = (
{
anchors = (
{
name = bottom;
position = "{407, 0}";
},
{
name = center;
position = "{501, 350}";
},
{
name = top;
position = "{599, 729}";
}
);
layerId = "BA196CD0-EE58-4274-B8DF-4393D3617A29";
paths = (
{
closed = 1;
nodes = (
"336 681 LINE",
"915 681 LINE",
"895 606 LINE",
"244 146 LINE",
"702 146 LINE",
"712 6 LINE",
"81 0 LINE",
"118 139 LINE",
"768 598 LINE",
"361 604 LINE"
);
}
);
width = 813;
},
{
anchors = (
{
name = bottom;
position = "{407, 0}";
},
{
name = center;
position = "{501, 350}";
},
{
name = top;
position = "{599, 729}";
}
);
layerId = "BBDB329E-CE83-4304-A6B1-53EA5ACC004E";
paths = (
{
closed = 1;
nodes = (
"690 572 LINE",
"94 151 LINE",
"46 -28 LINE",
"743 -20 LINE",
"729 173 LINE",
"324 173 LINE",
"919 594 LINE",
"949 708 LINE",
"294 708 LINE",
"338 577 LINE"
);
}
);
width = 813;
}
);
unicode = 005A;
},
{
color = 6;
glyphname = A.ss04;
lastChange = "2019-09-05 22:37:16 +0000";
layers = (
{
anchors = (
{
name = abovecomb;
position = "{625, 766}";
},
{
name = bottom;
position = "{418, 0}";
},
{
name = dotbelow;
position = "{430, 6}";
},
{
name = dotbelowcomb;
position = "{427, 7}";
},
{
name = greekcap;
position = "{370, 603}";
},
{
name = ogonek;
position = "{649, 0}";
},
{
name = polyomicron;
position = "{379, 605}";
},
{
name = top;
position = "{623, 759}";
}
);
layerId = "BA196CD0-EE58-4274-B8DF-4393D3617A29";
paths = (
{
closed = 1;
nodes = (
"346 235 LINE",
"596 668 LINE",
"617 235 LINE"
);
},
{
closed = 1;
nodes = (
"216 0 LINE",
"285 119 LINE",
"617 119 LINE",
"613 0 LINE",
"755 0 LINE",
"661 729 LINE",
"567 729 LINE",
"81 0 LINE"
);
}
);
width = 836;
},
{
anchors = (
{
name = abovecomb;
position = "{629, 781}";
},
{
name = bottom;
position = "{418, 0}";
},
{
name = dotbelow;
position = "{430, 6}";
},
{
name = dotbelowcomb;
position = "{427, 7}";
},
{
name = greekcap;
position = "{370, 603}";
},
{
name = ogonek;
position = "{649, 0}";
},
{
name = polyomicron;
position = "{379, 605}";
},
{
name = top;
position = "{628, 778}";
}
);
layerId = "BBDB329E-CE83-4304-A6B1-53EA5ACC004E";
paths = (
{
closed = 1;
nodes = (
"390 262 LINE",
"572 577 LINE",
"587 262 LINE"
);
},
{
closed = 1;
nodes = (
"229 -27 LINE",
"298 92 LINE",
"588 92 LINE",
"585 -27 LINE",
"789 -27 LINE",
"686 756 LINE",
"556 756 LINE",
"33 -27 LINE"
);
}
);
width = 836;
}
);
},
{
color = 6;
glyphname = B.ss04;
lastChange = "2019-09-05 22:37:16 +0000";
layers = (
{
anchors = (
{
name = bottom;
position = "{347, 0}";
},
{
name = top;
position = "{535, 700}";
},
{
name = top_hook;
position = "{66, 470}";
}
);
layerId = "BA196CD0-EE58-4274-B8DF-4393D3617A29";
paths = (
{
closed = 1;
nodes = (
"487 348 OFFCURVE",
"525 338 OFFCURVE",
"544 316 CURVE SMOOTH",
"564 293 OFFCURVE",
"575 268 OFFCURVE",
"569 248 CURVE SMOOTH",
"546 160 OFFCURVE",
"486 145 OFFCURVE",
"379 145 CURVE SMOOTH",
"220 145 LINE",
"274 348 LINE",
"434 348 LINE SMOOTH"
);
},
{
closed = 1;
nodes = (
"603 663 OFFCURVE",
"637 612 OFFCURVE",
"617 538 CURVE SMOOTH",
"597 464 OFFCURVE",
"540 428 OFFCURVE",
"443 428 CURVE SMOOTH",
"295 428 LINE",
"358 663 LINE",
"506 663 LINE SMOOTH"
);
},
{
closed = 1;
nodes = (
"345 0 LINE SMOOTH",
"511 0 OFFCURVE",
"613 0 OFFCURVE",
"668 204 CURVE SMOOTH",
"694 303 OFFCURVE",
"654 372 OFFCURVE",
"530 393 CURVE",
"614 406 OFFCURVE",
"671 459 OFFCURVE",
"696 549 CURVE SMOOTH",
"726 664 OFFCURVE",
"658 729 OFFCURVE",
"506 729 CURVE SMOOTH",
"276 729 LINE",
"81 0 LINE"
);
}
);
width = 694;
},
{
anchors = (
{
name = bottom;
position = "{347, 0}";
},
{
name = top;
position = "{535, 700}";
},
{
name = top_hook;
position = "{66, 470}";
}
);
layerId = "BBDB329E-CE83-4304-A6B1-53EA5ACC004E";
paths = (
{
closed = 1;
nodes = (
"476 321 OFFCURVE",
"506 313 OFFCURVE",
"521 296 CURVE SMOOTH",
"538 277 OFFCURVE",
"545 258 OFFCURVE",
"542 248 CURVE SMOOTH",
"526 188 OFFCURVE",
"496 172 OFFCURVE",
"386 172 CURVE SMOOTH",
"254 172 LINE",
"294 321 LINE",
"426 321 LINE SMOOTH"
);
},
{
closed = 1;
nodes = (
"575 636 OFFCURVE",
"606 601 OFFCURVE",
"590 538 CURVE SMOOTH",
"574 481 OFFCURVE",
"533 455 OFFCURVE",
"450 455 CURVE SMOOTH",
"330 455 LINE",
"378 636 LINE",
"499 636 LINE SMOOTH"
);
},
{
closed = 1;
nodes = (
"338 -27 LINE SMOOTH",
"504 -27 OFFCURVE",
"633 -27 OFFCURVE",
"695 204 CURVE SMOOTH",
"720 296 OFFCURVE",
"692 363 OFFCURVE",
"616 398 CURVE",
"667 429 OFFCURVE",
"705 481 OFFCURVE",
"723 549 CURVE SMOOTH",
"758 680 OFFCURVE",
"679 756 OFFCURVE",
"514 756 CURVE SMOOTH",
"256 756 LINE",
"46 -27 LINE"
);
}
);
width = 694;
}
);
},
{
color = 6;
glyphname = C.ss04;
lastChange = "2019-09-05 22:37:16 +0000";
layers = (
{
anchors = (
{
name = bottom;
position = "{393, 0}";
},
{
name = top;
position = "{588, 729}";
},
{
name = top_hook;
position = "{805, 682}";
}
);
layerId = "BA196CD0-EE58-4274-B8DF-4393D3617A29";
paths = (
{
closed = 1;
nodes = (
"753 744 OFFCURVE",
"729 746 OFFCURVE",
"640 746 CURVE SMOOTH",
"417 746 OFFCURVE",
"242 602 OFFCURVE",
"179 368 CURVE SMOOTH",
"81 0 OFFCURVE",
"113 -13 OFFCURVE",
"305 -13 CURVE SMOOTH",
"389 -13 OFFCURVE",
"420 -13 OFFCURVE",
"619 -13 CURVE",
"665 159 LINE",
"611 144 OFFCURVE",
"570 139 OFFCURVE",
"484 139 CURVE SMOOTH",
"316 139 OFFCURVE",
"220 197 OFFCURVE",
"266 368 CURVE SMOOTH",
"318 561 OFFCURVE",
"459 672 OFFCURVE",
"626 672 CURVE SMOOTH",
"712 672 OFFCURVE",
"712 672 OFFCURVE",
"805 656 CURVE",
"840 732 LINE"
);
}
);
width = 724;
},
{
anchors = (
{
name = bottom;
position = "{393, 0}";
},
{
name = top;
position = "{593, 748}";
},
{
name = top_hook;
position = "{805, 682}";
}
);
layerId = "BBDB329E-CE83-4304-A6B1-53EA5ACC004E";
paths = (
{
closed = 1;
nodes = (
"767 770 OFFCURVE",
"746 773 OFFCURVE",
"647 773 CURVE SMOOTH",
"409 773 OFFCURVE",
"219 617 OFFCURVE",
"152 368 CURVE SMOOTH",
"56 9 OFFCURVE",
"71 -40 OFFCURVE",
"297 -40 CURVE SMOOTH",
"385 -40 OFFCURVE",
"416 -40 OFFCURVE",
"639 -40 CURVE",
"702 197 LINE",
"628 173 OFFCURVE",
"591 166 OFFCURVE",
"491 166 CURVE SMOOTH",
"317 166 OFFCURVE",
"256 229 OFFCURVE",
"294 368 CURVE SMOOTH",
"340 541 OFFCURVE",
"463 645 OFFCURVE",
"619 645 CURVE SMOOTH",
"714 645 OFFCURVE",
"706 644 OFFCURVE",
"819 625 CURVE",
"878 755 LINE"
);
}
);
width = 724;
}
);
},
{
color = 6;
glyphname = D.ss04;
lastChange = "2019-09-05 22:37:16 +0000";
layers = (
{
anchors = (
{
name = bottom;
position = "{391, 0}";
},
{
name = dash;
position = "{304, 378}";
},
{
name = hook_top;
position = "{248, 669}";
},
{
name = top;
position = "{560, 729}";
}
);
layerId = "BA196CD0-EE58-4274-B8DF-4393D3617A29";
paths = (
{
closed = 1;
nodes = (
"686 659 OFFCURVE",
"773 573 OFFCURVE",
"724 393 CURVE SMOOTH",
"692 271 OFFCURVE",
"611 190 OFFCURVE",
"357 190 CURVE SMOOTH",
"237 190 LINE",
"362 659 LINE",
"483 659 LINE SMOOTH"
);
},
{
closed = 1;
nodes = (
"286 0 LINE SMOOTH",
"571 0 OFFCURVE",
"700 0 OFFCURVE",
"798 365 CURVE SMOOTH",
"865 615 OFFCURVE",
"767 729 OFFCURVE",
"481 729 CURVE SMOOTH",
"276 729 LINE",
"81 0 LINE"
);
}
);
width = 781;
},
{
anchors = (
{
name = bottom;
position = "{391, 0}";
},
{
name = dash;
position = "{304, 378}";
},
{
name = hook_top;
position = "{248, 669}";
},
{
name = top;
position = "{563, 766}";
}
);
layerId = "BBDB329E-CE83-4304-A6B1-53EA5ACC004E";
paths = (
{
closed = 1;
nodes = (
"668 632 OFFCURVE",
"740 553 OFFCURVE",
"697 393 CURVE SMOOTH",
"663 266 OFFCURVE",
"573 217 OFFCURVE",
"364 217 CURVE SMOOTH",
"271 217 LINE",
"382 632 LINE",
"475 632 LINE SMOOTH"
);
},
{
closed = 1;
nodes = (
"279 -27 LINE SMOOTH",
"563 -27 OFFCURVE",
"720 -27 OFFCURVE",
"825 365 CURVE SMOOTH",
"896 631 OFFCURVE",
"788 756 OFFCURVE",
"488 756 CURVE SMOOTH",
"256 756 LINE",
"46 -27 LINE"
);
}
);
width = 781;
}
);
},
{
color = 6;
glyphname = E.ss04;
lastChange = "2019-09-05 22:37:16 +0000";
layers = (
{
anchors = (
{
name = bottom;
position = "{334, 0}";
},
{
name = ogonek;
position = "{348, 9}";
},
{
name = top;
position = "{541, 766}";
},
{
name = topleft;
position = "{213, 700}";
}
);
layerId = "BA196CD0-EE58-4274-B8DF-4393D3617A29";
paths = (
{
closed = 1;
nodes = (
"569 0 LINE",
"576 151 LINE",
"239 151 LINE",
"288 331 LINE",
"539 347 LINE",
"562 430 LINE",
"311 419 LINE",
"370 637 LINE",
"708 656 LINE",
"749 729 LINE",
"297 715 LINE",
"81 0 LINE"
);
}
);
width = 649;
},
{
anchors = (
{
name = bottom;
position = "{334, 0}";
},
{
name = ogonek;
position = "{348, 9}";
},
{
name = top;
position = "{541, 766}";
},
{
name = topleft;
position = "{213, 700}";
}
);
layerId = "BBDB329E-CE83-4304-A6B1-53EA5ACC004E";
paths = (
{
closed = 1;
nodes = (
"596 -27 LINE",
"605 178 LINE",
"274 178 LINE",
"308 306 LINE",
"560 322 LINE",
"596 458 LINE",
"346 447 LINE",
"390 612 LINE",
"722 630 LINE",
"793 757 LINE",
"277 741 LINE",
"45 -27 LINE"
);
}
);
width = 649;
}
);
},
{
color = 6;
glyphname = F.ss04;
lastChange = "2019-09-05 22:37:16 +0000";
layers = (
{
anchors = (
{
name = bottom;
position = "{295, 0}";
},
{
name = bottom_hook;
position = "{105, -38}";
},
{
name = top;
position = "{482, 700}";
}
);
layerId = "BA196CD0-EE58-4274-B8DF-4393D3617A29";
paths = (
{
closed = 1;
nodes = (
"213 0 LINE",
"289 348 LINE",
"560 366 LINE",
"587 468 LINE",
"311 450 LINE",
"388 646 LINE",
"686 663 LINE",
"703 729 LINE",
"312 717 LINE",
"81 0 LINE"
);
}
);
width = 589;
},
{
anchors = (
{
name = bottom;
position = "{295, 0}";
},
{
name = bottom_hook;
position = "{105, -38}";
},
{
name = top;
position = "{482, 700}";
}
);
layerId = "BBDB329E-CE83-4304-A6B1-53EA5ACC004E";
paths = (
{
closed = 1;
nodes = (
"234 -27 LINE",
"311 323 LINE",
"580 341 LINE",
"622 497 LINE",
"351 479 LINE",
"405 620 LINE",
"706 638 LINE",
"738 757 LINE",
"293 743 LINE",
"44 -27 LINE"
);
}
);
width = 589;
}
);
},
{
color = 6;
glyphname = G.ss04;
lastChange = "2019-09-05 22:37:16 +0000";
layers = (
{
anchors = (
{
name = bottom;
position = "{415, 0}";
},
{
name = top;
position = "{646, 766}";
},
{
name = top_hook;
position = "{810, 700}";
}
);
layerId = "BA196CD0-EE58-4274-B8DF-4393D3617A29";
paths = (
{
closed = 1;
nodes = (
"550 -14 OFFCURVE",
"622 -14 OFFCURVE",
"720 40 CURVE",
"764 246 LINE",
"832 245 LINE",
"841 341 LINE",
"565 373 LINE",
"549 279 LINE",
"681 261 LINE",
"660 182 LINE",
"629 157 OFFCURVE",
"566 145 OFFCURVE",
"495 145 CURVE SMOOTH",
"316 145 OFFCURVE",
"245 194 OFFCURVE",
"286 374 CURVE",
"361 654 OFFCURVE",
"455 665 OFFCURVE",
"635 665 CURVE SMOOTH",
"684 665 OFFCURVE",
"761 661 OFFCURVE",
"833 644 CURVE",
"843 722 LINE",
"820 726 OFFCURVE",
"742 736 OFFCURVE",
"646 736 CURVE SMOOTH",
"415 736 OFFCURVE",
"264 685 OFFCURVE",
"178 364 CURVE SMOOTH",
"115 126 OFFCURVE",
"214 -14 OFFCURVE",
"445 -14 CURVE SMOOTH"
);
}
);
width = 847;
},
{
anchors = (
{
name = bottom;
position = "{410, -20}";
},
{
name = top;
position = "{645, 746}";
},
{
name = top_hook;
position = "{810, 700}";
}
);
layerId = "BBDB329E-CE83-4304-A6B1-53EA5ACC004E";
paths = (
{
closed = 1;
nodes = (
"610 181 OFFCURVE",
"562 172 OFFCURVE",
"503 172 CURVE SMOOTH",
"325 172 OFFCURVE",
"278 221 OFFCURVE",
"314 375 CURVE",
"382 630 OFFCURVE",
"450 638 OFFCURVE",
"627 638 CURVE SMOOTH",
"711 638 OFFCURVE",
"796 627 OFFCURVE",
"856 608 CURVE",
"873 745 LINE",
"831 753 OFFCURVE",
"751 763 OFFCURVE",
"653 763 CURVE SMOOTH",
"362 763 OFFCURVE",
"230 659 OFFCURVE",
"151 364 CURVE SMOOTH",
"84 112 OFFCURVE",
"191 -41 OFFCURVE",
"437 -41 CURVE SMOOTH",
"548 -41 OFFCURVE",
"631 -41 OFFCURVE",
"744 26 CURVE",
"786 219 LINE",
"857 218 LINE",
"871 366 LINE",
"543 404 LINE",
"518 255 LINE",
"647 237 LINE",
"636 195 LINE"
);
}
);
width = 847;
}
);
},
{
color = 6;
glyphname = H.ss04;
lastChange = "2019-09-05 22:37:16 +0000";
layers = (
{
anchors = (
{
name = bottom;
position = "{390, 0}";
},
{
name = caccent;
position = "{763, 153}";
},
{
name = center;
position = "{485, 365}";
},
{
name = eng;
position = "{642, 52}";
},
{
name = gram;
position = "{817, 323}";
},
{
name = greek_top;
position = "{222, 654}";
},
{
name = mark;
position = "{965, 682}";
},
{
name = top;
position = "{612, 810}";
},
{
name = top_hook;
position = "{97, 473}";
},
{
name = topleft;
position = "{213, 700}";
}
);
layerId = "BA196CD0-EE58-4274-B8DF-4393D3617A29";
paths = (
{
closed = 1;
nodes = (
"81 0 LINE",
"234 0 LINE",
"401 729 LINE",
"296 729 LINE"
);
},
{
closed = 1;
nodes = (
"537 0 LINE",
"698 0 LINE",
"862 729 LINE",
"757 729 LINE"
);
},
{
closed = 1;
nodes = (
"233 187 LINE",
"631 187 LINE",
"677 332 LINE",
"272 332 LINE"
);
}
);
width = 779;
},
{
anchors = (
{
name = bottom;
position = "{390, 0}";
},
{
name = caccent;
position = "{763, 153}";
},
{
name = center;
position = "{485, 365}";
},
{
name = eng;
position = "{642, 52}";
},
{
name = gram;
position = "{817, 323}";
},
{
name = greek_top;
position = "{222, 654}";
},
{
name = mark;
position = "{965, 682}";
},
{
name = top;
position = "{612, 810}";
},
{
name = top_hook;
position = "{97, 473}";
},
{
name = topleft;
position = "{213, 700}";
}
);
layerId = "BBDB329E-CE83-4304-A6B1-53EA5ACC004E";
paths = (
{
closed = 1;
nodes = (
"45 -27 LINE",
"255 -27 LINE",
"435 756 LINE",
"277 756 LINE"
);
},
{
closed = 1;
nodes = (
"502 -27 LINE",
"719 -27 LINE",
"895 756 LINE",
"738 756 LINE"
);
},
{
closed = 1;
nodes = (
"198 160 LINE",
"650 160 LINE",
"712 359 LINE",
"252 359 LINE"
);
}
);
width = 779;
}
);
},
{
color = 6;
glyphname = I.ss04;
lastChange = "2019-09-05 22:37:16 +0000";
layers = (
{
anchors = (
{
name = bottom;
position = "{158, 4}";
},
{
name = ogonek;
position = "{132, 0}";
},
{
name = top;
position = "{354, 779}";
},
{
name = topleft;
position = "{213, 700}";
}
);
layerId = "BA196CD0-EE58-4274-B8DF-4393D3617A29";
paths = (
{
closed = 1;
nodes = (
"222 0 LINE",
"261 243 OFFCURVE",
"318 492 OFFCURVE",
"391 729 CURVE",
"281 729 LINE",
"265 632 OFFCURVE",
"190 292 OFFCURVE",
"81 0 CURVE"
);
}
);
width = 303;
},
{
anchors = (
{
name = bottom;
position = "{143, -50}";
},
{
name = ogonex;
position = "{149, 16}";
},
{
name = top;
position = "{383, 885}";
},
{
name = topleft;
position = "{213, 700}";
}
);
layerId = "BBDB329E-CE83-4304-A6B1-53EA5ACC004E";
paths = (
{
closed = 1;
nodes = (
"245 -27 LINE",
"287 243 OFFCURVE",
"349 510 OFFCURVE",
"427 756 CURVE",
"258 756 LINE",
"237 626 OFFCURVE",
"158 269 OFFCURVE",
"43 -27 CURVE"
);
}
);
width = 303;
}
);
},
{
color = 6;
glyphname = J.ss04;
lastChange = "2019-09-05 22:37:16 +0000";
layers = (
{
anchors = (
{
name = bottom;
position = "{243, 0}";
},
{
name = top;
position = "{480, 729}";
}
);
layerId = "BA196CD0-EE58-4274-B8DF-4393D3617A29";
paths = (
{
closed = 1;
nodes = (
"484 727 LINE",
"600 727 LINE",
"379 31 LINE SMOOTH",
"323 -145 OFFCURVE",
"249 -209 OFFCURVE",
"91 -211 CURVE",
"26 -205 LINE",
"76 -44 LINE",
"124 -55 LINE SMOOTH",
"204 -74 OFFCURVE",
"259 -16 OFFCURVE",
"276 37 CURVE SMOOTH"
);
}
);
width = 486;
},
{
anchors = (
{
name = bottom;
position = "{243, 0}";
},
{
name = top;
position = "{480, 729}";
}
);
layerId = "BBDB329E-CE83-4304-A6B1-53EA5ACC004E";
paths = (
{
closed = 1;
nodes = (
"230 -14 OFFCURVE",
"170 -28 OFFCURVE",
"117 -14 CURVE SMOOTH",
"-21 23 LINE",
"-118 -192 LINE",
"155 -200 LINE SMOOTH",
"235 -202 OFFCURVE",
"334 -161 OFFCURVE",
"406 29 CURVE SMOOTH",
"668 719 LINE",
"497 719 LINE",
"249 38 LINE SMOOTH"
);
}
);
width = 486;
}
);
},
{
color = 6;
glyphname = K.ss04;
lastChange = "2019-09-05 22:37:16 +0000";
layers = (
{
anchors = (
{
name = bottom;
position = "{315, 0}";
},
{
name = top;
position = "{569, 729}";
},
{
name = top_hook;
position = "{731, 515}";
}
);
layerId = "BA196CD0-EE58-4274-B8DF-4393D3617A29";
paths = (
{
closed = 1;
nodes = (
"210 0 LINE",
"300 289 LINE",
"421 0 LINE",
"657 0 LINE",
"403 327 LINE",
"756 729 LINE",
"628 729 LINE",
"318 359 LINE",
"431 729 LINE",
"342 729 LINE",
"81 0 LINE"
);
}
);
width = 737;
},
{
anchors = (
{
name = bottom;
position = "{315, 0}";
},
{
name = top;
position = "{569, 729}";
},
{
name = top_hook;
position = "{731, 515}";
}
);
layerId = "BBDB329E-CE83-4304-A6B1-53EA5ACC004E";
paths = (
{
closed = 1;
nodes = (
"229 -27 LINE",
"302 206 LINE",
"400 -27 LINE",
"717 -27 LINE",
"438 331 LINE",
"812 756 LINE",
"619 756 LINE",
"379 469 LINE",
"466 756 LINE",
"324 756 LINE",
"43 -27 LINE"
);
}
);
width = 737;
}
);
},
{
color = 6;
glyphname = L.ss04;
lastChange = "2019-09-05 22:37:16 +0000";
layers = (
{
anchors = (
{
name = "_ circumflexbelowcomb";
position = "{316, -26}";
},
{
name = bottom;
position = "{322, 5}";
},
{
name = center;
position = "{412, 350}";
},
{
name = right;
position = "{498, 644}";
},
{
name = top;
position = "{340, 729}";
},
{
name = topright;
position = "{798, 700}";
}
);
layerId = "BA196CD0-EE58-4274-B8DF-4393D3617A29";
paths = (
{
closed = 1;
nodes = (
"554 0 LINE",
"585 151 LINE",
"225 145 LINE",
"381 729 LINE",
"302 729 LINE",
"81 0 LINE"
);
}
);
width = 635;
},
{
anchors = (
{
name = "_ circumflexbelowcomb";
position = "{316, -26}";
},
{
name = bottom;
position = "{322, 5}";
},
{
name = center;
position = "{412, 350}";
},
{
name = right;
position = "{498, 644}";
},
{
name = top;
position = "{353, 779}";
},
{
name = topright;
position = "{798, 700}";
}
);
layerId = "BBDB329E-CE83-4304-A6B1-53EA5ACC004E";
paths = (
{
closed = 1;
nodes = (
"577 -27 LINE",
"617 178 LINE",
"259 172 LINE",
"416 756 LINE",
"283 756 LINE",
"45 -27 LINE"
);
}
);
width = 635;
}
);
},
{
color = 6;
glyphname = M.ss04;
lastChange = "2019-09-05 22:37:16 +0000";
layers = (
{
anchors = (
{
name = _top;
position = "{590, 663}";
},
{
name = bottom;
position = "{441, 0}";
},
{
name = hookbelow;
position = "{851, 157}";
},
{
name = top;
position = "{629, 700}";
}
);
layerId = "BA196CD0-EE58-4274-B8DF-4393D3617A29";
paths = (
{
closed = 1;
nodes = (
"225 0 LINE",
"359 671 LINE",
"406 63 LINE",
"516 63 LINE",
"870 671 LINE",
"639 0 LINE",
"802 0 LINE",
"966 729 LINE",
"828 729 LINE",
"524 289 LINE",
"451 729 LINE",
"302 729 LINE",
"81 0 LINE"
);
}
);
width = 883;
},
{
anchors = (
{
name = _top;
position = "{590, 663}";
},
{
name = bottom;
position = "{441, 0}";
},
{
name = hookbelow;
position = "{851, 157}";
},
{
name = top;
position = "{629, 700}";
}
);
layerId = "BBDB329E-CE83-4304-A6B1-53EA5ACC004E";
paths = (
{
closed = 1;
nodes = (
"247 -27 LINE",
"386 673 LINE",
"330 662 LINE",
"379 36 LINE",
"529 36 LINE",
"894 663 LINE",
"843 673 LINE",
"603 -27 LINE",
"823 -27 LINE",
"999 756 LINE",
"817 756 LINE",
"542 358 LINE",
"476 756 LINE",
"283 756 LINE",
"45 -27 LINE"
);
}
);
width = 883;
}
);
},
{
color = 6;
glyphname = N.ss04;
lastChange = "2019-09-05 22:37:16 +0000";
layers = (
{
anchors = (
{
name = _;
position = "{419, 0}";
},
{
name = bottom;
position = "{383, 0}";
},
{
name = eng;
position = "{573, 12}";
},
{
name = top;
position = "{614, 729}";
}
);
layerId = "BA196CD0-EE58-4274-B8DF-4393D3617A29";
paths = (
{
closed = 1;
nodes = (
"243 0 LINE",
"388 616 LINE",
"481 0 LINE",
"643 0 LINE",
"879 727 LINE",
"787 727 LINE",
"580 139 LINE",
"451 700 LINE",
"327 700 LINE",
"81 0 LINE"
);
}
);
width = 765;
},
{
anchors = (
{
name = _;
position = "{419, 0}";
},
{
name = bottom;
position = "{383, 0}";
},
{
name = eng;
position = "{573, 12}";
},
{
name = top;
position = "{614, 729}";
}
);
layerId = "BBDB329E-CE83-4304-A6B1-53EA5ACC004E";
paths = (
{
closed = 1;
nodes = (
"264 -27 LINE",
"416 617 LINE",
"360 606 LINE",
"455 -27 LINE",
"662 -27 LINE",
"915 754 LINE",
"769 754 LINE",
"587 238 LINE",
"476 727 LINE",
"309 727 LINE",
"44 -27 LINE"
);
}
);
width = 765;
}
);
},
{
color = 6;
glyphname = O.ss04;
lastChange = "2019-09-05 22:37:16 +0000";
layers = (
{
anchors = (
{
name = abovecomb;
position = "{634, 811}";
},
{
name = bottom;
position = "{408, -54}";
},
{
name = center;
position = "{526, 387}";
},
{
name = horn;
position = "{819, 639}";
},
{
name = ogonek;
position = "{758, 10}";
},
{
name = polyomicron;
position = "{295, 672}";
},
{
name = top;
position = "{637, 815}";
},
{
name = topleft;
position = "{213, 700}";
},
{
name = topright;
position = "{1006, 700}";
}
);
layerId = "BA196CD0-EE58-4274-B8DF-4393D3617A29";
paths = (
{
closed = 1;
nodes = (
"747 672 OFFCURVE",
"804 548 OFFCURVE",
"755 364 CURVE SMOOTH",
"715 213 OFFCURVE",
"613 173 OFFCURVE",
"469 173 CURVE SMOOTH",
"324 173 OFFCURVE",
"243 213 OFFCURVE",
"283 364 CURVE SMOOTH",
"333 548 OFFCURVE",
"458 672 OFFCURVE",
"602 672 CURVE SMOOTH"
);
},
{
closed = 1;
nodes = (
"414 742 OFFCURVE",
"240 594 OFFCURVE",
"178 364 CURVE SMOOTH",
"95 54 OFFCURVE",
"184 -12 OFFCURVE",
"418 -14 CURVE SMOOTH",
"674 -16 OFFCURVE",
"770 54 OFFCURVE",
"860 364 CURVE SMOOTH",
"927 594 OFFCURVE",
"828 742 OFFCURVE",
"621 742 CURVE SMOOTH"
);
}
);
width = 843;
},
{
anchors = (
{
name = abovecomb;
position = "{634, 811}";
},
{
name = bottom;
position = "{408, -54}";
},
{
name = center;
position = "{526, 387}";
},
{
name = horn;
position = "{819, 639}";
},
{
name = ogonek;
position = "{758, 10}";
},
{
name = polyomicron;
position = "{295, 672}";
},
{
name = top;
position = "{637, 815}";
},
{
name = topleft;
position = "{213, 700}";
},
{
name = topright;
position = "{1006, 700}";
}
);
layerId = "BBDB329E-CE83-4304-A6B1-53EA5ACC004E";
paths = (
{
closed = 1;
nodes = (
"721 645 OFFCURVE",
"774 536 OFFCURVE",
"728 364 CURVE SMOOTH",
"696 245 OFFCURVE",
"627 200 OFFCURVE",
"476 200 CURVE SMOOTH",
"324 200 OFFCURVE",
"279 246 OFFCURVE",
"311 364 CURVE SMOOTH",
"357 536 OFFCURVE",
"469 645 OFFCURVE",
"595 645 CURVE SMOOTH"
);
},
{
closed = 1;
nodes = (
"405 769 OFFCURVE",
"216 608 OFFCURVE",
"151 364 CURVE SMOOTH",
"71 64 OFFCURVE",
"137 -39 OFFCURVE",
"411 -41 CURVE SMOOTH",
"690 -43 OFFCURVE",
"795 47 OFFCURVE",
"887 363 CURVE SMOOTH",
"957 606 OFFCURVE",
"852 769 OFFCURVE",
"628 769 CURVE SMOOTH"
);
}
);
width = 843;
}
);
},
{
color = 6;
glyphname = P.ss04;
lastChange = "2019-09-05 22:37:16 +0000";
layers = (
{
anchors = (
{
name = bottom;
position = "{326, 0}";
},
{
name = top;
position = "{514, 700}";
},
{
name = top_hook;
position = "{86, 455}";
}
);
layerId = "BA196CD0-EE58-4274-B8DF-4393D3617A29";
paths = (
{
closed = 1;
nodes = (
"620 651 OFFCURVE",
"641 584 OFFCURVE",
"632 549 CURVE SMOOTH",
"603 441 OFFCURVE",
"553 423 OFFCURVE",
"453 419 CURVE SMOOTH",
"316 413 LINE",
"379 651 LINE",
"489 651 LINE SMOOTH"
);
},
{
closed = 1;
nodes = (
"230 0 LINE",
"283 274 LINE",
"405 280 LINE SMOOTH",
"573 288 OFFCURVE",
"668 361 OFFCURVE",
"707 505 CURVE SMOOTH",
"733 601 OFFCURVE",
"688 716 OFFCURVE",
"502 716 CURVE SMOOTH",
"314 716 LINE",
"81 0 LINE"
);
}
);
width = 652;
},
{
anchors = (
{
name = bottom;
position = "{326, 0}";
},
{
name = top;
position = "{514, 700}";
},
{
name = top_hook;
position = "{86, 455}";
}
);
layerId = "BBDB329E-CE83-4304-A6B1-53EA5ACC004E";
paths = (
{
closed = 1;
nodes = (
"563 624 OFFCURVE",
"616 590 OFFCURVE",
"605 549 CURVE SMOOTH",
"583 467 OFFCURVE",
"558 450 OFFCURVE",
"459 446 CURVE SMOOTH",
"350 441 LINE",
"400 624 LINE",
"481 624 LINE SMOOTH"
);
},
{
closed = 1;
nodes = (
"252 -27 LINE",
"306 248 LINE",
"399 253 LINE SMOOTH",
"580 262 OFFCURVE",
"691 345 OFFCURVE",
"734 505 CURVE SMOOTH",
"771 644 OFFCURVE",
"679 743 OFFCURVE",
"509 743 CURVE SMOOTH",
"296 743 LINE",
"44 -27 LINE"
);
}
);
width = 652;
}
);
},
{
color = 6;
glyphname = Q.ss04;
lastChange = "2019-09-05 22:37:16 +0000";
layers = (
{
anchors = (
{
name = bottom;
position = "{439, 0}";
},
{
name = top;
position = "{627, 700}";
}
);
layerId = "BA196CD0-EE58-4274-B8DF-4393D3617A29";
paths = (
{
closed = 1;
nodes = (
"744 662 OFFCURVE",
"801 548 OFFCURVE",
"752 364 CURVE SMOOTH",
"732 288 OFFCURVE",
"675 185 OFFCURVE",
"644 185 CURVE SMOOTH",
"604 185 OFFCURVE",
"554 206 OFFCURVE",
"508 234 CURVE",
"454 158 LINE",
"400 156 LINE SMOOTH",
"343 154 OFFCURVE",
"230 153 OFFCURVE",
"286 364 CURVE SMOOTH",
"328 519 OFFCURVE",
"455 662 OFFCURVE",
"600 662 CURVE SMOOTH"
);
},
{
closed = 1;
nodes = (
"727 106 OFFCURVE",
"812 194 OFFCURVE",
"857 364 CURVE SMOOTH",
"919 594 OFFCURVE",
"828 742 OFFCURVE",
"621 742 CURVE SMOOTH",
"414 742 OFFCURVE",
"232 565 OFFCURVE",
"178 364 CURVE SMOOTH",
"92 40 OFFCURVE",
"213 -14 OFFCURVE",
"413 -14 CURVE SMOOTH",
"424 -14 OFFCURVE",
"434 -14 OFFCURVE",
"455 -12 CURVE",
"528 -129 LINE",
"762 -129 LINE",
"652 42 LINE"
);
}
);
width = 878;
},
{
anchors = (
{
name = bottom;
position = "{439, 0}";
},
{
name = top;
position = "{627, 700}";
}
);
layerId = "BBDB329E-CE83-4304-A6B1-53EA5ACC004E";
paths = (
{
closed = 1;
nodes = (
"720 635 OFFCURVE",
"771 535 OFFCURVE",
"725 364 CURVE SMOOTH",
"711 314 OFFCURVE",
"657 212 OFFCURVE",
"652 212 CURVE SMOOTH",
"615 212 OFFCURVE",
"563 233 OFFCURVE",
"505 272 CURVE",
"443 184 LINE",
"407 183 LINE SMOOTH",
"349 181 OFFCURVE",
"264 180 OFFCURVE",
"314 364 CURVE SMOOTH",
"355 519 OFFCURVE",
"474 635 OFFCURVE",
"592 635 CURVE SMOOTH"
);
},
{
closed = 1;
nodes = (
"789 134 OFFCURVE",
"849 232 OFFCURVE",
"884 364 CURVE SMOOTH",
"950 610 OFFCURVE",
"849 769 OFFCURVE",
"628 769 CURVE SMOOTH",
"418 769 OFFCURVE",
"212 593 OFFCURVE",
"151 364 CURVE SMOOTH",
"73 72 OFFCURVE",
"145 -41 OFFCURVE",
"406 -41 CURVE SMOOTH",
"414 -41 OFFCURVE",
"422 -41 OFFCURVE",
"437 -40 CURVE",
"509 -156 LINE",
"817 -156 LINE",
"688 42 LINE"
);
}
);
width = 878;
}
);
},
{
color = 6;
glyphname = R.ss04;
lastChange = "2019-09-05 22:37:16 +0000";
layers = (
{
anchors = (
{
name = bottom;
position = "{323, 0}";
},
{
name = bottom_hook;
position = "{121, -20}";
},
{
name = top;
position = "{519, 729}";
}
);
layerId = "BA196CD0-EE58-4274-B8DF-4393D3617A29";
paths = (
{
closed = 1;
nodes = (
"599 373 OFFCURVE",
"655 423 OFFCURVE",
"680 519 CURVE SMOOTH",
"718 660 OFFCURVE",
"650 729 OFFCURVE",
"501 729 CURVE SMOOTH",
"322 729 LINE",
"81 0 LINE",
"239 0 LINE",
"298 282 LINE",
"353 291 LINE SMOOTH",
"416 301 OFFCURVE",
"522 294 OFFCURVE",
"488 187 CURVE SMOOTH",
"429 0 LINE",
"611 0 LINE",
"607 199 LINE SMOOTH",
"605 277 OFFCURVE",
"564 340 OFFCURVE",
"527 362 CURVE"
);
},
{
closed = 1;
nodes = (
"573 677 OFFCURVE",
"643 644 OFFCURVE",
"610 519 CURVE SMOOTH",
"593 456 OFFCURVE",
"500 405 OFFCURVE",
"425 405 CURVE SMOOTH",
"299 405 LINE",
"372 677 LINE",
"498 677 LINE SMOOTH"
);
}
);
width = 692;
},
{
anchors = (
{
name = bottom;
position = "{323, 0}";
},
{
name = bottom_hook;
position = "{121, -20}";
},
{
name = top;
position = "{519, 729}";
}
);
layerId = "BBDB329E-CE83-4304-A6B1-53EA5ACC004E";
paths = (
{
closed = 1;
nodes = (
"643 382 OFFCURVE",
"686 439 OFFCURVE",
"708 519 CURVE SMOOTH",
"748 671 OFFCURVE",
"676 756 OFFCURVE",
"509 756 CURVE SMOOTH",
"304 756 LINE",
"44 -27 LINE",
"261 -27 LINE",
"320 260 LINE",
"351 264 LINE SMOOTH",
"438 278 OFFCURVE",
"481 250 OFFCURVE",
"461 188 CURVE SMOOTH",
"394 -27 LINE",
"640 -27 LINE",
"635 206 LINE SMOOTH",
"634 260 OFFCURVE",
"614 316 OFFCURVE",
"582 353 CURVE"
);
},
{
closed = 1;
nodes = (
"575 650 OFFCURVE",
"606 607 OFFCURVE",
"582 519 CURVE SMOOTH",
"571 476 OFFCURVE",
"498 432 OFFCURVE",
"432 432 CURVE SMOOTH",
"334 432 LINE",
"392 650 LINE",
"490 650 LINE SMOOTH"
);
}
);
width = 692;
}
);
},
{
color = 6;
glyphname = S.ss04;
lastChange = "2019-09-05 22:37:16 +0000";
layers = (
{
anchors = (
{
name = bottom;
position = "{382, 13}";
},
{
name = top;
position = "{574, 729}";
}
);
layerId = "BA196CD0-EE58-4274-B8DF-4393D3617A29";
paths = (
{
closed = 1;
nodes = (
"695 737 OFFCURVE",
"654 742 OFFCURVE",
"586 742 CURVE SMOOTH",
"424 742 OFFCURVE",
"306 663 OFFCURVE",
"271 534 CURVE SMOOTH",
"242 423 OFFCURVE",
"288 364 OFFCURVE",
"429 335 CURVE SMOOTH",
"487 323 LINE SMOOTH",
"582 303 OFFCURVE",
"642 268 OFFCURVE",
"623 208 CURVE SMOOTH",
"592 110 OFFCURVE",
"525 100 OFFCURVE",
"424 100 CURVE SMOOTH",
"368 100 OFFCURVE",
"279 138 OFFCURVE",
"249 167 CURVE",
"104 85 LINE",
"142 -14 OFFCURVE",
"231 -14 OFFCURVE",
"361 -14 CURVE SMOOTH",
"598 -14 OFFCURVE",
"683 -14 OFFCURVE",
"741 201 CURVE SMOOTH",
"773 320 OFFCURVE",
"684 387 OFFCURVE",
"541 417 CURVE SMOOTH",
"485 429 LINE SMOOTH",
"402 447 OFFCURVE",
"333 485 OFFCURVE",
"350 549 CURVE SMOOTH",
"371 626 OFFCURVE",
"467 662 OFFCURVE",
"575 662 CURVE SMOOTH",
"646 662 OFFCURVE",
"658 659 OFFCURVE",
"704 646 CURVE",
"766 720 LINE"
);
}
);
width = 768;
},
{
anchors = (
{
name = bottom;
position = "{382, 13}";
},
{
name = top;
position = "{582, 759}";
}
);
layerId = "BBDB329E-CE83-4304-A6B1-53EA5ACC004E";
paths = (
{
closed = 1;
nodes = (
"591 -41 OFFCURVE",
"703 -41 OFFCURVE",
"768 201 CURVE SMOOTH",
"801 324 OFFCURVE",
"725 408 OFFCURVE",
"553 443 CURVE SMOOTH",
"497 455 LINE SMOOTH",
"409 475 OFFCURVE",
"367 509 OFFCURVE",
"377 549 CURVE SMOOTH",
"391 601 OFFCURVE",
"462 635 OFFCURVE",
"568 635 CURVE SMOOTH",
"644 635 OFFCURVE",
"646 632 OFFCURVE",
"709 615 CURVE",
"812 738 LINE",
"718 762 OFFCURVE",
"674 769 OFFCURVE",
"593 769 CURVE SMOOTH",
"417 769 OFFCURVE",
"283 679 OFFCURVE",
"244 534 CURVE SMOOTH",
"211 409 OFFCURVE",
"265 340 OFFCURVE",
"417 309 CURVE SMOOTH",
"474 297 LINE SMOOTH",
"569 277 OFFCURVE",
"608 246 OFFCURVE",
"596 209 CURVE SMOOTH",
"576 143 OFFCURVE",
"543 127 OFFCURVE",
"431 127 CURVE SMOOTH",
"378 127 OFFCURVE",
"276 170 OFFCURVE",
"261 201 CURVE",
"69 93 LINE",
"106 -41 OFFCURVE",
"215 -41 OFFCURVE",
"354 -41 CURVE SMOOTH"
);
}
);
width = 768;
}
);
},
{
color = 6;
glyphname = T.ss04;
lastChange = "2019-09-05 22:37:16 +0000";
layers = (
{
anchors = (
{
name = bottom;
position = "{392, 0}";
},
{
name = bottom_hook;
position = "{413, -29}";
},
{
name = center;
position = "{490, 365}";
},
{
name = hook_top;
position = "{293, 691}";
},
{
name = top;
position = "{587, 729}";
}
);
layerId = "BA196CD0-EE58-4274-B8DF-4393D3617A29";
paths = (
{
closed = 1;
nodes = (
"518 656 LINE",
"323 0 LINE",
"463 0 LINE",
"618 656 LINE",
"877 646 LINE",
"899 729 LINE",
"276 729 LINE",
"254 646 LINE"
);
}
);
width = 785;
},
{
anchors = (
{
name = bottom;
position = "{384, -30}";
},
{
name = bottom_hook;
position = "{413, -29}";
},
{
name = center;
position = "{490, 365}";
},
{
name = hook_top;
position = "{319, 691}";
},
{
name = top;
position = "{596, 763}";
}
);
layerId = "BBDB329E-CE83-4304-A6B1-53EA5ACC004E";
paths = (
{
closed = 1;
nodes = (
"482 628 LINE",
"288 -27 LINE",
"484 -27 LINE",
"639 628 LINE",
"897 618 LINE",
"934 756 LINE",
"256 756 LINE",
"219 618 LINE"
);
}
);
width = 785;
}
);
},
{
color = 6;
glyphname = U.ss04;
lastChange = "2019-09-05 22:37:16 +0000";
layers = (
{
anchors = (
{
name = bottom;
position = "{382, 0}";
},
{
name = horn;
position = "{875, 672}";
},
{
name = ogonek;
position = "{541, 35}";
},
{
name = top;
position = "{601, 809}";
},
{
name = top_hook;
position = "{805, 663}";
},
{
name = topright;
position = "{926, 700}";
}
);
layerId = "BA196CD0-EE58-4274-B8DF-4393D3617A29";
paths = (
{
closed = 1;
nodes = (
"103 -14 OFFCURVE",
"189 -14 OFFCURVE",
"376 -14 CURVE SMOOTH",
"561 -14 OFFCURVE",
"643 -14 OFFCURVE",
"734 274 CURVE SMOOTH",
"878 729 LINE",
"747 729 LINE",
"660 354 LINE SMOOTH",
"612 142 OFFCURVE",
"545 142 OFFCURVE",
"418 142 CURVE SMOOTH",
"290 142 OFFCURVE",
"222 142 OFFCURVE",
"287 354 CURVE SMOOTH",
"401 729 LINE",
"276 729 LINE",
"170 274 LINE SMOOTH"
);
}
);
width = 764;
},
{
anchors = (
{
name = bottom;
position = "{369, -41}";
},
{
name = horn;
position = "{875, 672}";
},
{
name = ogonek;
position = "{541, 35}";
},
{
name = top;
position = "{614, 858}";
},
{
name = top_hook;
position = "{791, 685}";
},
{
name = topright;
position = "{926, 700}";
}
);
layerId = "BBDB329E-CE83-4304-A6B1-53EA5ACC004E";
paths = (
{
closed = 1;
nodes = (
"70 -41 OFFCURVE",
"182 -41 OFFCURVE",
"369 -41 CURVE SMOOTH",
"554 -41 OFFCURVE",
"662 -41 OFFCURVE",
"761 273 CURVE SMOOTH",
"914 756 LINE",
"726 756 LINE",
"633 353 LINE SMOOTH",
"591 169 OFFCURVE",
"552 169 OFFCURVE",
"425 169 CURVE SMOOTH",
"297 169 OFFCURVE",
"257 169 OFFCURVE",
"314 353 CURVE SMOOTH",
"437 756 LINE",
"255 756 LINE",
"143 273 LINE SMOOTH"
);
}
);
width = 764;
}
);
},
{
color = 6;
glyphname = V.ss04;
lastChange = "2019-09-05 22:37:16 +0000";
layers = (
{
anchors = (
{
name = bottom;
position = "{418, 0}";
},
{
name = top;
position = "{606, 700}";
},
{
name = top_hook;
position = "{850, 622}";
}
);
layerId = "BA196CD0-EE58-4274-B8DF-4393D3617A29";
paths = (
{
closed = 1;
nodes = (
"951 729 LINE",
"848 729 LINE",
"490 214 LINE",
"442 214 LINE",
"380 729 LINE",
"276 729 LINE",
"310 0 LINE",
"516 0 LINE"
);
}
);
width = 836;
},
{
anchors = (
{
name = bottom;
position = "{418, 0}";
},
{
name = top;
position = "{620, 752}";
},
{
name = top_hook;
position = "{850, 622}";
}
);
layerId = "BBDB329E-CE83-4304-A6B1-53EA5ACC004E";
paths = (
{
closed = 1;
nodes = (
"995 756 LINE",
"837 756 LINE",
"479 241 LINE",
"469 241 LINE",
"407 756 LINE",
"246 756 LINE",
"283 -27 LINE",
"529 -27 LINE"
);
}
);
width = 836;
}
);
},
{
color = 6;
glyphname = W.ss04;
lastChange = "2019-09-05 22:37:16 +0000";
layers = (
{
anchors = (
{
name = bottom;
position = "{547, 0}";
},
{
name = top;
position = "{740, 729}";
},
{
name = top_hook;
position = "{1211, 500}";
}
);
layerId = "BA196CD0-EE58-4274-B8DF-4393D3617A29";
paths = (
{
closed = 1;
nodes = (
"401 0 LINE",
"653 394 LINE",
"683 0 LINE",
"828 0 LINE",
"1208 729 LINE",
"1112 729 LINE",
"800 196 LINE",
"733 543 LINE",
"646 543 LINE",
"381 206 LINE",
"372 729 LINE",
"276 729 LINE",
"245 0 LINE"
);
}
);
width = 1094;
},
{
anchors = (
{
name = bottom;
position = "{547, 0}";
},
{
name = top;
position = "{740, 729}";
},
{
name = top_hook;
position = "{1211, 500}";
}
);
layerId = "BBDB329E-CE83-4304-A6B1-53EA5ACC004E";
paths = (
{
closed = 1;
nodes = (
"413 -27 LINE",
"630 313 LINE",
"656 -27 LINE",
"842 -27 LINE",
"1251 756 LINE",
"1099 756 LINE",
"815 271 LINE",
"758 570 LINE",
"638 570 LINE",
"408 279 LINE",
"400 756 LINE",
"249 756 LINE",
"216 -27 LINE"
);
}
);
width = 1094;
}
);
},
{
color = 6;
glyphname = X.ss04;
lastChange = "2019-09-05 22:37:16 +0000";
layers = (
{
anchors = (
{
name = bottom;
position = "{399, 0}";
},
{
name = bottom_hook;
position = "{630, 21}";
},
{
name = top;
position = "{587, 700}";
}
);
layerId = "BA196CD0-EE58-4274-B8DF-4393D3617A29";
paths = (
{
closed = 1;
nodes = (
"556 0 LINE",
"716 0 LINE",
"404 729 LINE",
"315 729 LINE"
);
},
{
closed = 1;
nodes = (
"81 2 LINE",
"243 0 LINE",
"887 730 LINE",
"799 730 LINE"
);
}
);
width = 797;
},
{
anchors = (
{
name = bottom;
position = "{399, 0}";
},
{
name = bottom_hook;
position = "{630, 21}";
},
{
name = top;
position = "{587, 700}";
}
);
layerId = "BBDB329E-CE83-4304-A6B1-53EA5ACC004E";
paths = (
{
closed = 1;
nodes = (
"533 -27 LINE",
"760 -27 LINE",
"426 756 LINE",
"274 756 LINE"
);
},
{
closed = 1;
nodes = (
"22 -24 LINE",
"251 -27 LINE",
"943 757 LINE",
"792 757 LINE"
);
}
);
width = 797;
}
);
},
{
color = 6;
glyphname = Y.ss04;
lastChange = "2019-09-05 22:37:16 +0000";
layers = (
{
anchors = (
{
name = bottom;
position = "{386, 0}";
},
{
name = top;
position = "{596, 785}";
},
{
name = top_hook;
position = "{876, 500}";
},
{
name = topleft;
position = "{213, 700}";
}
);
layerId = "BA196CD0-EE58-4274-B8DF-4393D3617A29";
paths = (
{
closed = 1;
nodes = (
"317 0 LINE",
"451 0 LINE",
"518 250 LINE",
"886 729 LINE",
"779 729 LINE",
"482 356 LINE",
"383 729 LINE",
"276 729 LINE",
"384 250 LINE"
);
}
);
width = 772;
},
{
anchors = (
{
name = bottom;
position = "{386, 0}";
},
{
name = top;
position = "{601, 829}";
},
{
name = top_hook;
position = "{876, 500}";
},
{
name = topleft;
position = "{156, 700}";
}
);
layerId = "BBDB329E-CE83-4304-A6B1-53EA5ACC004E";
paths = (
{
closed = 1;
nodes = (
"283 -27 LINE",
"472 -27 LINE",
"544 244 LINE",
"937 756 LINE",
"770 756 LINE",
"498 414 LINE",
"407 756 LINE",
"240 756 LINE",
"355 244 LINE"
);
}
);
width = 772;
}
);
},
{
color = 6;
glyphname = Z.ss04;
lastChange = "2019-09-05 22:37:16 +0000";
layers = (
{
anchors = (
{
name = bottom;
position = "{407, 0}";
},
{
name = center;
position = "{501, 350}";
},
{
name = top;
position = "{599, 729}";
}
);
layerId = "BA196CD0-EE58-4274-B8DF-4393D3617A29";
paths = (
{
closed = 1;
nodes = (
"336 681 LINE",
"915 681 LINE",
"895 606 LINE",
"244 146 LINE",
"702 146 LINE",
"712 6 LINE",
"81 0 LINE",
"118 139 LINE",
"768 598 LINE",
"361 604 LINE"
);
}
);
width = 813;
},
{
anchors = (
{
name = bottom;
position = "{407, 0}";
},
{
name = center;
position = "{501, 350}";
},
{
name = top;
position = "{599, 729}";
}
);
layerId = "BBDB329E-CE83-4304-A6B1-53EA5ACC004E";
paths = (
{
closed = 1;
nodes = (
"690 572 LINE",
"94 151 LINE",
"46 -28 LINE",
"743 -20 LINE",
"729 173 LINE",
"324 173 LINE",
"919 594 LINE",
"949 708 LINE",
"294 708 LINE",
"338 577 LINE"
);
}
);
width = 813;
}
);
},
{
glyphname = Gsmallhook;
lastChange = "2019-09-05 22:37:16 +0000";
layers = (
{
anchors = (
{
name = _top_hook;
position = "{739, 66}";
},
{
name = center;
position = "{805, 299}";
}
);
components = (
{
name = Gsmall;
transform = "{1, 0, 0, 1, 26, 0}";
}
);
layerId = "BA196CD0-EE58-4274-B8DF-4393D3617A29";
paths = (
{
closed = 1;
nodes = (
"583 683 OFFCURVE",
"557 677 OFFCURVE",
"523 565 CURVE SMOOTH",
"508 515 OFFCURVE",
"512 531 OFFCURVE",
"493 461 CURVE",
"579 461 LINE",
"587 492 OFFCURVE",
"594 517 OFFCURVE",
"602 546 CURVE SMOOTH",
"615 594 OFFCURVE",
"619 597 OFFCURVE",
"687 597 CURVE",
"710 682 LINE"
);
}
);
width = 625;
},
{
anchors = (
{
name = _top_hook;
position = "{872, 66}";
},
{
name = center;
position = "{939, 299}";
}
);
components = (
{
name = Gsmall;
transform = "{1, 0, 0, 1, 160, 0}";
}
);
layerId = "BBDB329E-CE83-4304-A6B1-53EA5ACC004E";
paths = (
{
closed = 1;
nodes = (
"706 712 OFFCURVE",
"669 696 OFFCURVE",
"629 566 CURVE SMOOTH",
"613 511 OFFCURVE",
"619 536 OFFCURVE",
"592 434 CURVE",
"732 434 LINE",
"744 479 OFFCURVE",
"752 508 OFFCURVE",
"762 546 CURVE SMOOTH",
"772 582 OFFCURVE",
"756 567 OFFCURVE",
"841 571 CURVE",
"878 709 LINE"
);
}
);
width = 892;
}
);
unicode = 029B;
},
{
color = 7;
glyphname = a;
lastChange = "2019-09-05 23:10:26 +0000";
layers = (
{
anchors = (
{
name = abovecomb;
position = "{454, 575}";
},
{
name = bottom;
position = "{316, 0}";
},
{
name = dotbelow;
position = "{311, -8}";
},
{
name = ogonek;
position = "{554, 48}";
},
{
name = top;
position = "{451, 574}";
}
);
background = {
components = (
{
alignment = -1;
name = "";
transform = "{1, 0, 0, 1, 49, 150}";
},
{
alignment = -1;
name = "";
transform = "{1, 0, 0, 1, 49, 200}";
},
{
alignment = -1;
name = "";
transform = "{1, 0, 0, 1, 99, 50}";
},
{
alignment = -1;
name = "";
transform = "{1, 0, 0, 1, 99, 100}";
},
{
alignment = -1;
name = "";
transform = "{1, 0, 0, 1, 99, 150}";
},
{
alignment = -1;
name = "";
transform = "{1, 0, 0, 1, 99, 200}";
},
{
alignment = -1;
name = "";
transform = "{1, 0, 0, 1, 99, 250}";
},
{
alignment = -1;
name = "";
transform = "{1, 0, 0, 1, 99, 300}";
},
{
alignment = -1;
name = "";
transform = "{1, 0, 0, 1, 99, 350}";
},
{
alignment = -1;
name = "";
transform = "{1, 0, 0, 1, 149, 0}";
},
{
alignment = -1;
name = "";
transform = "{1, 0, 0, 1, 149, 50}";
},
{
alignment = -1;
name = "";
transform = "{1, 0, 0, 1, 149, 100}";
},
{
alignment = -1;
name = "";
transform = "{1, 0, 0, 1, 149, 400}";
},
{
alignment = -1;
name = "";
transform = "{1, 0, 0, 1, 199, 0}";
},
{
alignment = -1;
name = "";
transform = "{1, 0, 0, 1, 199, 50}";
},
{
alignment = -1;
name = "";
transform = "{1, 0, 0, 1, 199, 100}";
},
{
alignment = -1;
name = "";
transform = "{1, 0, 0, 1, 199, 450}";
},
{
alignment = -1;
name = "";
transform = "{1, 0, 0, 1, 249, 0}";
},
{
alignment = -1;
name = "";
transform = "{1, 0, 0, 1, 249, 50}";
},
{
alignment = -1;
name = "";
transform = "{1, 0, 0, 1, 249, 100}";
},
{
alignment = -1;
name = "";
transform = "{1, 0, 0, 1, 249, 450}";
},
{
alignment = -1;
name = "";
transform = "{1, 0, 0, 1, 299, 0}";
},
{
alignment = -1;
name = "";
transform = "{1, 0, 0, 1, 299, 50}";
},
{
alignment = -1;
name = "";
transform = "{1, 0, 0, 1, 299, 100}";
},
{
alignment = -1;
name = "";
transform = "{1, 0, 0, 1, 299, 450}";
},
{
alignment = -1;
name = "";
transform = "{1, 0, 0, 1, 349, 0}";
},
{
alignment = -1;
name = "";
transform = "{1, 0, 0, 1, 349, 50}";
},
{
alignment = -1;
name = "";
transform = "{1, 0, 0, 1, 349, 100}";
},
{
alignment = -1;
name = "";
transform = "{1, 0, 0, 1, 349, 450}";
},
{
alignment = -1;
name = "";
transform = "{1, 0, 0, 1, 399, 0}";
},
{
alignment = -1;
name = "";
transform = "{1, 0, 0, 1, 399, 50}";
},
{
alignment = -1;
name = "";
transform = "{1, 0, 0, 1, 399, 100}";
},
{
alignment = -1;
name = "";
transform = "{1, 0, 0, 1, 399, 450}";
},
{
alignment = -1;
name = "";
transform = "{1, 0, 0, 1, 449, 50}";
},
{
alignment = -1;
name = "";
transform = "{1, 0, 0, 1, 449, 100}";
},
{
alignment = -1;
name = "";
transform = "{1, 0, 0, 1, 449, 150}";
},
{
alignment = -1;
name = "";
transform = "{1, 0, 0, 1, 449, 200}";
},
{
alignment = -1;
name = "";
transform = "{1, 0, 0, 1, 449, 250}";
},
{
alignment = -1;
name = "";
transform = "{1, 0, 0, 1, 449, 300}";
},
{
alignment = -1;
name = "";
transform = "{1, 0, 0, 1, 449, 350}";
},
{
alignment = -1;
name = "";
transform = "{1, 0, 0, 1, 449, 400}";
},
{
alignment = -1;
name = "";
transform = "{1, 0, 0, 1, 449, 450}";
},
{
alignment = -1;
name = "";
transform = "{1, 0, 0, 1, 449, 500}";
},
{
alignment = -1;
name = "";
transform = "{1, 0, 0, 1, 499, 0}";
},
{
alignment = -1;
name = "";
transform = "{1, 0, 0, 1, 499, 50}";
},
{
alignment = -1;
name = "";
transform = "{1, 0, 0, 1, 499, 100}";
},
{
alignment = -1;
name = "";
transform = "{1, 0, 0, 1, 499, 150}";
},
{
alignment = -1;
name = "";
transform = "{1, 0, 0, 1, 499, 200}";
},
{
alignment = -1;
name = "";
transform = "{1, 0, 0, 1, 499, 250}";
},
{
alignment = -1;
name = "";
transform = "{1, 0, 0, 1, 499, 300}";
},
{
alignment = -1;
name = "";
transform = "{1, 0, 0, 1, 499, 350}";
}
);
paths = (
{
closed = 1;
nodes = (
"458 525 LINE",
"509 525 LINE",
"576 0 LINE",
"486 0 LINE",
"486 82 LINE",
"448 17 OFFCURVE",
"376 -14 OFFCURVE",
"296 -14 CURVE SMOOTH",
"134 -14 OFFCURVE",
"34 105 OFFCURVE",
"79 273 CURVE SMOOTH",
"118 419 OFFCURVE",
"205 525 OFFCURVE",
"296 525 CURVE SMOOTH",
"367 525 OFFCURVE",
"434 504 OFFCURVE",
"470 446 CURVE"
);
},
{
closed = 1;
nodes = (
"111 175 OFFCURVE",
"134 136 OFFCURVE",
"284 138 CURVE SMOOTH",
"465 140 OFFCURVE",
"469 170 OFFCURVE",
"469 299 CURVE SMOOTH",
"469 448 OFFCURVE",
"362 476 OFFCURVE",
"295 476 CURVE",
"234 476 OFFCURVE",
"175 434 OFFCURVE",
"141 296 CURVE SMOOTH"
);
}
);
};
layerId = "BA196CD0-EE58-4274-B8DF-4393D3617A29";
paths = (
{
closed = 1;
nodes = (
"573 504 OFFCURVE",
"511 525 OFFCURVE",
"440 525 CURVE SMOOTH",
"348 525 OFFCURVE",
"225 404 OFFCURVE",
"154 251 CURVE SMOOTH",
"85 101 OFFCURVE",
"137 -14 OFFCURVE",
"295 -14 CURVE SMOOTH",
"376 -14 OFFCURVE",
"457 17 OFFCURVE",
"513 82 CURVE",
"491 0 LINE",
"582 0 LINE",
"655 525 LINE",
"603 525 LINE",
"594 446 LINE"
);
},
{
closed = 1;
nodes = (
"307 434 OFFCURVE",
"364 476 OFFCURVE",
"425 476 CURVE",
"493 476 OFFCURVE",
"594 448 OFFCURVE",
"554 299 CURVE SMOOTH",
"519 170 OFFCURVE",
"507 138 OFFCURVE",
"324 138 CURVE SMOOTH",
"174 138 OFFCURVE",
"173 175 OFFCURVE",
"236 296 CURVE SMOOTH"
);
}
);
width = 663;
},
{
anchors = (
{
name = abovecomb;
position = "{478, 599}";
},
{
name = bottom;
position = "{305, -40}";
},
{
name = dotbelow;
position = "{264, -126}";
},
{
name = ogonek;
position = "{563, 0}";
},
{
name = top;
position = "{480, 597}";
}
);
background = {
components = (
{
alignment = -1;
name = "";
transform = "{1, 0, 0, 1, 49, 150}";
},
{
alignment = -1;
name = "";
transform = "{1, 0, 0, 1, 49, 200}";
},
{
alignment = -1;
name = "";
transform = "{1, 0, 0, 1, 99, 50}";
},
{
alignment = -1;
name = "";
transform = "{1, 0, 0, 1, 99, 100}";
},
{
alignment = -1;
name = "";
transform = "{1, 0, 0, 1, 99, 150}";
},
{
alignment = -1;
name = "";
transform = "{1, 0, 0, 1, 99, 200}";
},
{
alignment = -1;
name = "";
transform = "{1, 0, 0, 1, 99, 250}";
},
{
alignment = -1;
name = "";
transform = "{1, 0, 0, 1, 99, 300}";
},
{
alignment = -1;
name = "";
transform = "{1, 0, 0, 1, 99, 350}";
},
{
alignment = -1;
name = "";
transform = "{1, 0, 0, 1, 149, 0}";
},
{
alignment = -1;
name = "";
transform = "{1, 0, 0, 1, 149, 50}";
},
{
alignment = -1;
name = "";
transform = "{1, 0, 0, 1, 149, 100}";
},
{
alignment = -1;
name = "";
transform = "{1, 0, 0, 1, 149, 400}";
},
{
alignment = -1;
name = "";
transform = "{1, 0, 0, 1, 199, 0}";
},
{
alignment = -1;
name = "";
transform = "{1, 0, 0, 1, 199, 50}";
},
{
alignment = -1;
name = "";
transform = "{1, 0, 0, 1, 199, 100}";
},
{
alignment = -1;
name = "";
transform = "{1, 0, 0, 1, 199, 450}";
},
{
alignment = -1;
name = "";
transform = "{1, 0, 0, 1, 249, 0}";
},
{
alignment = -1;
name = "";
transform = "{1, 0, 0, 1, 249, 50}";
},
{
alignment = -1;
name = "";
transform = "{1, 0, 0, 1, 249, 100}";
},
{
alignment = -1;
name = "";
transform = "{1, 0, 0, 1, 249, 450}";
},
{
alignment = -1;
name = "";
transform = "{1, 0, 0, 1, 299, 0}";
},
{
alignment = -1;
name = "";
transform = "{1, 0, 0, 1, 299, 50}";
},
{
alignment = -1;
name = "";
transform = "{1, 0, 0, 1, 299, 100}";
},
{
alignment = -1;
name = "";
transform = "{1, 0, 0, 1, 299, 450}";
},
{
alignment = -1;
name = "";
transform = "{1, 0, 0, 1, 349, 0}";
},
{
alignment = -1;
name = "";
transform = "{1, 0, 0, 1, 349, 50}";
},
{
alignment = -1;
name = "";
transform = "{1, 0, 0, 1, 349, 100}";
},
{
alignment = -1;
name = "";
transform = "{1, 0, 0, 1, 349, 450}";
},
{
alignment = -1;
name = "";
transform = "{1, 0, 0, 1, 399, 0}";
},
{
alignment = -1;
name = "";
transform = "{1, 0, 0, 1, 399, 50}";
},
{
alignment = -1;
name = "";
transform = "{1, 0, 0, 1, 399, 100}";
},
{
alignment = -1;
name = "";
transform = "{1, 0, 0, 1, 399, 450}";
},
{
alignment = -1;
name = "";
transform = "{1, 0, 0, 1, 449, 50}";
},
{
alignment = -1;
name = "";
transform = "{1, 0, 0, 1, 449, 100}";
},
{
alignment = -1;
name = "";
transform = "{1, 0, 0, 1, 449, 150}";
},
{
alignment = -1;
name = "";
transform = "{1, 0, 0, 1, 449, 200}";
},
{
alignment = -1;
name = "";
transform = "{1, 0, 0, 1, 449, 250}";
},
{
alignment = -1;
name = "";
transform = "{1, 0, 0, 1, 449, 300}";
},
{
alignment = -1;
name = "";
transform = "{1, 0, 0, 1, 449, 350}";
},
{
alignment = -1;
name = "";
transform = "{1, 0, 0, 1, 449, 400}";
},
{
alignment = -1;
name = "";
transform = "{1, 0, 0, 1, 449, 450}";
},
{
alignment = -1;
name = "";
transform = "{1, 0, 0, 1, 449, 500}";
},
{
alignment = -1;
name = "";
transform = "{1, 0, 0, 1, 499, 0}";
},
{
alignment = -1;
name = "";
transform = "{1, 0, 0, 1, 499, 50}";
},
{
alignment = -1;
name = "";
transform = "{1, 0, 0, 1, 499, 100}";
},
{
alignment = -1;
name = "";
transform = "{1, 0, 0, 1, 499, 150}";
},
{
alignment = -1;
name = "";
transform = "{1, 0, 0, 1, 499, 200}";
},
{
alignment = -1;
name = "";
transform = "{1, 0, 0, 1, 499, 250}";
},
{
alignment = -1;
name = "";
transform = "{1, 0, 0, 1, 499, 300}";
},
{
alignment = -1;
name = "";
transform = "{1, 0, 0, 1, 499, 350}";
}
);
paths = (
{
closed = 1;
nodes = (
"458 525 LINE",
"509 525 LINE",
"576 0 LINE",
"486 0 LINE",
"486 82 LINE",
"448 17 OFFCURVE",
"376 -14 OFFCURVE",
"296 -14 CURVE SMOOTH",
"134 -14 OFFCURVE",
"34 105 OFFCURVE",
"79 273 CURVE SMOOTH",
"118 419 OFFCURVE",
"205 525 OFFCURVE",
"296 525 CURVE SMOOTH",
"367 525 OFFCURVE",
"434 504 OFFCURVE",
"470 446 CURVE"
);
},
{
closed = 1;
nodes = (
"111 175 OFFCURVE",
"134 136 OFFCURVE",
"284 138 CURVE SMOOTH",
"465 140 OFFCURVE",
"469 170 OFFCURVE",
"469 299 CURVE SMOOTH",
"469 448 OFFCURVE",
"362 476 OFFCURVE",
"295 476 CURVE",
"234 476 OFFCURVE",
"175 434 OFFCURVE",
"141 296 CURVE SMOOTH"
);
}
);
};
layerId = "BBDB329E-CE83-4304-A6B1-53EA5ACC004E";
paths = (
{
closed = 1;
nodes = (
"544 541 OFFCURVE",
"500 552 OFFCURVE",
"447 552 CURVE SMOOTH",
"342 552 OFFCURVE",
"208 426 OFFCURVE",
"128 256 CURVE SMOOTH",
"49 85 OFFCURVE",
"116 -41 OFFCURVE",
"288 -41 CURVE SMOOTH",
"353 -41 OFFCURVE",
"415 -23 OFFCURVE",
"467 11 CURVE",
"456 -27 LINE",
"606 -27 LINE",
"686 552 LINE",
"579 552 LINE",
"575 520 LINE"
);
},
{
closed = 1;
nodes = (
"321 405 OFFCURVE",
"366 449 OFFCURVE",
"418 449 CURVE SMOOTH",
"514 449 OFFCURVE",
"553 396 OFFCURVE",
"527 299 CURVE SMOOTH",
"493 173 OFFCURVE",
"484 165 OFFCURVE",
"331 165 CURVE SMOOTH",
"209 165 OFFCURVE",
"203 178 OFFCURVE",
"261 290 CURVE SMOOTH"
);
}
);
width = 663;
}
);
leftKerningGroup = Round;
unicode = 0061;
},
{
color = 7;
glyphname = b;
lastChange = "2019-09-05 23:07:26 +0000";
layers = (
{
anchors = (
{
name = _hook_top;
position = "{340, 778}";
},
{
name = bottom;
position = "{320, -37}";
},
{
name = center;
position = "{303, 594}";
},
{
name = top;
position = "{545, 800}";
},
{
name = top_hook;
position = "{325, 710}";
}
);
hints = (
{
place = "{100, 66}";
type = Stem;
}
);
layerId = "BA196CD0-EE58-4274-B8DF-4393D3617A29";
paths = (
{
closed = 1;
nodes = (
"482 -14 OFFCURVE",
"606 101 OFFCURVE",
"652 273 CURVE SMOOTH",
"690 417 OFFCURVE",
"628 532 OFFCURVE",
"494 532 CURVE SMOOTH",
"385 532 OFFCURVE",
"283 399 OFFCURVE",
"303 474 CURVE SMOOTH",
"388 793 LINE",
"293 793 LINE",
"226 430 OFFCURVE",
"155 144 OFFCURVE",
"164 99 CURVE",
"171 27 OFFCURVE",
"203 -14 OFFCURVE",
"348 -14 CURVE SMOOTH"
);
},
{
closed = 1;
nodes = (
"281 146 OFFCURVE",
"269 187 OFFCURVE",
"297 289 CURVE SMOOTH",
"325 395 OFFCURVE",
"402 468 OFFCURVE",
"498 468 CURVE SMOOTH",
"595 468 OFFCURVE",
"625 392 OFFCURVE",
"599 293 CURVE",
"559 193 OFFCURVE",
"494 152 OFFCURVE",
"412 146 CURVE"
);
}
);
width = 660;
},
{
anchors = (
{
name = _hook_top;
position = "{340, 778}";
},
{
name = bottom;
position = "{320, -37}";
},
{
name = center;
position = "{324, 619}";
},
{
name = top;
position = "{545, 800}";
},
{
name = top_hook;
position = "{321, 717}";
}
);
hints = (
{
place = "{100, 66}";
type = Stem;
}
);
layerId = "BBDB329E-CE83-4304-A6B1-53EA5ACC004E";
paths = (
{
closed = 1;
nodes = (
"491 -41 OFFCURVE",
"630 88 OFFCURVE",
"679 273 CURVE SMOOTH",
"723 436 OFFCURVE",
"647 559 OFFCURVE",
"501 559 CURVE SMOOTH",
"428 559 OFFCURVE",
"339 509 OFFCURVE",
"330 474 CURVE",
"423 820 LINE",
"271 820 LINE",
"204 447 OFFCURVE",
"127 145 OFFCURVE",
"136 89 CURVE",
"145 -6 OFFCURVE",
"202 -41 OFFCURVE",
"340 -41 CURVE SMOOTH"
);
},
{
closed = 1;
nodes = (
"313 173 OFFCURVE",
"298 193 OFFCURVE",
"324 289 CURVE SMOOTH",
"349 383 OFFCURVE",
"413 441 OFFCURVE",
"491 441 CURVE SMOOTH",
"565 441 OFFCURVE",
"595 386 OFFCURVE",
"572 295 CURVE",
"540 216 OFFCURVE",
"493 179 OFFCURVE",
"418 173 CURVE"
);
}
);
width = 660;
}
);
rightKerningGroup = RoundRight;
unicode = 0062;
},
{
color = 7;
glyphname = c;
lastChange = "2019-09-05 22:37:16 +0000";
layers = (
{
anchors = (
{
name = bottom;
position = "{320, 0}";
},
{
name = top;
position = "{467, 547}";
},
{
name = top_hook;
position = "{545, 533}";
}
);
layerId = "BA196CD0-EE58-4274-B8DF-4393D3617A29";
paths = (
{
closed = 1;
nodes = (
"576 555 OFFCURVE",
"540 560 OFFCURVE",
"513 560 CURVE SMOOTH",
"341 560 OFFCURVE",
"202 451 OFFCURVE",
"154 273 CURVE SMOOTH",
"107 97 OFFCURVE",
"143 0 OFFCURVE",
"349 -14 CURVE SMOOTH",
"409 -18 OFFCURVE",
"467 -2 OFFCURVE",
"524 21 CURVE",
"450 135 LINE",
"328 73 OFFCURVE",
"230 143 OFFCURVE",
"255 273 CURVE",
"291 406 OFFCURVE",
"355 489 OFFCURVE",
"473 489 CURVE SMOOTH",
"502 489 OFFCURVE",
"547 487 OFFCURVE",
"576 477 CURVE",
"595 548 LINE"
);
}
);
width = 599;
},
{
anchors = (
{
name = bottom;
position = "{320, 0}";
},
{
name = top;
position = "{476, 606}";
},
{
name = top_hook;
position = "{545, 533}";
}
);
layerId = "BBDB329E-CE83-4304-A6B1-53EA5ACC004E";
paths = (
{
closed = 1;
nodes = (
"406 -45 OFFCURVE",
"478 -28 OFFCURVE",
"566 13 CURVE",
"464 171 LINE",
"352 99 OFFCURVE",
"261 157 OFFCURVE",
"282 274 CURVE",
"318 405 OFFCURVE",
"374 462 OFFCURVE",
"466 462 CURVE SMOOTH",
"506 462 OFFCURVE",
"540 458 OFFCURVE",
"594 440 CURVE",
"627 563 LINE",
"623 576 OFFCURVE",
"563 587 OFFCURVE",
"520 587 CURVE SMOOTH",
"332 587 OFFCURVE",
"178 464 OFFCURVE",
"127 273 CURVE SMOOTH",
"71 67 OFFCURVE",
"135 -27 OFFCURVE",
"339 -41 CURVE SMOOTH"
);
}
);
width = 599;
}
);
leftKerningGroup = Round;
unicode = 0063;
},
{
glyphname = ccurl;
lastChange = "2019-09-05 22:37:16 +0000";
layers = (
{
anchors = (
{
name = _curl;
position = "{277, 459}";
},
{
name = bottom;
position = "{320, 0}";
},
{
name = top;
position = "{465, 540}";
}
);
layerId = "BA196CD0-EE58-4274-B8DF-4393D3617A29";
paths = (
{
closed = 1;
nodes = (
"576 555 OFFCURVE",
"540 560 OFFCURVE",
"513 560 CURVE SMOOTH",
"341 560 OFFCURVE",
"202 451 OFFCURVE",
"154 273 CURVE SMOOTH",
"107 97 OFFCURVE",
"141 -14 OFFCURVE",
"349 -14 CURVE SMOOTH",
"475 -14 OFFCURVE",
"634 83 OFFCURVE",
"661 183 CURVE SMOOTH",
"672 223 OFFCURVE",
"661 263 OFFCURVE",
"620 298 CURVE SMOOTH",
"591 323 OFFCURVE",
"558 334 OFFCURVE",
"527 334 CURVE SMOOTH",
"451 334 OFFCURVE",
"381 269 OFFCURVE",
"356 176 CURVE SMOOTH",
"320 40 OFFCURVE",
"288 -79 OFFCURVE",
"255 -200 CURVE",
"367 -200 LINE",
"383 -137 OFFCURVE",
"396 -75 OFFCURVE",
"409 -10 CURVE SMOOTH",
"420 42 OFFCURVE",
"429 95 OFFCURVE",
"445 152 CURVE SMOOTH",
"461 213 OFFCURVE",
"489 239 OFFCURVE",
"517 239 CURVE SMOOTH",
"531 239 OFFCURVE",
"545 232 OFFCURVE",
"558 220 CURVE SMOOTH",
"564 214 OFFCURVE",
"565 206 OFFCURVE",
"563 197 CURVE SMOOTH",
"552 158 OFFCURVE",
"466 97 OFFCURVE",
"353 97 CURVE SMOOTH",
"241 97 OFFCURVE",
"237 203 OFFCURVE",
"255 273 CURVE",
"291 406 OFFCURVE",
"355 489 OFFCURVE",
"473 489 CURVE SMOOTH",
"502 489 OFFCURVE",
"547 487 OFFCURVE",
"576 477 CURVE",
"595 548 LINE"
);
}
);
width = 693;
},
{
anchors = (
{
name = _curl;
position = "{277, 459}";
},
{
name = bottom;
position = "{320, 0}";
},
{
name = top;
position = "{465, 540}";
}
);
layerId = "BBDB329E-CE83-4304-A6B1-53EA5ACC004E";
paths = (
{
closed = 1;
nodes = (
"623 576 OFFCURVE",
"563 587 OFFCURVE",
"520 587 CURVE SMOOTH",
"332 587 OFFCURVE",
"178 464 OFFCURVE",
"127 273 CURVE SMOOTH",
"70 60 OFFCURVE",
"137 -41 OFFCURVE",
"342 -41 CURVE SMOOTH",
"485 -41 OFFCURVE",
"658 69 OFFCURVE",
"688 183 CURVE SMOOTH",
"702 235 OFFCURVE",
"686 283 OFFCURVE",
"641 320 CURVE SMOOTH",
"611 346 OFFCURVE",
"572 361 OFFCURVE",
"534 361 CURVE SMOOTH",
"443 361 OFFCURVE",
"358 284 OFFCURVE",
"329 176 CURVE SMOOTH",
"290 30 OFFCURVE",
"256 -97 OFFCURVE",
"221 -227 CURVE",
"387 -227 LINE",
"407 -154 OFFCURVE",
"422 -82 OFFCURVE",
"437 -8 CURVE SMOOTH",
"448 43 OFFCURVE",
"457 96 OFFCURVE",
"472 152 CURVE SMOOTH",
"483 192 OFFCURVE",
"498 212 OFFCURVE",
"509 212 CURVE SMOOTH",
"517 212 OFFCURVE",
"525 208 OFFCURVE",
"536 198 CURVE",
"538 197 OFFCURVE",
"537 202 OFFCURVE",
"536 197 CURVE SMOOTH",
"527 165 OFFCURVE",
"436 124 OFFCURVE",
"360 124 CURVE SMOOTH",
"289 124 OFFCURVE",
"259 182 OFFCURVE",
"282 273 CURVE",
"318 405 OFFCURVE",
"374 462 OFFCURVE",
"466 462 CURVE SMOOTH",
"506 462 OFFCURVE",
"540 458 OFFCURVE",
"594 440 CURVE",
"627 563 LINE"
);
}
);
width = 693;
}
);
unicode = 0255;
},
{
color = 7;
glyphname = d;
lastChange = "2019-09-05 22:37:16 +0000";
layers = (
{
anchors = (
{
name = bottom;
position = "{290, -42}";
},
{
name = bottom_hook;
position = "{530, 27}";
},
{
name = center;
position = "{452, 273}";
},
{
name = circumflexbelow;
position = "{293, -54}";
},
{
name = croat;
position = "{707, 624}";
},
{
name = dotbelow;
position = "{287, -51}";
},
{
name = ezh;
position = "{706, 601}";
},
{
name = right;
position = "{818, 674}";
},
{
name = right_el;
position = "{827, 526}";
},
{
name = top;
position = "{457, 560}";
},
{
name = top_hook;
position = "{718, 700}";
},
{
name = topright;
position = "{781, 500}";
}
);
layerId = "BA196CD0-EE58-4274-B8DF-4393D3617A29";
paths = (
{
closed = 1;
nodes = (
"582 505 OFFCURVE",
"531 536 OFFCURVE",
"451 536 CURVE SMOOTH",
"317 536 OFFCURVE",
"194 421 OFFCURVE",
"154 273 CURVE SMOOTH",
"108 101 OFFCURVE",
"143 -19 OFFCURVE",
"303 -14 CURVE SMOOTH",
"385 -11 OFFCURVE",
"451 17 OFFCURVE",
"506 82 CURVE",
"484 0 LINE",
"579 -2 LINE",
"631 235 LINE",
"806 800 LINE",
"715 800 LINE",
"602 440 LINE"
);
},
{
closed = 1;
nodes = (
"251 391 OFFCURVE",
"330 471 OFFCURVE",
"427 471 CURVE SMOOTH",
"523 471 OFFCURVE",
"550 398 OFFCURVE",
"521 290 CURVE SMOOTH",
"489 169 OFFCURVE",
"434 149 OFFCURVE",
"338 149 CURVE SMOOTH",
"242 149 OFFCURVE",
"197 188 OFFCURVE",
"222 283 CURVE SMOOTH"
);
}
);
width = 673;
},
{
anchors = (
{
name = bottom;
position = "{290, -42}";
},
{
name = bottom_hook;
position = "{530, 27}";
},
{
name = center;
position = "{452, 273}";
},
{
name = circumflexbelow;
position = "{287, -74}";
},
{
name = croat;
position = "{707, 624}";
},
{
name = dotbelow;
position = "{282, -71}";
},
{
name = ezh;
position = "{706, 601}";
},
{
name = right;
position = "{818, 674}";
},
{
name = right_el;
position = "{827, 526}";
},
{
name = top;
position = "{457, 560}";
},
{
name = top_hook;
position = "{718, 700}";
},
{
name = topright;
position = "{781, 500}";
}
);
layerId = "BBDB329E-CE83-4304-A6B1-53EA5ACC004E";
paths = (
{
closed = 1;
nodes = (
"566 546 OFFCURVE",
"520 563 OFFCURVE",
"458 563 CURVE SMOOTH",
"312 563 OFFCURVE",
"171 439 OFFCURVE",
"127 273 CURVE SMOOTH",
"72 69 OFFCURVE",
"133 -46 OFFCURVE",
"297 -41 CURVE SMOOTH",
"359 -39 OFFCURVE",
"412 -23 OFFCURVE",
"459 8 CURVE",
"450 -26 LINE",
"600 -30 LINE",
"658 235 LINE",
"842 827 LINE",
"696 827 LINE",
"597 512 LINE"
);
},
{
closed = 1;
nodes = (
"276 382 OFFCURVE",
"343 444 OFFCURVE",
"420 444 CURVE SMOOTH",
"495 444 OFFCURVE",
"521 391 OFFCURVE",
"494 290 CURVE SMOOTH",
"469 197 OFFCURVE",
"440 176 OFFCURVE",
"345 176 CURVE SMOOTH",
"258 176 OFFCURVE",
"230 209 OFFCURVE",
"250 283 CURVE SMOOTH"
);
}
);
width = 673;
}
);
leftKerningGroup = Round;
unicode = 0064;
},
{
glyphname = dzaltone;
lastChange = "2019-09-05 22:37:16 +0000";
layers = (
{
components = (
{
name = d;
},
{
name = z;
transform = "{1, 0, 0, 1, 497, -13}";
}
);
layerId = "BA196CD0-EE58-4274-B8DF-4393D3617A29";
paths = (
{
closed = 1;
nodes = (
"650 469 LINE",
"856 469 LINE",
"874 536 LINE",
"668 536 LINE"
);
}
);
width = 1179;
},
{
components = (
{
name = d;
},
{
name = z;
transform = "{1, 0, 0, 1, 497, -13}";
}
);
layerId = "BBDB329E-CE83-4304-A6B1-53EA5ACC004E";
paths = (
{
closed = 1;
nodes = (
"615 442 LINE",
"876 442 LINE",
"908 563 LINE",
"648 563 LINE"
);
}
);
width = 1179;
}
);
unicode = 02A3;
},
{
glyphname = dzcurl;
lastChange = "2019-09-05 22:37:16 +0000";
layers = (
{
components = (
{
name = d;
},
{
name = zcurl;
transform = "{1, 0, 0, 1, 508, -1}";
}
);
layerId = "BA196CD0-EE58-4274-B8DF-4393D3617A29";
paths = (
{
closed = 1;
nodes = (
"655 481 LINE",
"866 481 LINE",
"884 548 LINE",
"673 548 LINE"
);
}
);
width = 1241;
},
{
components = (
{
name = d;
},
{
name = zcurl;
transform = "{1, 0, 0, 1, 508, -1}";
}
);
layerId = "BBDB329E-CE83-4304-A6B1-53EA5ACC004E";
paths = (
{
closed = 1;
nodes = (
"621 454 LINE",
"886 454 LINE",
"919 575 LINE",
"653 575 LINE"
);
}
);
width = 1241;
}
);
unicode = 02A5;
},
{
color = 7;
glyphname = e;
lastChange = "2019-09-05 23:11:55 +0000";
layers = (
{
anchors = (
{
name = _hook;
position = "{501, 539}";
},
{
name = bottom;
position = "{363, 0}";
},
{
name = center;
position = "{190, 267}";
},
{
name = dotbelow;
position = "{369, -7}";
},
{
name = ogonek;
position = "{488, 48}";
},
{
name = righthook;
position = "{654, 274}";
},
{
name = top;
position = "{500, 599}";
}
);
layerId = "BA196CD0-EE58-4274-B8DF-4393D3617A29";
paths = (
{
closed = 1;
nodes = (
"613 551 OFFCURVE",
"503 560 CURVE",
"336 560 OFFCURVE",
"208 447 OFFCURVE",
"153 268 CURVE",
"106 95 OFFCURVE",
"188 -14 OFFCURVE",
"364 -14 CURVE SMOOTH",
"436 -14 OFFCURVE",
"505 0 OFFCURVE",
"578 28 CURVE",
"611 152 LINE",
"525 119 OFFCURVE",
"478 122 OFFCURVE",
"403 119 CURVE SMOOTH",
"259 114 OFFCURVE",
"214 192 OFFCURVE",
"240 287 CURVE",
"664 315 LINE",
"680 496 OFFCURVE"
);
},
{
closed = 1;
nodes = (
"304 440 OFFCURVE",
"389 513 OFFCURVE",
"490 513 CURVE SMOOTH",
"580 513 OFFCURVE",
"618 446 OFFCURVE",
"612 385 CURVE",
"286 374 LINE"
);
}
);
width = 661;
},
{
anchors = (
{
name = _hook;
position = "{498, 529}";
},
{
name = bottom;
position = "{339, 0}";
},
{
name = center;
position = "{190, 267}";
},
{
name = dotbelow;
position = "{348, -22}";
},
{
name = ogonek;
position = "{436, -7}";
},
{
name = righthook;
position = "{654, 274}";
},
{
name = top;
position = "{524, 689}";
}
);
layerId = "BBDB329E-CE83-4304-A6B1-53EA5ACC004E";
paths = (
{
closed = 1;
nodes = (
"713 483 OFFCURVE",
"660 575 OFFCURVE",
"512 587 CURVE",
"510 587 LINE SMOOTH",
"332 587 OFFCURVE",
"186 466 OFFCURVE",
"126 269 CURVE",
"125 268 LINE SMOOTH",
"75 80 OFFCURVE",
"166 -41 OFFCURVE",
"357 -41 CURVE SMOOTH",
"436 -41 OFFCURVE",
"516 -24 OFFCURVE",
"601 11 CURVE",
"650 195 LINE",
"540 145 OFFCURVE",
"499 150 OFFCURVE",
"409 146 CURVE SMOOTH",
"306 142 OFFCURVE",
"253 186 OFFCURVE",
"262 262 CURVE",
"689 290 LINE"
);
},
{
closed = 1;
nodes = (
"355 449 OFFCURVE",
"419 486 OFFCURVE",
"483 486 CURVE SMOOTH",
"536 486 OFFCURVE",
"574 455 OFFCURVE",
"583 411 CURVE",
"326 402 LINE"
);
}
);
width = 661;
}
);
leftKerningGroup = Round;
unicode = 0065;
},
{
glyphname = eopen;
lastChange = "2019-09-05 22:37:16 +0000";
layers = (
{
anchors = (
{
name = top;
position = "{395, 520}";
}
);
layerId = "BA196CD0-EE58-4274-B8DF-4393D3617A29";
paths = (
{
closed = 1;
nodes = (
"295 -12 OFFCURVE",
"467 17 OFFCURVE",
"455 189 CURVE",
"372 182 LINE",
"371 79 OFFCURVE",
"319 78 OFFCURVE",
"270 79 CURVE SMOOTH",
"201 80 OFFCURVE",
"186 120 OFFCURVE",
"198 165 CURVE",
"210 210 OFFCURVE",
"258 243 OFFCURVE",
"332 242 CURVE SMOOTH",
"355 242 LINE",
"357 295 LINE",
"334 295 LINE",
"267 295 OFFCURVE",
"225 314 OFFCURVE",
"241 377 CURVE SMOOTH",
"256 431 OFFCURVE",
"319 456 OFFCURVE",
"388 456 CURVE SMOOTH",
"424 456 OFFCURVE",
"460 438 OFFCURVE",
"443 379 CURVE",
"491 388 LINE",
"514 476 OFFCURVE",
"433 500 OFFCURVE",
"393 500 CURVE SMOOTH",
"290 500 OFFCURVE",
"213 451 OFFCURVE",
"192 372 CURVE SMOOTH",
"177 318 OFFCURVE",
"196 286 OFFCURVE",
"254 263 CURVE",
"172 252 OFFCURVE",
"137 210 OFFCURVE",
"120 147 CURVE SMOOTH",
"92 40 OFFCURVE",
"159 -12 OFFCURVE",
"252 -12 CURVE SMOOTH"
);
}
);
width = 497;
},
{
anchors = (
{
name = top;
position = "{395, 520}";
}
);
layerId = "BBDB329E-CE83-4304-A6B1-53EA5ACC004E";
paths = (
{
closed = 1;
nodes = (
"293 -26 OFFCURVE",
"491 7 OFFCURVE",
"469 204 CURVE",
"357 195 LINE",
"359 93 OFFCURVE",
"326 92 OFFCURVE",
"273 93 CURVE SMOOTH",
"222 94 OFFCURVE",
"200 120 OFFCURVE",
"212 165 CURVE SMOOTH",
"222 204 OFFCURVE",
"266 228 OFFCURVE",
"329 228 CURVE SMOOTH",
"369 228 LINE",
"373 309 LINE",
"337 309 LINE SMOOTH",
"268 309 OFFCURVE",
"243 330 OFFCURVE",
"256 377 CURVE SMOOTH",
"266 417 OFFCURVE",
"314 442 OFFCURVE",
"384 442 CURVE SMOOTH",
"430 442 OFFCURVE",
"444 413 OFFCURVE",
"422 361 CURVE",
"502 376 LINE",
"539 485 OFFCURVE",
"441 514 OFFCURVE",
"396 514 CURVE SMOOTH",
"285 514 OFFCURVE",
"201 459 OFFCURVE",
"177 372 CURVE SMOOTH",
"165 325 OFFCURVE",
"175 291 OFFCURVE",
"211 267 CURVE",
"157 249 OFFCURVE",
"123 210 OFFCURVE",
"106 147 CURVE SMOOTH",
"78 43 OFFCURVE",
"134 -26 OFFCURVE",
"249 -26 CURVE SMOOTH"
);
}
);
width = 497;
}
);
unicode = 025B;
},
{
glyphname = eopenreversedclosed;
lastChange = "2019-09-05 22:37:16 +0000";
layers = (
{
layerId = "BA196CD0-EE58-4274-B8DF-4393D3617A29";
paths = (
{
closed = 1;
nodes = (
"113 119 OFFCURVE",
"149 -4 OFFCURVE",
"327 -12 CURVE SMOOTH",
"419 -16 OFFCURVE",
"516 40 OFFCURVE",
"544 147 CURVE SMOOTH",
"561 210 OFFCURVE",
"549 252 OFFCURVE",
"472 263 CURVE",
"568 290 OFFCURVE",
"579 318 OFFCURVE",
"594 372 CURVE SMOOTH",
"615 451 OFFCURVE",
"564 500 OFFCURVE",
"461 500 CURVE SMOOTH",
"261 500 OFFCURVE",
"180 369 OFFCURVE",
"148 249 CURVE SMOOTH"
);
},
{
closed = 1;
nodes = (
"236 346 OFFCURVE",
"315 456 OFFCURVE",
"442 456 CURVE SMOOTH",
"511 456 OFFCURVE",
"561 431 OFFCURVE",
"546 377 CURVE SMOOTH",
"530 314 OFFCURVE",
"477 295 OFFCURVE",
"410 295 CURVE SMOOTH",
"387 295 LINE",
"361 242 LINE",
"383 242 LINE SMOOTH",
"458 243 OFFCURVE",
"489 210 OFFCURVE",
"476 165 CURVE SMOOTH",
"464 120 OFFCURVE",
"427 79 OFFCURVE",
"359 79 CURVE SMOOTH",
"207 79 OFFCURVE",
"195 194 OFFCURVE",
"211 252 CURVE SMOOTH"
);
}
);
width = 586;
},
{
layerId = "BBDB329E-CE83-4304-A6B1-53EA5ACC004E";
paths = (
{
closed = 1;
nodes = (
"75 79 OFFCURVE",
"150 -31 OFFCURVE",
"319 -39 CURVE SMOOTH",
"436 -44 OFFCURVE",
"541 33 OFFCURVE",
"572 147 CURVE SMOOTH",
"587 203 OFFCURVE",
"579 243 OFFCURVE",
"548 266 CURVE",
"587 289 OFFCURVE",
"607 319 OFFCURVE",
"621 372 CURVE SMOOTH",
"646 467 OFFCURVE",
"586 527 OFFCURVE",
"468 527 CURVE SMOOTH",
"292 527 OFFCURVE",
"168 428 OFFCURVE",
"120 249 CURVE SMOOTH"
);
},
{
closed = 1;
nodes = (
"267 358 OFFCURVE",
"344 429 OFFCURVE",
"435 429 CURVE SMOOTH",
"498 429 OFFCURVE",
"527 408 OFFCURVE",
"519 377 CURVE SMOOTH",
"509 338 OFFCURVE",
"480 322 OFFCURVE",
"418 322 CURVE SMOOTH",
"372 322 LINE",
"319 215 LINE",
"376 215 LINE SMOOTH",
"432 216 OFFCURVE",
"458 196 OFFCURVE",
"449 165 CURVE SMOOTH",
"439 127 OFFCURVE",
"411 106 OFFCURVE",
"366 106 CURVE SMOOTH",
"269 106 OFFCURVE",
"216 168 OFFCURVE",
"238 252 CURVE SMOOTH"
);
}
);
width = 586;
}
);
unicode = 025E;
},
{
glyphname = esh;
lastChange = "2019-09-05 22:37:16 +0000";
layers = (
{
layerId = "BA196CD0-EE58-4274-B8DF-4393D3617A29";
paths = (
{
closed = 1;
nodes = (
"959 754 OFFCURVE",
"928 760 OFFCURVE",
"892 760 CURVE SMOOTH",
"793 760 OFFCURVE",
"705 694 OFFCURVE",
"653 575 CURVE SMOOTH",
"552 344 LINE",
"443 83 LINE",
"392 -25 OFFCURVE",
"349 -65 OFFCURVE",
"286 -65 CURVE SMOOTH",
"254 -65 OFFCURVE",
"226 -54 OFFCURVE",
"198 -33 CURVE",
"55 -98 LINE",
"82 -180 OFFCURVE",
"185 -208 OFFCURVE",
"222 -208 CURVE SMOOTH",
"337 -208 OFFCURVE",
"419 -216 OFFCURVE",
"550 107 CURVE SMOOTH",
"646 344 LINE",
"745 576 LINE SMOOTH",
"782 662 OFFCURVE",
"831 700 OFFCURVE",
"895 700 CURVE SMOOTH",
"924 700 OFFCURVE",
"947 691 OFFCURVE",
"967 672 CURVE",
"986 742 LINE"
);
}
);
width = 868;
},
{
layerId = "BBDB329E-CE83-4304-A6B1-53EA5ACC004E";
paths = (
{
closed = 1;
nodes = (
"984 778 OFFCURVE",
"945 787 OFFCURVE",
"900 787 CURVE SMOOTH",
"786 787 OFFCURVE",
"684 710 OFFCURVE",
"627 579 CURVE SMOOTH",
"526 348 LINE",
"417 88 LINE",
"373 -8 OFFCURVE",
"340 -38 OFFCURVE",
"293 -38 CURVE SMOOTH",
"264 -38 OFFCURVE",
"238 -27 OFFCURVE",
"209 -2 CURVE",
"21 -86 LINE",
"37 -198 OFFCURVE",
"170 -235 OFFCURVE",
"215 -235 CURVE SMOOTH",
"329 -235 OFFCURVE",
"434 -245 OFFCURVE",
"576 103 CURVE SMOOTH",
"672 340 LINE",
"771 572 LINE SMOOTH",
"802 643 OFFCURVE",
"837 673 OFFCURVE",
"887 673 CURVE SMOOTH",
"926 673 OFFCURVE",
"945 657 OFFCURVE",
"978 611 CURVE",
"1018 760 LINE"
);
}
);
width = 868;
}
);
unicode = 0283;
},
{
glyphname = ezh;
lastChange = "2019-09-05 22:37:16 +0000";
layers = (
{
anchors = (
{
name = _ezh;
position = "{263, 623}";
},
{
name = bottom;
position = "{351, 0}";
},
{
name = top;
position = "{526, 693}";
}
);
layerId = "BA196CD0-EE58-4274-B8DF-4393D3617A29";
paths = (
{
closed = 1;
nodes = (
"574 406 OFFCURVE",
"605 427 OFFCURVE",
"723 527 CURVE",
"734 598 OFFCURVE",
"736 598 OFFCURVE",
"742 667 CURVE",
"663 671 OFFCURVE",
"362 667 OFFCURVE",
"263 667 CURVE",
"237 573 LINE",
"386 572 OFFCURVE",
"522 572 OFFCURVE",
"636 573 CURVE",
"513 468 OFFCURVE",
"448 430 OFFCURVE",
"306 325 CURVE",
"281 232 LINE",
"426 245 OFFCURVE",
"531 205 OFFCURVE",
"517 126 CURVE",
"480 -23 OFFCURVE",
"322 -111 OFFCURVE",
"216 27 CURVE",
"60 -77 LINE",
"155 -202 OFFCURVE",
"282 -200 OFFCURVE",
"315 -200 CURVE SMOOTH",
"531 -200 OFFCURVE",
"608 -57 OFFCURVE",
"638 107 CURVE SMOOTH",
"655 203 OFFCURVE",
"576 305 OFFCURVE",
"457 314 CURVE"
);
}
);
width = 693;
},
{
anchors = (
{
name = _ezh;
position = "{263, 623}";
},
{
name = bottom;
position = "{351, 0}";
},
{
name = top;
position = "{526, 693}";
}
);
layerId = "BBDB329E-CE83-4304-A6B1-53EA5ACC004E";
paths = (
{
closed = 1;
nodes = (
"600 395 OFFCURVE",
"638 423 OFFCURVE",
"738 509 CURVE",
"751 530 LINE",
"757 572 OFFCURVE",
"764 602 OFFCURVE",
"771 672 CURVE",
"751 694 LINE",
"660 699 OFFCURVE",
"287 693 OFFCURVE",
"243 694 CURVE",
"203 546 LINE",
"334 545 OFFCURVE",
"458 545 OFFCURVE",
"566 546 CURVE",
"474 472 OFFCURVE",
"408 431 OFFCURVE",
"282 337 CURVE",
"246 202 LINE",
"397 222 OFFCURVE",
"499 186 OFFCURVE",
"489 124 CURVE",
"451 -26 OFFCURVE",
"309 -65 OFFCURVE",
"228 64 CURVE",
"20 -75 LINE",
"122 -229 OFFCURVE",
"273 -227 OFFCURVE",
"308 -227 CURVE SMOOTH",
"506 -227 OFFCURVE",
"625 -114 OFFCURVE",
"666 109 CURVE SMOOTH",
"684 207 OFFCURVE",
"617 301 OFFCURVE",
"518 331 CURVE"
);
}
);
width = 693;
}
);
unicode = 0292;
},
{
color = 7;
glyphname = f;
lastChange = "2019-09-05 23:18:25 +0000";
layers = (
{
anchors = (
{
name = bottom;
position = "{244, 0}";
},
{
name = center;
position = "{317, 263}";
},
{
name = top;
position = "{459, 800}";
}
);
layerId = "BA196CD0-EE58-4274-B8DF-4393D3617A29";
paths = (
{
closed = 1;
nodes = (
"427 795 OFFCURVE",
"367 761 OFFCURVE",
"309 547 CURVE",
"227 547 LINE",
"204 458 LINE",
"285 458 LINE",
"147 0 LINE",
"279 0 LINE",
"386 458 LINE",
"531 458 LINE",
"555 547 LINE",
"398 545 LINE",
"399 584 OFFCURVE",
"420 720 OFFCURVE",
"510 720 CURVE",
"592 720 LINE",
"612 795 LINE",
"531 795 LINE"
);
}
);
width = 489;
},
{
anchors = (
{
name = bottom;
position = "{244, 0}";
},
{
name = center;
position = "{310, 265}";
},
{
name = top;
position = "{459, 800}";
}
);
layerId = "BBDB329E-CE83-4304-A6B1-53EA5ACC004E";
paths = (
{
closed = 1;
nodes = (
"407 822 OFFCURVE",
"342 758 OFFCURVE",
"289 574 CURVE",
"207 574 LINE",
"169 431 LINE",
"250 431 LINE",
"112 -27 LINE",
"300 -27 LINE",
"407 431 LINE",
"551 431 LINE",
"589 574 LINE",
"427 572 LINE",
"433 618 OFFCURVE",
"452 693 OFFCURVE",
"503 693 CURVE SMOOTH",
"612 693 LINE",
"646 822 LINE",
"538 822 LINE SMOOTH"
);
}
);
width = 489;
}
);
unicode = 0066;
},
{
color = 7;
glyphname = g;
lastChange = "2019-09-05 22:37:16 +0000";
layers = (
{
anchors = (
{
name = bottom;
position = "{234, -261}";
},
{
name = comma;
position = "{240, -262}";
},
{
name = top;
position = "{490, 547}";
},
{
name = top_hook;
position = "{628, 353}";
}
);
layerId = "BA196CD0-EE58-4274-B8DF-4393D3617A29";
paths = (
{
closed = 1;
nodes = (
"486 156 OFFCURVE",
"420 146 OFFCURVE",
"322 146 CURVE SMOOTH",
"225 146 OFFCURVE",
"190 156 OFFCURVE",
"212 285 CURVE",
"247 416 OFFCURVE",
"324 490 OFFCURVE",
"421 490 CURVE SMOOTH",
"518 490 OFFCURVE",
"556 416 OFFCURVE",
"521 285 CURVE SMOOTH"
);
},
{
closed = 1;
nodes = (
"640 547 LINE",
"600 477 LINE",
"556 518 OFFCURVE",
"538 560 OFFCURVE",
"457 560 CURVE SMOOTH",
"322 560 OFFCURVE",
"201 449 OFFCURVE",
"156 280 CURVE SMOOTH",
"111 111 OFFCURVE",
"172 0 OFFCURVE",
"307 0 CURVE SMOOTH",
"388 0 OFFCURVE",
"458 37 OFFCURVE",
"501 82 CURVE",
"493 52 LINE",
"462 -13 OFFCURVE",
"382 -124 OFFCURVE",
"263 -124 CURVE SMOOTH",
"209 -124 OFFCURVE",
"161 -111 OFFCURVE",
"115 -82 CURVE",
"43 -214 LINE",
"97 -245 OFFCURVE",
"170 -261 OFFCURVE",
"234 -261 CURVE SMOOTH",
"407 -261 OFFCURVE",
"513 -152 OFFCURVE",
"582 69 CURVE SMOOTH",
"731 547 LINE"
);
}
);
width = 666;
},
{
anchors = (
{
name = bottom;
position = "{234, -261}";
},
{
name = comma;
position = "{240, -262}";
},
{
name = top;
position = "{503, 596}";
},
{
name = top_hook;
position = "{628, 353}";
}
);
layerId = "BBDB329E-CE83-4304-A6B1-53EA5ACC004E";
paths = (
{
closed = 1;
nodes = (
"469 192 OFFCURVE",
"439 173 OFFCURVE",
"329 173 CURVE SMOOTH",
"234 173 OFFCURVE",
"222 185 OFFCURVE",
"239 286 CURVE",
"270 401 OFFCURVE",
"333 463 OFFCURVE",
"414 463 CURVE SMOOTH",
"496 463 OFFCURVE",
"524 400 OFFCURVE",
"493 285 CURVE SMOOTH"
);
},
{
closed = 1;
nodes = (
"627 574 LINE",
"599 523 LINE",
"569 556 OFFCURVE",
"540 587 OFFCURVE",
"464 587 CURVE SMOOTH",
"313 587 OFFCURVE",
"178 463 OFFCURVE",
"129 280 CURVE SMOOTH",
"80 97 OFFCURVE",
"148 -27 OFFCURVE",
"300 -27 CURVE SMOOTH",
"381 -27 OFFCURVE",
"465 9 OFFCURVE",
"450 -7 CURVE",
"466 55 LINE",
"422 -37 OFFCURVE",
"346 -97 OFFCURVE",
"270 -97 CURVE SMOOTH",
"209 -97 OFFCURVE",
"160 -79 OFFCURVE",
"110 -41 CURVE",
"7 -227 LINE",
"61 -265 OFFCURVE",
"147 -288 OFFCURVE",
"227 -288 CURVE SMOOTH",
"411 -288 OFFCURVE",
"533 -173 OFFCURVE",
"609 68 CURVE SMOOTH",
"767 574 LINE"
);
}
);
width = 666;
}
);
unicode = 0067;
},
{
glyphname = "gamma-latin";
lastChange = "2019-09-05 22:37:16 +0000";
layers = (
{
layerId = "BA196CD0-EE58-4274-B8DF-4393D3617A29";
paths = (
{
closed = 1;
nodes = (
"313 481 CURVE SMOOTH",
"304 493 OFFCURVE",
"301 500 OFFCURVE",
"293 515 CURVE",
"203 455 LINE",
"210 443 OFFCURVE",
"208 442 OFFCURVE",
"215 435 CURVE SMOOTH",
"526 41 OFFCURVE",
"449 -103 OFFCURVE",
"325 -100 CURVE SMOOTH",
"167 -96 OFFCURVE",
"246 74 OFFCURVE",
"727 427 CURVE SMOOTH",
"736 433 OFFCURVE",
"741 439 OFFCURVE",
"750 448 CURVE",
"692 515 LINE",
"681 505 OFFCURVE",
"672 495 OFFCURVE",
"660 485 CURVE SMOOTH",
"199 94 OFFCURVE",
"-93 -193 OFFCURVE",
"302 -197 CURVE SMOOTH",
"629 -200 OFFCURVE",
"602 88 OFFCURVE"
);
}
);
width = 711;
},
{
layerId = "BBDB329E-CE83-4304-A6B1-53EA5ACC004E";
paths = (
{
closed = 1;
nodes = (
"640 -227 OFFCURVE",
"656 67 OFFCURVE",
"337 500 CURVE SMOOTH",
"327 514 OFFCURVE",
"325 520 OFFCURVE",
"307 553 CURVE",
"165 459 LINE",
"174 444 OFFCURVE",
"184 423 OFFCURVE",
"191 415 CURVE",
"415 131 OFFCURVE",
"467 -76 OFFCURVE",
"333 -73 CURVE SMOOTH",
"193 -69 OFFCURVE",
"344 117 OFFCURVE",
"740 407 CURVE",
"749 413 OFFCURVE",
"760 424 OFFCURVE",
"788 451 CURVE",
"702 552 LINE",
"672 532 OFFCURVE",
"660 516 OFFCURVE",
"645 503 CURVE SMOOTH",
"182 111 OFFCURVE",
"-154 -219 OFFCURVE",
"294 -224 CURVE SMOOTH"
);
}
);
width = 711;
}
);
unicode = 0263;
},
{
glyphname = glottalstop;
lastChange = "2019-09-05 22:37:16 +0000";
layers = (
{
layerId = "BA196CD0-EE58-4274-B8DF-4393D3617A29";
paths = (
{
closed = 1;
nodes = (
"227 43 OFFCURVE",
"275 54 OFFCURVE",
"277 61 CURVE",
"285 91 OFFCURVE",
"338 285 OFFCURVE",
"349 325 CURVE SMOOTH",
"359 365 OFFCURVE",
"508 373 OFFCURVE",
"543 528 CURVE SMOOTH",
"560 600 OFFCURVE",
"548 660 OFFCURVE",
"469 679 CURVE SMOOTH",
"408 694 OFFCURVE",
"260 669 OFFCURVE",
"229 553 CURVE",
"265 553 OFFCURVE",
"278 553 OFFCURVE",
"312 553 CURVE",
"330 620 OFFCURVE",
"376 630 OFFCURVE",
"440 616 CURVE SMOOTH",
"483 607 OFFCURVE",
"493 570 OFFCURVE",
"479 517 CURVE SMOOTH",
"460 446 OFFCURVE",
"348 429 OFFCURVE",
"307 384 CURVE SMOOTH",
"270 343 OFFCURVE",
"263 329 OFFCURVE",
"248 272 CURVE SMOOTH",
"236 227 OFFCURVE",
"191 66 OFFCURVE",
"182 32 CURVE"
);
}
);
width = 483;
},
{
layerId = "BBDB329E-CE83-4304-A6B1-53EA5ACC004E";
paths = (
{
closed = 1;
nodes = (
"182 6 LINE",
"235 19 OFFCURVE",
"295 28 OFFCURVE",
"304 61 CURVE SMOOTH",
"312 91 OFFCURVE",
"365 285 OFFCURVE",
"376 325 CURVE SMOOTH",
"378 332 OFFCURVE",
"534 369 OFFCURVE",
"571 529 CURVE SMOOTH",
"593 625 OFFCURVE",
"563 686 OFFCURVE",
"482 705 CURVE SMOOTH",
"417 722 OFFCURVE",
"239 692 OFFCURVE",
"202 553 CURVE",
"222 526 LINE",
"268 526 OFFCURVE",
"276 526 OFFCURVE",
"334 526 CURVE",
"343 588 OFFCURVE",
"357 605 OFFCURVE",
"428 590 CURVE SMOOTH",
"454 584 OFFCURVE",
"463 561 OFFCURVE",
"452 517 CURVE SMOOTH",
"437 464 OFFCURVE",
"342 457 OFFCURVE",
"288 399 CURVE SMOOTH",
"247 354 OFFCURVE",
"237 334 OFFCURVE",
"220 272 CURVE SMOOTH",
"208 227 OFFCURVE",
"164 66 OFFCURVE",
"155 32 CURVE"
);
}
);
width = 483;
}
);
unicode = 0294;
},
{
glyphname = glottalstopsmall;
lastChange = "2019-09-05 22:37:16 +0000";
layers = (
{
layerId = "BA196CD0-EE58-4274-B8DF-4393D3617A29";
paths = (
{
closed = 1;
nodes = (
"276 220 OFFCURVE",
"325 220 CURVE",
"338 258 OFFCURVE",
"342 300 OFFCURVE",
"353 340 CURVE SMOOTH",
"363 380 OFFCURVE",
"512 388 OFFCURVE",
"547 543 CURVE SMOOTH",
"564 615 OFFCURVE",
"552 675 OFFCURVE",
"473 694 CURVE SMOOTH",
"412 709 OFFCURVE",
"264 684 OFFCURVE",
"233 568 CURVE",
"269 568 OFFCURVE",
"282 568 OFFCURVE",
"316 568 CURVE",
"334 635 OFFCURVE",
"380 644 OFFCURVE",
"444 631 CURVE SMOOTH",
"487 622 OFFCURVE",
"497 585 OFFCURVE",
"483 532 CURVE SMOOTH",
"464 461 OFFCURVE",
"352 444 OFFCURVE",
"311 399 CURVE SMOOTH",
"274 358 OFFCURVE",
"242 277 OFFCURVE",
"227 220 CURVE",
"256 220 OFFCURVE"
);
}
);
width = 483;
},
{
layerId = "BBDB329E-CE83-4304-A6B1-53EA5ACC004E";
paths = (
{
closed = 1;
nodes = (
"309 193 OFFCURVE",
"319 193 OFFCURVE",
"402 193 CURVE",
"425 240 OFFCURVE",
"429 294 OFFCURVE",
"442 340 CURVE SMOOTH",
"443 347 OFFCURVE",
"600 384 OFFCURVE",
"637 544 CURVE SMOOTH",
"658 640 OFFCURVE",
"628 701 OFFCURVE",
"547 720 CURVE SMOOTH",
"482 737 OFFCURVE",
"305 707 OFFCURVE",
"267 568 CURVE",
"287 541 LINE",
"334 541 OFFCURVE",
"342 541 OFFCURVE",
"399 541 CURVE",
"410 603 OFFCURVE",
"421 619 OFFCURVE",
"493 605 CURVE SMOOTH",
"520 599 OFFCURVE",
"529 576 OFFCURVE",
"517 532 CURVE SMOOTH",
"503 479 OFFCURVE",
"407 472 OFFCURVE",
"353 414 CURVE SMOOTH",
"315 371 OFFCURVE",
"273 279 OFFCURVE",
"255 193 CURVE"
);
}
);
width = 606;
}
);
unicode = 0242;
},
{
color = 7;
glyphname = h;
lastChange = "2019-09-05 22:37:16 +0000";
layers = (
{
anchors = (
{
name = bottom;
position = "{341, 0}";
},
{
name = bottom_hook;
position = "{523, 0}";
},
{
name = center;
position = "{378, 273}";
},
{
name = top;
position = "{452, 547}";
},
{
name = top_hook;
position = "{312, 482}";
}
);
layerId = "BA196CD0-EE58-4274-B8DF-4393D3617A29";
paths = (
{
closed = 1;
nodes = (
"708 522 OFFCURVE",
"662 548 OFFCURVE",
"535 548 CURVE SMOOTH",
"458 548 OFFCURVE",
"421 532 OFFCURVE",
"336 469 CURVE",
"445 800 LINE",
"354 800 LINE",
"81 0 LINE",
"230 0 LINE",
"279 385 OFFCURVE",
"335 476 OFFCURVE",
"495 476 CURVE SMOOTH",
"653 476 OFFCURVE",
"635 365 OFFCURVE",
"463 0 CURVE",
"602 0 LINE",
"669 330 LINE SMOOTH"
);
}
);
width = 683;
},
{
anchors = (
{
name = bottom;
position = "{341, 0}";
},
{
name = bottom_hook;
position = "{523, 0}";
},
{
name = center;
position = "{378, 273}";
},
{
name = top;
position = "{452, 547}";
},
{
name = top_hook;
position = "{312, 482}";
}
);
layerId = "BBDB329E-CE83-4304-A6B1-53EA5ACC004E";
paths = (
{
closed = 1;
nodes = (
"735 520 OFFCURVE",
"700 575 OFFCURVE",
"542 575 CURVE SMOOTH",
"480 575 OFFCURVE",
"439 565 OFFCURVE",
"383 530 CURVE",
"481 827 LINE",
"336 827 LINE",
"44 -27 LINE",
"254 -27 LINE",
"302 366 OFFCURVE",
"346 449 OFFCURVE",
"488 449 CURVE SMOOTH",
"618 449 OFFCURVE",
"608 363 OFFCURVE",
"422 -27 CURVE",
"624 -27 LINE",
"697 332 LINE SMOOTH"
);
}
);
width = 683;
}
);
unicode = 0068;
},
{
color = 7;
glyphname = i;
lastChange = "2019-09-05 22:37:16 +0000";
layers = (
{
anchors = (
{
name = bottom;
position = "{142, 0}";
},
{
name = center;
position = "{233, 285}";
}
);
layerId = "BA196CD0-EE58-4274-B8DF-4393D3617A29";
paths = (
{
closed = 1;
nodes = (
"204 0 LINE",
"225 192 OFFCURVE",
"265 341 OFFCURVE",
"316 506 CURVE",
"236 506 LINE",
"176 285 OFFCURVE",
"145 192 OFFCURVE",
"81 0 CURVE"
);
},
{
closed = 1;
nodes = (
"359 646 LINE",
"384 760 LINE",
"304 760 LINE",
"268 646 LINE"
);
}
);
width = 285;
},
{
anchors = (
{
name = bottom;
position = "{142, 0}";
},
{
name = center;
position = "{233, 285}";
}
);
layerId = "BBDB329E-CE83-4304-A6B1-53EA5ACC004E";
paths = (
{
closed = 1;
nodes = (
"229 -27 LINE",
"250 189 OFFCURVE",
"294 348 OFFCURVE",
"352 533 CURVE",
"216 533 LINE",
"148 282 OFFCURVE",
"118 193 OFFCURVE",
"44 -27 CURVE"
);
},
{
closed = 1;
nodes = (
"380 619 LINE",
"418 787 LINE",
"285 787 LINE",
"233 619 LINE"
);
}
);
width = 285;
}
);
unicode = 0069;
},
{
glyphname = idotless;
lastChange = "2019-09-05 22:37:16 +0000";
layers = (
{
anchors = (
{
name = bottom;
position = "{142, 0}";
},
{
name = ogonek;
position = "{142, 0}";
},
{
name = top;
position = "{290, 566}";
}
);
layerId = "BA196CD0-EE58-4274-B8DF-4393D3617A29";
paths = (
{
closed = 1;
nodes = (
"204 0 LINE",
"225 192 OFFCURVE",
"265 341 OFFCURVE",
"316 506 CURVE",
"236 506 LINE",
"176 285 OFFCURVE",
"145 192 OFFCURVE",
"81 0 CURVE"
);
}
);
width = 285;
},
{
anchors = (
{
name = bottom;
position = "{142, 0}";
},
{
name = ogonek;
position = "{142, 0}";
},
{
name = top;
position = "{313, 651}";
}
);
layerId = "BBDB329E-CE83-4304-A6B1-53EA5ACC004E";
paths = (
{
closed = 1;
nodes = (
"229 -27 LINE",
"250 189 OFFCURVE",
"294 348 OFFCURVE",
"352 533 CURVE",
"216 533 LINE",
"148 282 OFFCURVE",
"118 193 OFFCURVE",
"44 -27 CURVE"
);
}
);
width = 285;
}
);
unicode = 0131;
},
{
glyphname = "iota-latin";
lastChange = "2019-09-05 22:37:16 +0000";
layers = (
{
anchors = (
{
name = bottom;
position = "{128, 0}";
},
{
name = ogonek;
position = "{128, 0}";
},
{
name = top;
position = "{263, 517}";
}
);
layerId = "BA196CD0-EE58-4274-B8DF-4393D3617A29";
paths = (
{
closed = 1;
nodes = (
"274 67 LINE",
"238 67 OFFCURVE",
"229 56 OFFCURVE",
"187 79 CURVE",
"214 172 OFFCURVE",
"273 412 OFFCURVE",
"302 506 CURVE",
"221 506 LINE",
"190 389 OFFCURVE",
"173 263 OFFCURVE",
"93 44 CURVE",
"105 0 OFFCURVE",
"95 0 OFFCURVE",
"249 0 CURVE"
);
}
);
width = 337;
},
{
anchors = (
{
name = bottom;
position = "{102, 0}";
},
{
name = ogonek;
position = "{102, 0}";
},
{
name = top;
position = "{236, 517}";
}
);
layerId = "BBDB329E-CE83-4304-A6B1-53EA5ACC004E";
paths = (
{
closed = 1;
nodes = (
"286 94 LINE",
"193 96 OFFCURVE",
"207 87 OFFCURVE",
"192 96 CURVE",
"226 213 OFFCURVE",
"291 479 OFFCURVE",
"312 533 CURVE",
"175 533 LINE",
"138 406 OFFCURVE",
"127 280 OFFCURVE",
"40 47 CURVE",
"39 31 LINE",
"60 -43 OFFCURVE",
"102 -25 OFFCURVE",
"240 -27 CURVE"
);
}
);
width = 285;
}
);
unicode = 0269;
},
{
glyphname = jdotless;
lastChange = "2019-09-05 22:37:16 +0000";
layers = (
{
layerId = "BA196CD0-EE58-4274-B8DF-4393D3617A29";
paths = (
{
closed = 1;
nodes = (
"123 -132 OFFCURVE",
"118 -131 OFFCURVE",
"73 -111 CURVE",
"21 -223 LINE",
"64 -225 OFFCURVE",
"176 -231 OFFCURVE",
"213 -200 CURVE SMOOTH",
"246 -173 OFFCURVE",
"265 -121 OFFCURVE",
"300 -14 CURVE SMOOTH",
"479 520 LINE",
"393 520 LINE",
"274 118 OFFCURVE",
"233 -27 OFFCURVE",
"180 -78 CURVE SMOOTH"
);
}
);
width = 420;
},
{
layerId = "BBDB329E-CE83-4304-A6B1-53EA5ACC004E";
paths = (
{
closed = 1;
nodes = (
"121 -107 OFFCURVE",
"138 -103 OFFCURVE",
"68 -74 CURVE",
"-13 -248 LINE",
"119 -256 OFFCURVE",
"194 -251 OFFCURVE",
"233 -218 CURVE SMOOTH",
"269 -189 OFFCURVE",
"287 -149 OFFCURVE",
"332 -16 CURVE SMOOTH",
"520 547 LINE",
"379 547 LINE",
"253 124 OFFCURVE",
"215 -17 OFFCURVE",
"168 -62 CURVE SMOOTH"
);
}
);
width = 430;
}
);
unicode = 0237;
},
{
glyphname = jcrossedtail;
lastChange = "2019-09-05 22:37:16 +0000";
layers = (
{
anchors = (
{
name = _curl;
position = "{776, 459}";
},
{
name = bottom;
position = "{820, 0}";
},
{
name = top;
position = "{965, 540}";
}
);
components = (
{
name = jdotless;
transform = "{1, 0, 0, 1, 88, 4}";
}
);
layerId = "BA196CD0-EE58-4274-B8DF-4393D3617A29";
paths = (
{
closed = 1;
nodes = (
"436 85 OFFCURVE",
"405 74 OFFCURVE",
"338 67 CURVE",
"308 -45 OFFCURVE",
"228 -114 OFFCURVE",
"189 -114 CURVE SMOOTH",
"117 -114 OFFCURVE",
"161 -9 OFFCURVE",
"262 -9 CURVE SMOOTH",
"320 -9 OFFCURVE",
"350 -14 OFFCURVE",
"401 -17 CURVE SMOOTH",
"466 -21 OFFCURVE",
"550 -25 OFFCURVE",
"613 -25 CURVE",
"643 85 LINE",
"521 85 OFFCURVE",
"401 85 OFFCURVE",
"263 85 CURVE SMOOTH",
"169 85 OFFCURVE",
"90 33 OFFCURVE",
"70 -42 CURVE SMOOTH",
"16 -243 OFFCURVE",
"64 -224 OFFCURVE",
"173 -224 CURVE SMOOTH",
"325 -224 OFFCURVE",
"334 -215 OFFCURVE",
"421 42 CURVE SMOOTH"
);
}
);
width = 701;
},
{
anchors = (
{
name = _curl;
position = "{845, 459}";
},
{
name = bottom;
position = "{889, 0}";
},
{
name = top;
position = "{1033, 540}";
}
);
components = (
{
name = jdotless;
transform = "{1, 0, 0, 1, 157, 4}";
}
);
layerId = "BBDB329E-CE83-4304-A6B1-53EA5ACC004E";
paths = (
{
closed = 1;
nodes = (
"538 104 OFFCURVE",
"506 104 OFFCURVE",
"411 94 CURVE",
"380 67 LINE",
"359 -8 OFFCURVE",
"297 -87 OFFCURVE",
"265 -87 CURVE SMOOTH",
"234 -87 OFFCURVE",
"257 -36 OFFCURVE",
"324 -36 CURVE SMOOTH",
"379 -36 OFFCURVE",
"409 -41 OFFCURVE",
"461 -44 CURVE SMOOTH",
"535 -49 OFFCURVE",
"636 -53 OFFCURVE",
"702 -52 CURVE",
"746 112 LINE",
"614 112 OFFCURVE",
"488 112 OFFCURVE",
"339 112 CURVE SMOOTH",
"230 112 OFFCURVE",
"135 48 OFFCURVE",
"111 -42 CURVE SMOOTH",
"46 -284 OFFCURVE",
"132 -251 OFFCURVE",
"235 -251 CURVE SMOOTH",
"406 -251 OFFCURVE",
"426 -227 OFFCURVE",
"517 40 CURVE SMOOTH"
);
}
);
width = 837;
}
);
unicode = 029D;
},
{
color = 7;
glyphname = k;
lastChange = "2019-09-05 23:19:43 +0000";
layers = (
{
anchors = (
{
name = bottom;
position = "{272, 0}";
},
{
name = top;
position = "{483, 807}";
},
{
name = top_hook;
position = "{262, 378}";
}
);
layerId = "BA196CD0-EE58-4274-B8DF-4393D3617A29";
paths = (
{
closed = 1;
nodes = (
"202 0 LINE",
"261 255 LINE",
"379 0 LINE",
"586 0 LINE",
"352 299 LINE",
"570 500 LINE",
"472 502 LINE",
"276 331 LINE",
"427 793 LINE",
"336 793 LINE",
"81 0 LINE"
);
}
);
width = 667;
},
{
anchors = (
{
name = bottom;
position = "{272, 0}";
},
{
name = top;
position = "{548, 800}";
},
{
name = top_hook;
position = "{262, 378}";
}
);
layerId = "BBDB329E-CE83-4304-A6B1-53EA5ACC004E";
paths = (
{
closed = 1;
nodes = (
"223 -27 LINE",
"268 167 LINE",
"357 -27 LINE",
"646 -27 LINE",
"390 301 LINE",
"634 526 LINE",
"467 529 LINE",
"328 408 LINE",
"463 820 LINE",
"317 820 LINE",
"45 -27 LINE"
);
}
);
width = 667;
}
);
unicode = 006B;
},
{
color = 7;
glyphname = l;
lastChange = "2019-09-05 23:20:02 +0000";
layers = (
{
anchors = (
{
name = bottom;
position = "{200, 0}";
},
{
name = center;
position = "{251, 400}";
},
{
name = dot;
position = "{337, 406}";
},
{
name = ezh;
position = "{293, 547}";
},
{
name = right;
position = "{407, 487}";
},
{
name = right_el;
position = "{518, 538}";
},
{
name = top;
position = "{373, 783}";
},
{
name = topright;
position = "{438, 641}";
}
);
layerId = "BA196CD0-EE58-4274-B8DF-4393D3617A29";
paths = (
{
closed = 1;
nodes = (
"313 0 LINE",
"327 111 LINE",
"206 111 LINE",
"210 124 OFFCURVE",
"328 544 OFFCURVE",
"419 784 CURVE",
"333 784 LINE",
"230 506 OFFCURVE",
"111 111 OFFCURVE",
"81 0 CURVE"
);
}
);
width = 394;
},
{
anchors = (
{
name = bottom;
position = "{156, -38}";
},
{
name = center;
position = "{251, 400}";
},
{
name = dot;
position = "{337, 406}";
},
{
name = ezh;
position = "{293, 547}";
},
{
name = right;
position = "{407, 487}";
},
{
name = right_el;
position = "{518, 538}";
},
{
name = top;
position = "{399, 822}";
},
{
name = topright;
position = "{438, 641}";
}
);
layerId = "BBDB329E-CE83-4304-A6B1-53EA5ACC004E";
paths = (
{
closed = 1;
nodes = (
"337 -27 LINE",
"357 138 LINE",
"241 138 LINE",
"271 241 OFFCURVE",
"377 610 OFFCURVE",
"457 811 CURVE",
"316 811 LINE",
"197 499 OFFCURVE",
"55 17 OFFCURVE",
"47 -27 CURVE"
);
}
);
width = 394;
}
);
unicode = 006C;
},
{
glyphname = lbelt;
lastChange = "2019-09-05 22:37:16 +0000";
layers = (
{
anchors = (
{
name = _curl;
position = "{855, 459}";
},
{
name = bottom;
position = "{899, 0}";
},
{
name = top;
position = "{1044, 540}";
}
);
components = (
{
name = l;
transform = "{1, 0, 0, 1, 200, 0}";
}
);
layerId = "BA196CD0-EE58-4274-B8DF-4393D3617A29";
paths = (
{
closed = 1;
nodes = (
"705 398 LINE",
"634 398 OFFCURVE",
"574 401 OFFCURVE",
"462 401 CURVE SMOOTH",
"365 401 OFFCURVE",
"295 462 OFFCURVE",
"306 501 CURVE SMOOTH",
"308 510 OFFCURVE",
"314 518 OFFCURVE",
"323 524 CURVE SMOOTH",
"343 536 OFFCURVE",
"361 543 OFFCURVE",
"375 543 CURVE SMOOTH",
"402 543 OFFCURVE",
"432 517 OFFCURVE",
"416 456 CURVE SMOOTH",
"401 399 OFFCURVE",
"382 346 OFFCURVE",
"365 294 CURVE SMOOTH",
"343 229 OFFCURVE",
"322 167 OFFCURVE",
"306 104 CURVE",
"401 104 LINE",
"433 225 OFFCURVE",
"465 344 OFFCURVE",
"501 480 CURVE SMOOTH",
"526 573 OFFCURVE",
"491 638 OFFCURVE",
"415 638 CURVE SMOOTH",
"384 638 OFFCURVE",
"339 633 OFFCURVE",
"296 608 CURVE SMOOTH",
"236 573 OFFCURVE",
"208 524 OFFCURVE",
"215 456 CURVE SMOOTH",
"230 313 OFFCURVE",
"384 292 OFFCURVE",
"676 290 CURVE"
);
}
);
width = 679;
},
{
anchors = (
{
name = _curl;
position = "{855, 459}";
},
{
name = bottom;
position = "{899, 0}";
},
{
name = top;
position = "{1044, 540}";
}
);
components = (
{
name = l;
transform = "{1, 0, 0, 1, 200, 0}";
}
);
layerId = "BBDB329E-CE83-4304-A6B1-53EA5ACC004E";
paths = (
{
closed = 1;
nodes = (
"739 425 LINE",
"656 424 OFFCURVE",
"595 428 OFFCURVE",
"469 428 CURVE SMOOTH",
"403 428 OFFCURVE",
"326 473 OFFCURVE",
"333 501 CURVE SMOOTH",
"335 506 OFFCURVE",
"331 501 OFFCURVE",
"333 502 CURVE",
"349 512 OFFCURVE",
"359 516 OFFCURVE",
"368 516 CURVE SMOOTH",
"388 516 OFFCURVE",
"398 492 OFFCURVE",
"389 456 CURVE SMOOTH",
"374 400 OFFCURVE",
"355 347 OFFCURVE",
"338 296 CURVE SMOOTH",
"313 222 OFFCURVE",
"290 150 OFFCURVE",
"271 77 CURVE",
"421 77 LINE",
"456 208 OFFCURVE",
"489 333 OFFCURVE",
"529 480 CURVE SMOOTH",
"558 588 OFFCURVE",
"514 665 OFFCURVE",
"423 665 CURVE SMOOTH",
"374 665 OFFCURVE",
"325 653 OFFCURVE",
"287 630 CURVE SMOOTH",
"213 587 OFFCURVE",
"179 524 OFFCURVE",
"187 447 CURVE SMOOTH",
"204 284 OFFCURVE",
"386 264 OFFCURVE",
"696 263 CURVE"
);
}
);
width = 679;
}
);
unicode = 026C;
},
{
glyphname = lezh;
lastChange = "2019-09-05 22:37:16 +0000";
layers = (
{
components = (
{
name = l;
},
{
name = ezh;
transform = "{1, 0, 0, 1, 74, -76}";
}
);
layerId = "BA196CD0-EE58-4274-B8DF-4393D3617A29";
paths = (
{
closed = 1;
nodes = (
"327 111 LINE",
"313 0 LINE",
"263 0 LINE",
"212 111 LINE"
);
}
);
width = 787;
},
{
components = (
{
name = l;
},
{
name = ezh;
transform = "{1, 0, 0, 1, 74, -76}";
}
);
layerId = "BBDB329E-CE83-4304-A6B1-53EA5ACC004E";
paths = (
{
closed = 1;
nodes = (
"357 138 LINE",
"337 -27 LINE",
"225 -27 LINE",
"241 138 LINE"
);
}
);
width = 787;
}
);
unicode = 026E;
},
{
glyphname = lhookretroflex;
lastChange = "2019-09-05 23:20:21 +0000";
layers = (
{
anchors = (
{
name = bottom;
position = "{140, 0}";
},
{
name = center;
position = "{321, 400}";
},
{
name = dot;
position = "{354, 406}";
},
{
name = top;
position = "{350, 685}";
},
{
name = topright;
position = "{456, 641}";
}
);
layerId = "BA196CD0-EE58-4274-B8DF-4393D3617A29";
paths = (
{
closed = 1;
nodes = (
"310 -245 OFFCURVE",
"400 -258 OFFCURVE",
"485 20 CURVE",
"366 0 LINE",
"321 -168 OFFCURVE",
"167 -163 OFFCURVE",
"197 -55 CURVE SMOOTH",
"253 150 OFFCURVE",
"380 637 OFFCURVE",
"436 784 CURVE",
"350 784 LINE",
"285 608 OFFCURVE",
"158 226 OFFCURVE",
"68 -55 CURVE SMOOTH",
"47 -122 OFFCURVE",
"8 -245 OFFCURVE",
"75 -245 CURVE SMOOTH"
);
}
);
width = 561;
},
{
anchors = (
{
name = bottom;
position = "{140, 0}";
},
{
name = center;
position = "{321, 400}";
},
{
name = dot;
position = "{354, 406}";
},
{
name = top;
position = "{350, 685}";
},
{
name = topright;
position = "{456, 641}";
}
);
layerId = "BBDB329E-CE83-4304-A6B1-53EA5ACC004E";
paths = (
{
closed = 1;
nodes = (
"343 22 LINE",
"315 -130 OFFCURVE",
"203 -132 OFFCURVE",
"225 -55 CURVE SMOOTH",
"285 168 OFFCURVE",
"429 723 OFFCURVE",
"476 811 CURVE",
"333 811 LINE",
"272 648 OFFCURVE",
"135 241 OFFCURVE",
"41 -54 CURVE SMOOTH",
"-1 -188 OFFCURVE",
"-8 -272 OFFCURVE",
"68 -272 CURVE SMOOTH",
"309 -272 OFFCURVE",
"425 -290 OFFCURVE",
"522 52 CURVE"
);
}
);
width = 561;
}
);
unicode = 026D;
},
{
glyphname = lsdigraph;
lastChange = "2019-09-05 22:37:16 +0000";
layers = (
{
components = (
{
name = l;
},
{
name = s;
transform = "{1, 0, 0, 1, 234, 9}";
}
);
layerId = "BA196CD0-EE58-4274-B8DF-4393D3617A29";
paths = (
{
closed = 1;
nodes = (
"129 0 LINE",
"581 0 LINE",
"611 112 LINE",
"159 112 LINE"
);
}
);
width = 867;
},
{
components = (
{
name = l;
},
{
name = s;
transform = "{1, 0, 0, 1, 234, 9}";
}
);
layerId = "BBDB329E-CE83-4304-A6B1-53EA5ACC004E";
paths = (
{
closed = 1;
nodes = (
"95 -27 LINE",
"601 -27 LINE",
"645 139 LINE",
"139 139 LINE"
);
}
);
width = 867;
}
);
unicode = 02AA;
},
{
glyphname = lzdigraph;
lastChange = "2019-09-05 22:37:16 +0000";
layers = (
{
components = (
{
name = l;
},
{
name = z;
transform = "{1, 0, 0, 1, 189, -1}";
}
);
layerId = "BA196CD0-EE58-4274-B8DF-4393D3617A29";
paths = (
{
closed = 1;
nodes = (
"315 111 LINE",
"265 0 LINE",
"229 0 LINE",
"247 111 LINE"
);
},
{
closed = 1;
nodes = (
"270 482 LINE",
"503 482 LINE",
"521 549 LINE",
"287 549 LINE"
);
}
);
width = 867;
},
{
components = (
{
name = l;
},
{
name = z;
transform = "{1, 0, 0, 1, 189, -1}";
}
);
layerId = "BBDB329E-CE83-4304-A6B1-53EA5ACC004E";
paths = (
{
closed = 1;
nodes = (
"275 84 LINE",
"249 27 LINE",
"261 27 LINE",
"270 84 LINE"
);
},
{
closed = 1;
nodes = (
"235 455 LINE",
"523 455 LINE",
"555 576 LINE",
"267 576 LINE"
);
}
);
width = 867;
}
);
unicode = 02AB;
},
{
color = 7;
glyphname = m;
lastChange = "2019-09-05 22:37:16 +0000";
layers = (
{
anchors = (
{
name = bottom;
position = "{517, 0}";
},
{
name = center;
position = "{624, 279}";
},
{
name = eng;
position = "{894, 11}";
},
{
name = top;
position = "{730, 560}";
}
);
layerId = "BA196CD0-EE58-4274-B8DF-4393D3617A29";
paths = (
{
closed = 1;
nodes = (
"692 519 OFFCURVE",
"636 560 OFFCURVE",
"555 560 CURVE SMOOTH",
"475 560 OFFCURVE",
"410 529 OFFCURVE",
"351 462 CURVE",
"384 547 LINE",
"293 547 LINE",
"81 0 LINE",
"207 0 LINE",
"328 353 LINE",
"408 491 OFFCURVE",
"435 501 OFFCURVE",
"528 501 CURVE SMOOTH",
"606 501 OFFCURVE",
"621 416 OFFCURVE",
"602 347 CURVE",
"437 0 LINE",
"563 0 LINE",
"688 309 LINE SMOOTH",
"735 425 OFFCURVE",
"791 497 OFFCURVE",
"886 497 CURVE SMOOTH",
"962 497 OFFCURVE",
"971 447 OFFCURVE",
"943 342 CURVE",
"817 0 LINE",
"953 0 LINE",
"1031 330 LINE SMOOTH",
"1052 421 OFFCURVE",
"1028 560 OFFCURVE",
"913 560 CURVE SMOOTH",
"828 560 OFFCURVE",
"765 522 OFFCURVE",
"698 442 CURVE"
);
}
);
width = 1034;
},
{
anchors = (
{
name = bottom;
position = "{517, 0}";
},
{
name = center;
position = "{624, 279}";
},
{
name = eng;
position = "{894, 11}";
},
{
name = top;
position = "{730, 560}";
}
);
layerId = "BBDB329E-CE83-4304-A6B1-53EA5ACC004E";
paths = (
{
closed = 1;
nodes = (
"694 554 OFFCURVE",
"639 587 OFFCURVE",
"562 587 CURVE SMOOTH",
"507 587 OFFCURVE",
"457 573 OFFCURVE",
"410 544 CURVE",
"421 574 LINE",
"276 574 LINE",
"43 -27 LINE",
"225 -27 LINE",
"354 348 LINE",
"422 465 OFFCURVE",
"436 474 OFFCURVE",
"521 474 CURVE SMOOTH",
"570 474 OFFCURVE",
"593 420 OFFCURVE",
"576 350 CURVE",
"397 -27 LINE",
"580 -27 LINE",
"714 305 LINE SMOOTH",
"762 424 OFFCURVE",
"809 470 OFFCURVE",
"878 470 CURVE SMOOTH",
"932 470 OFFCURVE",
"943 442 OFFCURVE",
"916 343 CURVE",
"780 -27 LINE",
"974 -27 LINE",
"1058 331 LINE SMOOTH",
"1090 469 OFFCURVE",
"1029 587 OFFCURVE",
"920 587 CURVE SMOOTH",
"843 587 OFFCURVE",
"779 559 OFFCURVE",
"716 497 CURVE"
);
}
);
width = 1034;
}
);
unicode = 006D;
},
{
glyphname = mlonglegturned;
lastChange = "2019-09-05 22:37:16 +0000";
layers = (
{
components = (
{
name = mturned;
}
);
layerId = "BA196CD0-EE58-4274-B8DF-4393D3617A29";
paths = (
{
closed = 1;
nodes = (
"728 -200 LINE",
"838 -200 LINE",
"1080 496 LINE",
"955 496 LINE"
);
}
);
width = 1034;
},
{
components = (
{
name = mturned;
transform = "{1, 0, 0, 1, 2, 0}";
}
);
layerId = "BBDB329E-CE83-4304-A6B1-53EA5ACC004E";
paths = (
{
closed = 1;
nodes = (
"694 -227 LINE",
"858 -227 LINE",
"1119 523 LINE",
"939 523 LINE"
);
}
);
width = 1038;
}
);
unicode = 0270;
},
{
color = 7;
glyphname = n;
lastChange = "2019-09-05 23:21:09 +0000";
layers = (
{
anchors = (
{
name = bottom;
position = "{324, 0}";
},
{
name = center;
position = "{455, 262}";
},
{
name = eng;
position = "{535, 19}";
},
{
name = top;
position = "{475, 585}";
},
{
name = topright;
position = "{862, 726}";
}
);
layerId = "BA196CD0-EE58-4274-B8DF-4393D3617A29";
paths = (
{
closed = 1;
nodes = (
"220 0 LINE",
"280 314 LINE SMOOTH",
"300 419 OFFCURVE",
"376 482 OFFCURVE",
"487 482 CURVE SMOOTH",
"567 482 OFFCURVE",
"613 439 OFFCURVE",
"577 339 CURVE SMOOTH",
"455 0 LINE",
"595 0 LINE",
"659 323 LINE SMOOTH",
"694 497 OFFCURVE",
"643 555 OFFCURVE",
"516 555 CURVE SMOOTH",
"440 555 OFFCURVE",
"389 524 OFFCURVE",
"338 495 CURVE",
"337 556 LINE",
"270 556 LINE",
"81 0 LINE"
);
}
);
width = 676;
},
{
anchors = (
{
name = bottom;
position = "{324, 0}";
},
{
name = center;
position = "{434, 272}";
},
{
name = eng;
position = "{535, 19}";
},
{
name = top;
position = "{499, 653}";
},
{
name = topright;
position = "{862, 726}";
}
);
layerId = "BBDB329E-CE83-4304-A6B1-53EA5ACC004E";
paths = (
{
closed = 1;
nodes = (
"723 503 OFFCURVE",
"673 582 OFFCURVE",
"524 582 CURVE SMOOTH",
"458 582 OFFCURVE",
"408 561 OFFCURVE",
"365 538 CURVE",
"365 583 LINE",
"252 583 LINE",
"44 -27 LINE",
"242 -27 LINE",
"308 316 LINE SMOOTH",
"325 406 OFFCURVE",
"386 455 OFFCURVE",
"479 455 CURVE SMOOTH",
"553 455 OFFCURVE",
"577 417 OFFCURVE",
"550 341 CURVE SMOOTH",
"417 -27 LINE",
"617 -27 LINE",
"687 325 LINE SMOOTH"
);
}
);
width = 676;
}
);
unicode = 006E;
},
{
glyphname = nhookleft;
lastChange = "2019-09-05 22:37:16 +0000";
layers = (
{
components = (
{
name = n;
transform = "{1, 0, 0, 1, 83, 0}";
}
);
layerId = "BA196CD0-EE58-4274-B8DF-4393D3617A29";
paths = (
{
closed = 1;
nodes = (
"130 -198 OFFCURVE",
"157 -198 OFFCURVE",
"196 -198 CURVE SMOOTH",
"244 -198 OFFCURVE",
"258 -145 OFFCURVE",
"297 0 CURVE",
"159 0 LINE",
"137 -79 OFFCURVE",
"133 -90 OFFCURVE",
"57 -90 CURVE",
"28 -198 LINE"
);
}
);
width = 759;
},
{
components = (
{
name = n;
transform = "{1, 0, 0, 1, 83, 0}";
}
);
layerId = "BBDB329E-CE83-4304-A6B1-53EA5ACC004E";
paths = (
{
closed = 1;
nodes = (
"118 -225 OFFCURVE",
"147 -225 OFFCURVE",
"189 -225 CURVE SMOOTH",
"264 -225 OFFCURVE",
"282 -157 OFFCURVE",
"331 27 CURVE",
"139 27 LINE",
"106 -92 OFFCURVE",
"123 -57 OFFCURVE",
"36 -64 CURVE",
"-7 -225 LINE"
);
}
);
width = 759;
}
);
unicode = 0272;
},
{
glyphname = nhookretroflex;
lastChange = "2019-09-05 22:37:16 +0000";
layers = (
{
anchors = (
{
name = _bottom_hook;
position = "{1079, 380}";
}
);
components = (
{
name = n;
}
);
layerId = "BA196CD0-EE58-4274-B8DF-4393D3617A29";
paths = (
{
closed = 1;
nodes = (
"644 -87 LINE",
"568 -87 OFFCURVE",
"569 -76 OFFCURVE",
"591 3 CURVE",
"452 3 LINE",
"413 -142 OFFCURVE",
"399 -195 OFFCURVE",
"447 -195 CURVE SMOOTH",
"486 -195 OFFCURVE",
"513 -195 OFFCURVE",
"615 -195 CURVE"
);
}
);
width = 748;
},
{
anchors = (
{
name = _bottom_hook;
position = "{1080, 380}";
}
);
components = (
{
name = n;
}
);
layerId = "BBDB329E-CE83-4304-A6B1-53EA5ACC004E";
paths = (
{
closed = 1;
nodes = (
"679 -61 LINE",
"596 -54 OFFCURVE",
"594 -89 OFFCURVE",
"625 30 CURVE",
"432 30 LINE",
"383 -154 OFFCURVE",
"365 -222 OFFCURVE",
"439 -222 CURVE SMOOTH",
"482 -222 OFFCURVE",
"510 -222 OFFCURVE",
"635 -222 CURVE"
);
}
);
width = 748;
}
);
unicode = 0273;
},
{
color = 7;
glyphname = o;
lastChange = "2019-09-06 20:04:10 +0000";
layers = (
{
anchors = (
{
name = _;
position = "{483, 555}";
},
{
name = bottom;
position = "{334, 0}";
},
{
name = center;
position = "{452, 277}";
},
{
name = dotbelow;
position = "{331, -35}";
},
{
name = horn;
position = "{671, 435}";
},
{
name = ogonek;
position = "{601, 10}";
},
{
name = top;
position = "{495, 599}";
},
{
name = topright;
position = "{777, 500}";
}
);
layerId = "BA196CD0-EE58-4274-B8DF-4393D3617A29";
paths = (
{
closed = 1;
nodes = (
"488 -14 OFFCURVE",
"613 94 OFFCURVE",
"661 273 CURVE SMOOTH",
"706 442 OFFCURVE",
"639 549 OFFCURVE",
"481 549 CURVE SMOOTH",
"323 549 OFFCURVE",
"199 442 OFFCURVE",
"154 273 CURVE SMOOTH",
"106 94 OFFCURVE",
"172 -14 OFFCURVE",
"331 -14 CURVE SMOOTH"
);
},
{
closed = 1;
nodes = (
"256 141 OFFCURVE",
"220 161 OFFCURVE",
"254 289 CURVE SMOOTH",
"285 405 OFFCURVE",
"367 483 OFFCURVE",
"464 483 CURVE SMOOTH",
"561 483 OFFCURVE",
"600 403 OFFCURVE",
"569 289 CURVE SMOOTH",
"536 163 OFFCURVE",
"508 141 OFFCURVE",
"372 141 CURVE SMOOTH"
);
}
);
width = 669;
},
{
anchors = (
{
name = _;
position = "{489, 652}";
},
{
name = bottom;
position = "{339, 17}";
},
{
name = center;
position = "{439, 278}";
},
{
name = dotbelow;
position = "{319, -59}";
},
{
name = horn;
position = "{671, 435}";
},
{
name = ogonek;
position = "{601, 10}";
},
{
name = top;
position = "{493, 669}";
},
{
name = topright;
position = "{777, 500}";
}
);
layerId = "BBDB329E-CE83-4304-A6B1-53EA5ACC004E";
paths = (
{
closed = 1;
nodes = (
"497 -41 OFFCURVE",
"637 80 OFFCURVE",
"688 273 CURVE SMOOTH",
"738 458 OFFCURVE",
"660 576 OFFCURVE",
"489 576 CURVE SMOOTH",
"317 576 OFFCURVE",
"176 458 OFFCURVE",
"127 273 CURVE SMOOTH",
"75 79 OFFCURVE",
"150 -41 OFFCURVE",
"323 -41 CURVE SMOOTH"
);
},
{
closed = 1;
nodes = (
"269 168 OFFCURVE",
"254 185 OFFCURVE",
"281 289 CURVE SMOOTH",
"309 393 OFFCURVE",
"377 456 OFFCURVE",
"456 456 CURVE SMOOTH",
"535 456 OFFCURVE",
"570 392 OFFCURVE",
"542 289 CURVE SMOOTH",
"513 179 OFFCURVE",
"500 168 OFFCURVE",
"379 168 CURVE SMOOTH"
);
}
);
width = 669;
}
);
leftKerningGroup = Round;
rightKerningGroup = RoundRight;
unicode = 006F;
},
{
color = 7;
glyphname = p;
lastChange = "2019-09-05 22:37:17 +0000";
layers = (
{
anchors = (
{
name = bottom;
position = "{370, 0}";
},
{
name = center;
position = "{138, -97}";
},
{
name = top;
position = "{504, 500}";
},
{
name = top_hook;
position = "{244, 202}";
}
);
hints = (
{
place = "{142, 116}";
type = Stem;
},
{
horizontal = 1;
place = "{502, 64}";
type = Stem;
},
{
horizontal = 1;
place = "{-3, 141}";
type = Stem;
},
{
place = "{568, 64}";
type = Stem;
}
);
layerId = "BA196CD0-EE58-4274-B8DF-4393D3617A29";
paths = (
{
closed = 1;
nodes = (
"296 17 OFFCURVE",
"347 -14 OFFCURVE",
"428 -14 CURVE SMOOTH",
"562 -14 OFFCURVE",
"685 101 OFFCURVE",
"731 273 CURVE SMOOTH",
"775 438 OFFCURVE",
"714 553 OFFCURVE",
"579 553 CURVE SMOOTH",
"499 553 OFFCURVE",
"432 522 OFFCURVE",
"377 457 CURVE",
"379 532 LINE",
"288 532 LINE",
"225 237 LINE",
"24 -212 LINE",
"156 -204 LINE",
"276 82 LINE"
);
},
{
closed = 1;
nodes = (
"641 156 OFFCURVE",
"581 134 OFFCURVE",
"485 134 CURVE SMOOTH",
"389 134 OFFCURVE",
"333 156 OFFCURVE",
"368 289 CURVE SMOOTH",
"402 414 OFFCURVE",
"481 493 OFFCURVE",
"576 493 CURVE SMOOTH",
"673 493 OFFCURVE",
"710 414 OFFCURVE",
"676 289 CURVE SMOOTH"
);
}
);
width = 738;
},
{
anchors = (
{
name = bottom;
position = "{370, 0}";
},
{
name = center;
position = "{101, -150}";
},
{
name = top;
position = "{544, 587}";
},
{
name = top_hook;
position = "{244, 202}";
}
);
hints = (
{
place = "{142, 116}";
type = Stem;
},
{
horizontal = 1;
place = "{502, 64}";
type = Stem;
},
{
horizontal = 1;
place = "{-3, 141}";
type = Stem;
},
{
place = "{568, 64}";
type = Stem;
}
);
layerId = "BBDB329E-CE83-4304-A6B1-53EA5ACC004E";
paths = (
{
closed = 1;
nodes = (
"306 -22 OFFCURVE",
"355 -41 OFFCURVE",
"420 -41 CURVE SMOOTH",
"571 -41 OFFCURVE",
"708 87 OFFCURVE",
"758 273 CURVE SMOOTH",
"806 453 OFFCURVE",
"736 580 OFFCURVE",
"587 580 CURVE SMOOTH",
"519 580 OFFCURVE",
"458 559 OFFCURVE",
"407 519 CURVE",
"407 559 LINE",
"266 559 LINE",
"198 239 LINE",
"-17 -241 LINE",
"173 -230 LINE",
"276 16 LINE"
);
},
{
closed = 1;
nodes = (
"621 186 OFFCURVE",
"590 161 OFFCURVE",
"493 161 CURVE SMOOTH",
"392 161 OFFCURVE",
"369 189 OFFCURVE",
"396 289 CURVE SMOOTH",
"426 401 OFFCURVE",
"490 466 OFFCURVE",
"569 466 CURVE SMOOTH",
"649 466 OFFCURVE",
"679 401 OFFCURVE",
"649 289 CURVE SMOOTH"
);
}
);
width = 738;
}
);
rightKerningGroup = RoundRight;
unicode = 0070;
},
{
glyphname = thorn;
lastChange = "2019-09-05 22:37:17 +0000";
layers = (
{
layerId = "BA196CD0-EE58-4274-B8DF-4393D3617A29";
paths = (
{
closed = 1;
nodes = (
"49 -180 LINE",
"138 -180 LINE",
"384 800 LINE",
"295 800 LINE"
);
},
{
closed = 1;
nodes = (
"312 50 OFFCURVE",
"521 151 OFFCURVE",
"584 371 CURVE SMOOTH",
"631 535 OFFCURVE",
"473 636 OFFCURVE",
"328 636 CURVE",
"226 498 OFFCURVE",
"136 188 OFFCURVE",
"166 50 CURVE"
);
},
{
closed = 1;
nodes = (
"188 137 OFFCURVE",
"168 235 OFFCURVE",
"209 375 CURVE SMOOTH",
"233 460 OFFCURVE",
"301 559 OFFCURVE",
"355 559 CURVE SMOOTH",
"407 559 OFFCURVE",
"538 460 OFFCURVE",
"514 375 CURVE SMOOTH",
"473 235 OFFCURVE",
"294 137 OFFCURVE",
"242 137 CURVE SMOOTH"
);
}
);
width = 566;
},
{
layerId = "BBDB329E-CE83-4304-A6B1-53EA5ACC004E";
paths = (
{
closed = 1;
nodes = (
"14 -207 LINE",
"158 -207 LINE",
"419 827 LINE",
"275 827 LINE"
);
},
{
closed = 1;
nodes = (
"159 23 LINE",
"360 23 OFFCURVE",
"554 171 OFFCURVE",
"611 371 CURVE SMOOTH",
"657 528 OFFCURVE",
"526 663 OFFCURVE",
"335 663 CURVE",
"307 647 LINE",
"196 497 OFFCURVE",
"108 179 OFFCURVE",
"138 38 CURVE"
);
},
{
closed = 1;
nodes = (
"213 164 OFFCURVE",
"203 261 OFFCURVE",
"236 374 CURVE SMOOTH",
"259 453 OFFCURVE",
"317 532 OFFCURVE",
"348 532 CURVE SMOOTH",
"407 532 OFFCURVE",
"501 427 OFFCURVE",
"487 376 CURVE SMOOTH",
"450 250 OFFCURVE",
"293 164 OFFCURVE",
"249 164 CURVE SMOOTH"
);
}
);
width = 566;
}
);
unicode = 00FE;
},
{
color = 7;
glyphname = q;
lastChange = "2019-09-05 22:37:17 +0000";
layers = (
{
associatedMasterId = "BA196CD0-EE58-4274-B8DF-4393D3617A29";
layerId = "550EFC85-22CC-4D43-B167-1DAEAAA2FB65";
name = "Regular May 31 12, 16:28";
paths = (
{
closed = 1;
nodes = (
"157 153 OFFCURVE",
"212 136 OFFCURVE",
"308 136 CURVE SMOOTH",
"403 136 OFFCURVE",
"463 153 OFFCURVE",
"463 286 CURVE SMOOTH",
"463 418 OFFCURVE",
"405 498 OFFCURVE",
"310 498 CURVE SMOOTH",
"215 498 OFFCURVE",
"157 418 OFFCURVE",
"157 286 CURVE SMOOTH"
);
},
{
closed = 1;
nodes = (
"497 82 LINE",
"459 17 OFFCURVE",
"402 -14 OFFCURVE",
"321 -14 CURVE SMOOTH",
"189 -14 OFFCURVE",
"98 101 OFFCURVE",
"98 273 CURVE SMOOTH",
"98 445 OFFCURVE",
"189 560 OFFCURVE",
"321 560 CURVE SMOOTH",
"402 560 OFFCURVE",
"459 529 OFFCURVE",
"497 464 CURVE",
"511 547 LINE",
"598 547 LINE",
"561 -118 LINE SMOOTH",
"557 -208 LINE",
"474 -208 LINE"
);
}
);
width = 718;
},
{
anchors = (
{
name = bottom;
position = "{389, 0}";
},
{
name = bottom_hook;
position = "{527, -127}";
},
{
name = top;
position = "{523, 500}";
},
{
name = top_hook;
position = "{594, 218}";
}
);
layerId = "BA196CD0-EE58-4274-B8DF-4393D3617A29";
paths = (
{
closed = 1;
nodes = (
"253 418 OFFCURVE",
"328 492 OFFCURVE",
"425 492 CURVE SMOOTH",
"521 492 OFFCURVE",
"562 418 OFFCURVE",
"527 286 CURVE SMOOTH",
"491 153 OFFCURVE",
"426 137 OFFCURVE",
"330 137 CURVE",
"234 137 OFFCURVE",
"182 153 OFFCURVE",
"218 286 CURVE SMOOTH"
);
},
{
closed = 1;
nodes = (
"653 -140 LINE",
"692 -20 LINE",
"597 -50 LINE",
"521 -70 LINE",
"601 186 LINE",
"733 547 LINE",
"646 547 LINE",
"613 427 LINE",
"582 512 OFFCURVE",
"549 554 OFFCURVE",
"452 554 CURVE SMOOTH",
"319 554 OFFCURVE",
"200 445 OFFCURVE",
"154 273 CURVE SMOOTH",
"108 101 OFFCURVE",
"170 -14 OFFCURVE",
"303 -14 CURVE SMOOTH",
"384 -14 OFFCURVE",
"450 17 OFFCURVE",
"506 82 CURVE",
"401 -208 LINE"
);
}
);
width = 778;
},
{
associatedMasterId = "BBDB329E-CE83-4304-A6B1-53EA5ACC004E";
layerId = "5892CAD6-04FA-4732-8FAB-EB7591270E8A";
name = "Regular May 31 12, 16:28";
paths = (
{
closed = 1;
nodes = (
"157 153 OFFCURVE",
"212 136 OFFCURVE",
"308 136 CURVE SMOOTH",
"403 136 OFFCURVE",
"463 153 OFFCURVE",
"463 286 CURVE SMOOTH",
"463 418 OFFCURVE",
"405 498 OFFCURVE",
"310 498 CURVE SMOOTH",
"215 498 OFFCURVE",
"157 418 OFFCURVE",
"157 286 CURVE SMOOTH"
);
},
{
closed = 1;
nodes = (
"497 82 LINE",
"459 17 OFFCURVE",
"402 -14 OFFCURVE",
"321 -14 CURVE SMOOTH",
"189 -14 OFFCURVE",
"98 101 OFFCURVE",
"98 273 CURVE SMOOTH",
"98 445 OFFCURVE",
"189 560 OFFCURVE",
"321 560 CURVE SMOOTH",
"402 560 OFFCURVE",
"459 529 OFFCURVE",
"497 464 CURVE",
"511 547 LINE",
"598 547 LINE",
"561 -118 LINE SMOOTH",
"557 -208 LINE",
"474 -208 LINE"
);
}
);
width = 718;
},
{
anchors = (
{
name = bottom;
position = "{389, 0}";
},
{
name = bottom_hook;
position = "{527, -127}";
},
{
name = top;
position = "{523, 500}";
},
{
name = top_hook;
position = "{594, 218}";
}
);
layerId = "BBDB329E-CE83-4304-A6B1-53EA5ACC004E";
paths = (
{
closed = 1;
nodes = (
"277 404 OFFCURVE",
"337 465 OFFCURVE",
"417 465 CURVE SMOOTH",
"499 465 OFFCURVE",
"530 400 OFFCURVE",
"500 286 CURVE SMOOTH",
"474 188 OFFCURVE",
"440 164 OFFCURVE",
"337 164 CURVE SMOOTH",
"237 164 OFFCURVE",
"219 186 OFFCURVE",
"245 286 CURVE SMOOTH"
);
},
{
closed = 1;
nodes = (
"674 -161 LINE",
"731 19 LINE",
"596 -24 LINE",
"560 -34 LINE",
"628 184 LINE",
"771 574 LINE",
"625 574 LINE",
"608 509 LINE",
"575 562 OFFCURVE",
"531 581 OFFCURVE",
"460 581 CURVE SMOOTH",
"309 581 OFFCURVE",
"176 457 OFFCURVE",
"127 273 CURVE SMOOTH",
"77 88 OFFCURVE",
"146 -41 OFFCURVE",
"296 -41 CURVE SMOOTH",
"353 -41 OFFCURVE",
"404 -27 OFFCURVE",
"449 2 CURVE",
"360 -245 LINE"
);
}
);
width = 778;
}
);
leftKerningGroup = Round;
unicode = 0071;
},
{
glyphname = qhooktail;
lastChange = "2019-09-05 22:37:17 +0000";
layers = (
{
components = (
{
name = q;
},
{
name = od_bottom_wide_hook;
transform = "{0.84741, 0.53094, -0.53094, 0.84741, 457, -516}";
}
);
layerId = "BA196CD0-EE58-4274-B8DF-4393D3617A29";
paths = (
{
closed = 1;
nodes = (
"521 -70 LINE",
"597 -50 LINE",
"692 -20 LINE",
"653 -140 LINE",
"401 -208 LINE",
"462 -39 LINE",
"534 -20 LINE"
);
}
);
width = 883;
},
{
components = (
{
name = q;
transform = "{1, 0, 0, 1, -53, 0}";
},
{
name = od_bottom_wide_hook;
transform = "{0.85655, 0.51607, -0.51607, 0.85655, 407, -440}";
}
);
layerId = "BBDB329E-CE83-4304-A6B1-53EA5ACC004E";
paths = (
{
closed = 1;
nodes = (
"431 -106 LINE",
"545 -76 LINE",
"599 -59 LINE",
"580 -119 LINE",
"389 -171 LINE",
"429 -60 LINE",
"445 -56 LINE"
);
}
);
width = 778;
}
);
unicode = 024B;
},
{
color = 7;
glyphname = r;
lastChange = "2019-09-05 22:37:17 +0000";
layers = (
{
anchors = (
{
name = bottom;
position = "{174, 0}";
},
{
name = bottom_wide;
position = "{205, 0}";
},
{
name = center;
position = "{240, 274}";
},
{
name = top;
position = "{370, 547}";
}
);
layerId = "BA196CD0-EE58-4274-B8DF-4393D3617A29";
paths = (
{
closed = 1;
nodes = (
"451 543 OFFCURVE",
"418 528 OFFCURVE",
"351 486 CURVE",
"366 542 LINE",
"273 545 LINE",
"212 317 OFFCURVE",
"175 196 OFFCURVE",
"81 0 CURVE",
"254 0 LINE",
"268 164 OFFCURVE",
"290 256 OFFCURVE",
"305 314 CURVE SMOOTH",
"331 411 OFFCURVE",
"392 443 OFFCURVE",
"559 459 CURVE",
"569 549 LINE"
);
}
);
width = 517;
},
{
anchors = (
{
name = bottom;
position = "{163, -41}";
},
{
name = bottom_wide;
position = "{205, 0}";
},
{
name = center;
position = "{240, 274}";
},
{
name = top;
position = "{380, 585}";
}
);
layerId = "BBDB329E-CE83-4304-A6B1-53EA5ACC004E";
paths = (
{
closed = 1;
nodes = (
"498 573 OFFCURVE",
"450 566 OFFCURVE",
"392 537 CURVE",
"401 568 LINE",
"254 573 LINE",
"184 314 OFFCURVE",
"148 195 OFFCURVE",
"40 -27 CURVE",
"279 -27 LINE",
"293 155 OFFCURVE",
"316 253 OFFCURVE",
"333 314 CURVE SMOOTH",
"355 396 OFFCURVE",
"402 420 OFFCURVE",
"584 435 CURVE",
"600 577 LINE"
);
}
);
width = 517;
}
);
unicode = 0072;
},
{
glyphname = ramshorn;
lastChange = "2019-09-05 22:37:17 +0000";
layers = (
{
anchors = (
{
name = _curl;
position = "{334, 459}";
},
{
name = bottom;
position = "{378, 0}";
},
{
name = top;
position = "{522, 540}";
}
);
layerId = "BA196CD0-EE58-4274-B8DF-4393D3617A29";
paths = (
{
closed = 1;
nodes = (
"729 397 OFFCURVE",
"755 515 OFFCURVE",
"631 513 CURVE SMOOTH",
"503 511 OFFCURVE",
"461 427 OFFCURVE",
"370 295 CURVE SMOOTH",
"289 178 OFFCURVE",
"222 96 OFFCURVE",
"240 51 CURVE SMOOTH",
"261 0 OFFCURVE",
"283 -8 OFFCURVE",
"343 -8 CURVE SMOOTH",
"387 -8 OFFCURVE",
"442 1 OFFCURVE",
"490 51 CURVE SMOOTH",
"539 102 OFFCURVE",
"519 172 OFFCURVE",
"497 268 CURVE SMOOTH",
"469 391 OFFCURVE",
"450 511 OFFCURVE",
"362 511 CURVE SMOOTH",
"218 511 OFFCURVE",
"194 422 OFFCURVE",
"172 339 CURVE",
"234 339 LINE",
"256 422 OFFCURVE",
"272 448 OFFCURVE",
"348 448 CURVE SMOOTH",
"409 448 OFFCURVE",
"411 345 OFFCURVE",
"415 224 CURVE SMOOTH",
"418 117 OFFCURVE",
"425 57 OFFCURVE",
"361 57 CURVE SMOOTH",
"308 57 OFFCURVE",
"340 115 OFFCURVE",
"415 224 CURVE SMOOTH",
"504 354 OFFCURVE",
"556 453 OFFCURVE",
"615 453 CURVE SMOOTH",
"659 453 OFFCURVE",
"659 397 OFFCURVE",
"647 339 CURVE",
"713 339 LINE"
);
}
);
width = 703;
},
{
anchors = (
{
name = _curl;
position = "{334, 459}";
},
{
name = bottom;
position = "{378, 0}";
},
{
name = top;
position = "{522, 540}";
}
);
layerId = "BBDB329E-CE83-4304-A6B1-53EA5ACC004E";
paths = (
{
closed = 1;
nodes = (
"756 398 OFFCURVE",
"789 542 OFFCURVE",
"639 540 CURVE SMOOTH",
"488 538 OFFCURVE",
"437 435 OFFCURVE",
"347 305 CURVE SMOOTH",
"268 190 OFFCURVE",
"189 95 OFFCURVE",
"214 36 CURVE SMOOTH",
"236 -20 OFFCURVE",
"262 -35 OFFCURVE",
"336 -35 CURVE SMOOTH",
"405 -35 OFFCURVE",
"462 -12 OFFCURVE",
"509 36 CURVE SMOOTH",
"571 101 OFFCURVE",
"546 185 OFFCURVE",
"524 280 CURVE SMOOTH",
"498 402 OFFCURVE",
"475 538 OFFCURVE",
"369 538 CURVE SMOOTH",
"178 538 OFFCURVE",
"161 394 OFFCURVE",
"137 312 CURVE",
"254 312 LINE",
"282 414 OFFCURVE",
"281 421 OFFCURVE",
"341 421 CURVE SMOOTH",
"369 421 OFFCURVE",
"381 379 OFFCURVE",
"386 216 CURVE SMOOTH",
"390 89 OFFCURVE",
"390 84 OFFCURVE",
"368 84 CURVE SMOOTH",
"355 84 OFFCURVE",
"364 108 OFFCURVE",
"437 214 CURVE SMOOTH",
"526 343 OFFCURVE",
"572 426 OFFCURVE",
"608 426 CURVE SMOOTH",
"627 426 OFFCURVE",
"633 388 OFFCURVE",
"614 312 CURVE",
"733 312 LINE"
);
}
);
width = 703;
}
);
unicode = 0264;
},
{
glyphname = rfishhook;
lastChange = "2019-09-05 22:37:17 +0000";
layers = (
{
anchors = (
{
name = _top_hook;
position = "{140, 66}";
},
{
name = center;
position = "{206, 299}";
}
);
layerId = "BA196CD0-EE58-4274-B8DF-4393D3617A29";
paths = (
{
closed = 1;
nodes = (
"82 4 LINE",
"168 4 LINE",
"274 399 LINE",
"188 399 LINE"
);
},
{
closed = 1;
nodes = (
"263 567 OFFCURVE",
"237 561 OFFCURVE",
"203 449 CURVE SMOOTH",
"188 399 OFFCURVE",
"192 415 OFFCURVE",
"173 345 CURVE",
"259 345 LINE",
"267 376 OFFCURVE",
"274 401 OFFCURVE",
"282 430 CURVE SMOOTH",
"295 478 OFFCURVE",
"299 481 OFFCURVE",
"367 481 CURVE",
"390 566 LINE"
);
}
);
width = 319;
},
{
anchors = (
{
name = _top_hook;
position = "{140, 66}";
},
{
name = center;
position = "{206, 299}";
}
);
layerId = "BBDB329E-CE83-4304-A6B1-53EA5ACC004E";
paths = (
{
closed = 1;
nodes = (
"47 -23 LINE",
"188 -23 LINE",
"308 426 LINE",
"168 426 LINE"
);
},
{
closed = 1;
nodes = (
"253 596 OFFCURVE",
"216 580 OFFCURVE",
"176 450 CURVE SMOOTH",
"159 395 OFFCURVE",
"166 420 OFFCURVE",
"139 318 CURVE",
"279 318 LINE",
"292 365 OFFCURVE",
"299 393 OFFCURVE",
"309 430 CURVE SMOOTH",
"319 466 OFFCURVE",
"303 451 OFFCURVE",
"388 455 CURVE",
"425 593 LINE"
);
}
);
width = 319;
}
);
unicode = 027E;
},
{
glyphname = rlonglegturned;
lastChange = "2019-09-05 23:22:38 +0000";
layers = (
{
components = (
{
name = rturned;
}
);
layerId = "BA196CD0-EE58-4274-B8DF-4393D3617A29";
paths = (
{
closed = 1;
nodes = (
"266 500 LINE",
"435 500 LINE",
"541 800 LINE",
"314 800 LINE"
);
}
);
width = 534;
},
{
components = (
{
name = rturned;
transform = "{1, 0, 0, 1, 5, 0}";
}
);
layerId = "BBDB329E-CE83-4304-A6B1-53EA5ACC004E";
paths = (
{
closed = 1;
nodes = (
"237 468 LINE",
"456 468 LINE",
"580 822 LINE",
"294 822 LINE"
);
}
);
width = 544;
}
);
unicode = 027A;
},
{
color = 7;
glyphname = s;
lastChange = "2019-09-05 22:37:17 +0000";
layers = (
{
anchors = (
{
name = _right_el;
position = "{284, 529}";
},
{
name = bottom;
position = "{325, 12}";
},
{
name = bottom_hook;
position = "{105, -98}";
},
{
name = center;
position = "{389, 269}";
},
{
name = top;
position = "{478, 547}";
}
);
layerId = "BA196CD0-EE58-4274-B8DF-4393D3617A29";
paths = (
{
closed = 1;
nodes = (
"588 558 OFFCURVE",
"554 564 OFFCURVE",
"486 564 CURVE SMOOTH",
"312 564 OFFCURVE",
"254 479 OFFCURVE",
"226 376 CURVE SMOOTH",
"201 284 OFFCURVE",
"315 251 OFFCURVE",
"357 235 CURVE SMOOTH",
"423 210 OFFCURVE",
"498 229 OFFCURVE",
"484 177 CURVE SMOOTH",
"472 135 OFFCURVE",
"424 127 OFFCURVE",
"358 127 CURVE SMOOTH",
"297 127 OFFCURVE",
"275 135 OFFCURVE",
"222 157 CURVE",
"94 49 LINE",
"170 8 OFFCURVE",
"250 -14 OFFCURVE",
"318 -14 CURVE SMOOTH",
"472 -14 OFFCURVE",
"552 -11 OFFCURVE",
"597 157 CURVE SMOOTH",
"617 235 OFFCURVE",
"540 270 OFFCURVE",
"435 292 CURVE SMOOTH",
"342 311 OFFCURVE",
"278 331 OFFCURVE",
"290 400 CURVE SMOOTH",
"299 447 OFFCURVE",
"349 497 OFFCURVE",
"480 497 CURVE SMOOTH",
"538 497 OFFCURVE",
"538 497 OFFCURVE",
"599 489 CURVE",
"636 549 LINE"
);
}
);
width = 635;
},
{
anchors = (
{
name = _right_el;
position = "{284, 529}";
},
{
name = bottom;
position = "{308, -53}";
},
{
name = bottom_hook;
position = "{105, -98}";
},
{
name = center;
position = "{389, 269}";
},
{
name = top;
position = "{494, 591}";
}
);
layerId = "BBDB329E-CE83-4304-A6B1-53EA5ACC004E";
paths = (
{
closed = 1;
nodes = (
"612 582 OFFCURVE",
"578 591 OFFCURVE",
"494 591 CURVE SMOOTH",
"332 591 OFFCURVE",
"238 523 OFFCURVE",
"199 376 CURVE SMOOTH",
"168 263 OFFCURVE",
"300 225 OFFCURVE",
"341 209 CURVE SMOOTH",
"418 180 OFFCURVE",
"462 199 OFFCURVE",
"456 177 CURVE SMOOTH",
"452 162 OFFCURVE",
"430 154 OFFCURVE",
"365 154 CURVE SMOOTH",
"303 154 OFFCURVE",
"288 162 OFFCURVE",
"222 189 CURVE",
"47 41 LINE",
"133 -11 OFFCURVE",
"229 -41 OFFCURVE",
"311 -41 CURVE SMOOTH",
"466 -41 OFFCURVE",
"572 -37 OFFCURVE",
"624 157 CURVE SMOOTH",
"646 239 OFFCURVE",
"588 289 OFFCURVE",
"447 318 CURVE SMOOTH",
"339 341 OFFCURVE",
"311 360 OFFCURVE",
"318 402 CURVE SMOOTH",
"325 444 OFFCURVE",
"380 470 OFFCURVE",
"472 470 CURVE SMOOTH",
"539 470 OFFCURVE",
"531 470 OFFCURVE",
"609 459 CURVE",
"678 570 LINE"
);
}
);
width = 635;
}
);
unicode = 0073;
},
{
glyphname = saltillo;
lastChange = "2019-09-05 22:37:17 +0000";
layers = (
{
layerId = "BA196CD0-EE58-4274-B8DF-4393D3617A29";
paths = (
{
closed = 1;
nodes = (
"207 336 LINE",
"255 336 LINE",
"406 758 LINE",
"284 758 LINE"
);
}
);
width = 284;
},
{
layerId = "BBDB329E-CE83-4304-A6B1-53EA5ACC004E";
paths = (
{
closed = 1;
nodes = (
"336 309 LINE",
"434 309 LINE",
"605 785 LINE",
"423 785 LINE"
);
}
);
width = 606;
}
);
unicode = A78C;
},
{
glyphname = germandbls;
lastChange = "2019-09-05 22:37:17 +0000";
layers = (
{
layerId = "BA196CD0-EE58-4274-B8DF-4393D3617A29";
paths = (
{
closed = 1;
nodes = (
"217 0 LINE",
"341 553 LINE",
"384 665 OFFCURVE",
"437 705 OFFCURVE",
"522 705 CURVE SMOOTH",
"597 705 OFFCURVE",
"629 699 OFFCURVE",
"648 580 CURVE",
"511 561 OFFCURVE",
"466 502 OFFCURVE",
"444 420 CURVE SMOOTH",
"429 366 OFFCURVE",
"452 319 OFFCURVE",
"472 281 CURVE",
"505 254 LINE",
"532 234 OFFCURVE",
"550 217 OFFCURVE",
"556 203 CURVE SMOOTH",
"562 189 OFFCURVE",
"563 176 OFFCURVE",
"560 162 CURVE SMOOTH",
"549 122 OFFCURVE",
"503 100 OFFCURVE",
"426 100 CURVE SMOOTH",
"383 100 OFFCURVE",
"341 109 OFFCURVE",
"293 129 CURVE",
"261 10 LINE",
"305 -6 OFFCURVE",
"348 -14 OFFCURVE",
"390 -14 CURVE SMOOTH",
"529 -14 OFFCURVE",
"621 47 OFFCURVE",
"651 159 CURVE SMOOTH",
"668 224 OFFCURVE",
"657 260 OFFCURVE",
"568 329 CURVE SMOOTH",
"544 347 LINE SMOOTH",
"509 375 OFFCURVE",
"498 399 OFFCURVE",
"506 430 CURVE SMOOTH",
"523 493 OFFCURVE",
"591 532 OFFCURVE",
"691 537 CURVE",
"730 683 OFFCURVE",
"676 760 OFFCURVE",
"539 760 CURVE SMOOTH",
"396 760 OFFCURVE",
"294 686 OFFCURVE",
"259 555 CURVE",
"81 0 LINE"
);
}
);
width = 689;
},
{
layerId = "BBDB329E-CE83-4304-A6B1-53EA5ACC004E";
paths = (
{
closed = 1;
nodes = (
"238 -27 LINE",
"368 552 LINE",
"404 646 OFFCURVE",
"443 678 OFFCURVE",
"515 678 CURVE SMOOTH",
"582 678 OFFCURVE",
"600 668 OFFCURVE",
"614 600 CURVE",
"505 577 OFFCURVE",
"444 521 OFFCURVE",
"417 420 CURVE SMOOTH",
"399 355 OFFCURVE",
"428 299 OFFCURVE",
"448 261 CURVE",
"484 231 LINE",
"510 212 OFFCURVE",
"525 198 OFFCURVE",
"530 188 CURVE",
"534 177 OFFCURVE",
"534 170 OFFCURVE",
"532 162 CURVE SMOOTH",
"527 141 OFFCURVE",
"496 127 OFFCURVE",
"433 127 CURVE SMOOTH",
"384 127 OFFCURVE",
"336 140 OFFCURVE",
"277 169 CURVE",
"229 -9 LINE",
"282 -31 OFFCURVE",
"332 -41 OFFCURVE",
"383 -41 CURVE SMOOTH",
"536 -41 OFFCURVE",
"644 32 OFFCURVE",
"678 159 CURVE SMOOTH",
"699 239 OFFCURVE",
"679 282 OFFCURVE",
"589 352 CURVE SMOOTH",
"566 370 LINE SMOOTH",
"536 393 OFFCURVE",
"528 409 OFFCURVE",
"533 430 CURVE SMOOTH",
"546 476 OFFCURVE",
"599 506 OFFCURVE",
"685 510 CURVE",
"719 537 LINE",
"761 697 OFFCURVE",
"700 787 OFFCURVE",
"546 787 CURVE SMOOTH",
"388 787 OFFCURVE",
"271 701 OFFCURVE",
"232 556 CURVE",
"45 -27 LINE"
);
}
);
width = 689;
}
);
unicode = 00DF;
},
{
color = 7;
glyphname = t;
lastChange = "2019-09-05 22:37:17 +0000";
layers = (
{
anchors = (
{
name = bottom;
position = "{337, 3}";
},
{
name = caron;
position = "{545, 616}";
},
{
name = center;
position = "{336, 341}";
},
{
name = circumflexbelowcomb;
position = "{334, 0}";
},
{
name = curl;
position = "{608, 584}";
},
{
name = top;
position = "{458, 708}";
},
{
name = top_hook;
position = "{426, 639}";
},
{
name = topright;
position = "{680, 500}";
}
);
layerId = "BA196CD0-EE58-4274-B8DF-4393D3617A29";
paths = (
{
closed = 1;
nodes = (
"228 548 LINE",
"638 548 LINE",
"637 615 LINE",
"275 615 LINE"
);
},
{
closed = 1;
nodes = (
"479 151 OFFCURVE",
"377 151 OFFCURVE",
"325 151 CURVE",
"517 737 LINE",
"422 737 LINE",
"333 499 OFFCURVE",
"183 74 OFFCURVE",
"177 50 CURVE SMOOTH",
"175 43 OFFCURVE",
"168 0 OFFCURVE",
"202 0 CURVE SMOOTH",
"249 0 OFFCURVE",
"427 0 OFFCURVE",
"465 2 CURVE",
"497 150 LINE"
);
}
);
width = 572;
},
{
anchors = (
{
name = bottom;
position = "{321, -59}";
},
{
name = caron;
position = "{545, 616}";
},
{
name = center;
position = "{336, 341}";
},
{
name = circumflexbelowcomb;
position = "{334, 0}";
},
{
name = curl;
position = "{608, 584}";
},
{
name = top;
position = "{475, 770}";
},
{
name = top_hook;
position = "{440, 692}";
},
{
name = topright;
position = "{680, 500}";
}
);
layerId = "BBDB329E-CE83-4304-A6B1-53EA5ACC004E";
paths = (
{
closed = 1;
nodes = (
"179 521 LINE",
"666 521 LINE",
"666 642 LINE",
"264 642 LINE"
);
},
{
closed = 1;
nodes = (
"490 178 OFFCURVE",
"415 178 OFFCURVE",
"362 178 CURVE",
"553 764 LINE",
"405 764 LINE",
"317 532 OFFCURVE",
"157 76 OFFCURVE",
"150 50 CURVE SMOOTH",
"139 9 OFFCURVE",
"155 -27 OFFCURVE",
"195 -27 CURVE",
"156 -27 OFFCURVE",
"205 -27 OFFCURVE",
"486 -28 CURVE",
"530 176 LINE"
);
}
);
width = 572;
}
);
unicode = 0074;
},
{
glyphname = tesh;
lastChange = "2019-09-05 22:37:17 +0000";
layers = (
{
components = (
{
name = t;
transform = "{1, 0, 0.03492, 1, -19, 0}";
},
{
name = esh;
transform = "{0.97435, 0.22503, -0.22503, 0.97435, 217, -67}";
}
);
layerId = "BA196CD0-EE58-4274-B8DF-4393D3617A29";
paths = (
{
closed = 1;
nodes = (
"547 549 LINE",
"699 549 LINE",
"716 615 LINE",
"565 615 LINE"
);
}
);
width = 930;
},
{
components = (
{
name = t;
transform = "{1, 0, 0.03492, 1, -19, 0}";
},
{
name = esh;
transform = "{0.97435, 0.22503, -0.22503, 0.97435, 217, -67}";
}
);
layerId = "BBDB329E-CE83-4304-A6B1-53EA5ACC004E";
paths = (
{
closed = 1;
nodes = (
"513 522 LINE",
"719 522 LINE",
"751 642 LINE",
"545 642 LINE"
);
}
);
width = 930;
}
);
unicode = 02A7;
},
{
glyphname = tretroflexhook;
lastChange = "2019-09-05 22:37:17 +0000";
layers = (
{
anchors = (
{
name = bottom;
position = "{341, 0}";
},
{
name = caron;
position = "{545, 616}";
},
{
name = center;
position = "{336, 341}";
},
{
name = circumflexbelowcomb;
position = "{344, -25}";
},
{
name = curl;
position = "{608, 584}";
},
{
name = top;
position = "{434, 661}";
},
{
name = top_hook;
position = "{426, 639}";
},
{
name = topright;
position = "{680, 500}";
}
);
layerId = "BA196CD0-EE58-4274-B8DF-4393D3617A29";
paths = (
{
closed = 1;
nodes = (
"228 548 LINE",
"638 548 LINE",
"637 615 LINE",
"275 615 LINE"
);
},
{
closed = 1;
nodes = (
"411 11 OFFCURVE",
"339 11 OFFCURVE",
"288 11 CURVE",
"517 737 LINE",
"422 737 LINE",
"333 499 OFFCURVE",
"146 -66 OFFCURVE",
"140 -90 CURVE SMOOTH",
"138 -97 OFFCURVE",
"130 -140 OFFCURVE",
"164 -140 CURVE SMOOTH",
"212 -140 OFFCURVE",
"359 -140 OFFCURVE",
"397 -138 CURVE",
"429 10 LINE"
);
}
);
width = 572;
},
{
anchors = (
{
name = bottom;
position = "{341, 0}";
},
{
name = caron;
position = "{545, 616}";
},
{
name = center;
position = "{336, 341}";
},
{
name = circumflexbelowcomb;
position = "{344, -25}";
},
{
name = curl;
position = "{608, 584}";
},
{
name = top;
position = "{434, 661}";
},
{
name = top_hook;
position = "{426, 639}";
},
{
name = topright;
position = "{680, 500}";
}
);
layerId = "BBDB329E-CE83-4304-A6B1-53EA5ACC004E";
paths = (
{
closed = 1;
nodes = (
"179 521 LINE",
"666 521 LINE",
"666 642 LINE",
"264 642 LINE"
);
},
{
closed = 1;
nodes = (
"422 38 OFFCURVE",
"370 38 OFFCURVE",
"323 38 CURVE",
"552 764 LINE",
"405 764 LINE",
"320 542 OFFCURVE",
"119 -64 OFFCURVE",
"112 -90 CURVE SMOOTH",
"101 -131 OFFCURVE",
"118 -167 OFFCURVE",
"157 -167 CURVE",
"115 -167 OFFCURVE",
"152 -167 OFFCURVE",
"419 -168 CURVE",
"462 36 LINE"
);
}
);
width = 572;
}
);
unicode = 0288;
},
{
glyphname = ts;
lastChange = "2019-09-05 22:37:17 +0000";
layers = (
{
components = (
{
alignment = -1;
name = s;
transform = "{1, 0, 0, 1.05709, 365, 15}";
},
{
alignment = -1;
name = t;
transform = "{0.93149, 0, 0, 1, 5, 0}";
}
);
layerId = "BA196CD0-EE58-4274-B8DF-4393D3617A29";
paths = (
{
closed = 1;
nodes = (
"485 549 LINE",
"847 549 LINE",
"864 612 LINE",
"503 615 LINE"
);
}
);
width = 996;
},
{
components = (
{
alignment = -1;
name = s;
transform = "{1, 0, 0, 1.05709, 365, 15}";
},
{
alignment = -1;
name = t;
transform = "{0.93149, 0, 0, 1, 5, 0}";
}
);
layerId = "BBDB329E-CE83-4304-A6B1-53EA5ACC004E";
paths = (
{
closed = 1;
nodes = (
"451 522 LINE",
"867 522 LINE",
"898 639 LINE",
"483 642 LINE"
);
}
);
width = 996;
}
);
unicode = 02A6;
},
{
color = 7;
glyphname = u;
lastChange = "2019-09-05 22:37:17 +0000";
layers = (
{
anchors = (
{
name = bottom;
position = "{330, 0}";
},
{
name = horn;
position = "{699, 456}";
},
{
name = ogonek;
position = "{518, 5}";
},
{
name = top;
position = "{486, 630}";
},
{
name = topright;
position = "{769, 500}";
}
);
layerId = "BA196CD0-EE58-4274-B8DF-4393D3617A29";
paths = (
{
closed = 1;
nodes = (
"371 -16 OFFCURVE",
"436 -7 OFFCURVE",
"496 84 CURVE",
"470 0 LINE",
"580 0 LINE",
"706 547 LINE",
"616 547 LINE",
"544 315 LINE",
"512 225 OFFCURVE",
"453 140 OFFCURVE",
"355 140 CURVE SMOOTH",
"273 140 OFFCURVE",
"228 140 OFFCURVE",
"257 297 CURVE SMOOTH",
"303 547 LINE",
"227 547 LINE",
"160 216 LINE SMOOTH",
"121 27 OFFCURVE",
"167 -16 OFFCURVE",
"292 -16 CURVE SMOOTH"
);
}
);
width = 661;
},
{
anchors = (
{
name = bottom;
position = "{330, 0}";
},
{
name = horn;
position = "{699, 456}";
},
{
name = ogonek;
position = "{518, 5}";
},
{
name = top;
position = "{513, 666}";
},
{
name = topright;
position = "{769, 500}";
}
);
layerId = "BBDB329E-CE83-4304-A6B1-53EA5ACC004E";
paths = (
{
closed = 1;
nodes = (
"350 -43 OFFCURVE",
"399 -33 OFFCURVE",
"440 -8 CURVE",
"434 -27 LINE",
"601 -27 LINE",
"740 574 LINE",
"597 574 LINE",
"517 317 LINE",
"481 217 OFFCURVE",
"429 167 OFFCURVE",
"362 167 CURVE SMOOTH",
"280 167 OFFCURVE",
"261 167 OFFCURVE",
"285 299 CURVE SMOOTH",
"336 574 LINE",
"205 574 LINE",
"132 214 LINE SMOOTH",
"94 25 OFFCURVE",
"133 -43 OFFCURVE",
"284 -43 CURVE SMOOTH"
);
}
);
width = 661;
}
);
unicode = 0075;
},
{
color = 7;
glyphname = v;
lastChange = "2019-09-05 22:37:17 +0000";
layers = (
{
anchors = (
{
name = bottom;
position = "{381, 0}";
},
{
name = top;
position = "{515, 500}";
}
);
layerId = "BA196CD0-EE58-4274-B8DF-4393D3617A29";
paths = (
{
closed = 1;
nodes = (
"479 0 LINE",
"538 144 LINE",
"827 547 LINE",
"731 547 LINE",
"430 146 LINE",
"323 547 LINE",
"227 547 LINE",
"303 144 LINE",
"293 0 LINE"
);
}
);
width = 762;
},
{
anchors = (
{
name = bottom;
position = "{381, 0}";
},
{
name = top;
position = "{534, 570}";
}
);
layerId = "BBDB329E-CE83-4304-A6B1-53EA5ACC004E";
paths = (
{
closed = 1;
nodes = (
"496 -27 LINE",
"562 136 LINE",
"877 574 LINE",
"721 574 LINE",
"445 206 LINE",
"347 574 LINE",
"192 574 LINE",
"275 136 LINE",
"263 -27 LINE"
);
}
);
width = 762;
}
);
unicode = 0076;
},
{
glyphname = vhook;
lastChange = "2019-09-05 22:37:17 +0000";
layers = (
{
anchors = (
{
name = _vhook;
position = "{536, 456}";
},
{
name = bottom;
position = "{360, 0}";
},
{
name = horn;
position = "{645, 446}";
},
{
name = ogonek;
position = "{340, -48}";
},
{
name = top;
position = "{482, 506}";
},
{
name = topright;
position = "{748, 500}";
}
);
layerId = "BA196CD0-EE58-4274-B8DF-4393D3617A29";
paths = (
{
closed = 1;
nodes = (
"88 27 OFFCURVE",
"167 -16 OFFCURVE",
"292 -16 CURVE SMOOTH",
"500 -16 OFFCURVE",
"528 161 OFFCURVE",
"554 258 CURVE SMOOTH",
"610 469 OFFCURVE",
"656 570 OFFCURVE",
"465 570 CURVE",
"445 495 LINE",
"539 495 OFFCURVE",
"505 410 OFFCURVE",
"490 354 CURVE SMOOTH",
"448 197 OFFCURVE",
"431 140 OFFCURVE",
"333 140 CURVE SMOOTH",
"252 140 OFFCURVE",
"204 140 OFFCURVE",
"246 297 CURVE SMOOTH",
"313 547 LINE",
"227 547 LINE",
"139 216 LINE SMOOTH"
);
}
);
width = 566;
},
{
anchors = (
{
name = _vhook;
position = "{536, 456}";
},
{
name = bottom;
position = "{360, 0}";
},
{
name = horn;
position = "{645, 446}";
},
{
name = ogonek;
position = "{340, -48}";
},
{
name = top;
position = "{482, 506}";
},
{
name = topright;
position = "{748, 500}";
}
);
layerId = "BBDB329E-CE83-4304-A6B1-53EA5ACC004E";
paths = (
{
closed = 1;
nodes = (
"64 38 OFFCURVE",
"119 -43 OFFCURVE",
"284 -43 CURVE SMOOTH",
"523 -43 OFFCURVE",
"555 162 OFFCURVE",
"581 258 CURVE SMOOTH",
"639 475 OFFCURVE",
"700 607 OFFCURVE",
"445 596 CURVE",
"410 467 LINE",
"487 471 OFFCURVE",
"493 466 OFFCURVE",
"462 354 CURVE SMOOTH",
"417 183 OFFCURVE",
"405 167 OFFCURVE",
"341 167 CURVE SMOOTH",
"259 167 OFFCURVE",
"239 167 OFFCURVE",
"274 297 CURVE SMOOTH",
"348 574 LINE",
"207 574 LINE",
"111 216 LINE SMOOTH"
);
}
);
width = 566;
}
);
unicode = 028B;
},
{
color = 7;
glyphname = w;
lastChange = "2019-09-05 22:37:17 +0000";
layers = (
{
anchors = (
{
name = bottom;
position = "{451, 0}";
},
{
name = top;
position = "{619, 627}";
},
{
name = top_hook;
position = "{971, 311}";
}
);
layerId = "BA196CD0-EE58-4274-B8DF-4393D3617A29";
paths = (
{
closed = 1;
nodes = (
"347 0 LINE",
"502 189 LINE",
"551 0 LINE",
"678 0 LINE",
"969 547 LINE",
"878 547 LINE",
"671 198 LINE",
"596 423 LINE",
"534 423 LINE",
"338 198 LINE",
"318 547 LINE",
"227 547 LINE",
"225 0 LINE"
);
}
);
width = 903;
},
{
anchors = (
{
name = bottom;
position = "{451, 0}";
},
{
name = top;
position = "{619, 627}";
},
{
name = top_hook;
position = "{971, 311}";
}
);
layerId = "BBDB329E-CE83-4304-A6B1-53EA5ACC004E";
paths = (
{
closed = 1;
nodes = (
"356 -27 LINE",
"487 132 LINE",
"528 -27 LINE",
"692 -27 LINE",
"1011 574 LINE",
"865 574 LINE",
"682 263 LINE",
"619 450 LINE",
"526 450 LINE",
"362 263 LINE",
"346 574 LINE",
"199 574 LINE",
"197 -27 LINE"
);
}
);
width = 903;
}
);
unicode = 0077;
},
{
color = 7;
glyphname = x;
lastChange = "2019-09-05 22:37:17 +0000";
layers = (
{
anchors = (
{
name = bottom;
position = "{399, 0}";
},
{
name = top;
position = "{533, 500}";
}
);
layerId = "BA196CD0-EE58-4274-B8DF-4393D3617A29";
paths = (
{
closed = 1;
nodes = (
"238 -10 LINE",
"801 528 LINE",
"709 528 LINE",
"97 -10 LINE"
);
},
{
closed = 1;
nodes = (
"399 522 LINE",
"302 522 LINE",
"527 -10 LINE",
"668 -10 LINE"
);
}
);
width = 797;
},
{
anchors = (
{
name = bottom;
position = "{390, 13}";
},
{
name = top;
position = "{533, 500}";
}
);
layerId = "BBDB329E-CE83-4304-A6B1-53EA5ACC004E";
paths = (
{
closed = 1;
nodes = (
"509 -9 LINE",
"725 -9 LINE",
"444 595 LINE",
"278 595 LINE"
);
},
{
closed = 1;
nodes = (
"43 -9 LINE",
"260 -9 LINE",
"855 595 LINE",
"693 595 LINE"
);
}
);
width = 797;
}
);
leftKerningGroup = Round;
unicode = 0078;
},
{
color = 7;
glyphname = y;
lastChange = "2019-09-05 22:37:17 +0000";
layers = (
{
anchors = (
{
name = bottom;
position = "{349, 0}";
},
{
name = top;
position = "{548, 700}";
},
{
name = top_hook;
position = "{765, 319}";
}
);
layerId = "BA196CD0-EE58-4274-B8DF-4393D3617A29";
paths = (
{
closed = 1;
nodes = (
"669 547 LINE",
"459 209 LINE",
"323 547 LINE",
"227 547 LINE",
"390 108 LINE",
"312 -39 OFFCURVE",
"240 -99 OFFCURVE",
"148 -99 CURVE SMOOTH",
"85 -99 LINE",
"53 -218 LINE",
"136 -218 LINE SMOOTH",
"216 -218 OFFCURVE",
"292 -206 OFFCURVE",
"395 -63 CURVE",
"765 547 LINE"
);
}
);
width = 699;
},
{
anchors = (
{
name = bottom;
position = "{349, 0}";
},
{
name = top;
position = "{529, 630}";
},
{
name = top_hook;
position = "{765, 319}";
}
);
layerId = "BBDB329E-CE83-4304-A6B1-53EA5ACC004E";
paths = (
{
closed = 1;
nodes = (
"657 574 LINE",
"467 269 LINE",
"345 574 LINE",
"185 574 LINE",
"359 104 LINE",
"290 -23 OFFCURVE",
"231 -72 OFFCURVE",
"155 -72 CURVE SMOOTH",
"65 -72 LINE",
"18 -245 LINE",
"128 -245 LINE SMOOTH",
"250 -245 OFFCURVE",
"327 -200 OFFCURVE",
"418 -73 CURVE",
"809 574 LINE"
);
}
);
width = 699;
}
);
unicode = 0079;
},
{
color = 7;
glyphname = z;
lastChange = "2019-09-05 22:37:17 +0000";
layers = (
{
anchors = (
{
name = _right_el;
position = "{329, 539}";
},
{
name = bottom;
position = "{339, 0}";
},
{
name = bottomhook;
position = "{484, 27}";
},
{
name = center;
position = "{417, 288}";
},
{
name = top;
position = "{499, 547}";
}
);
layerId = "BA196CD0-EE58-4274-B8DF-4393D3617A29";
paths = (
{
closed = 1;
nodes = (
"616 482 LINE",
"140 131 LINE",
"81 0 LINE",
"587 0 LINE",
"562 121 LINE",
"274 121 LINE",
"726 482 LINE",
"731 549 LINE",
"318 549 LINE",
"300 482 LINE"
);
}
);
width = 678;
},
{
anchors = (
{
name = _right_el;
position = "{329, 539}";
},
{
name = bottom;
position = "{339, 0}";
},
{
name = bottomhook;
position = "{484, 27}";
},
{
name = center;
position = "{417, 288}";
},
{
name = top;
position = "{533, 582}";
}
);
layerId = "BBDB329E-CE83-4304-A6B1-53EA5ACC004E";
paths = (
{
closed = 1;
nodes = (
"539 455 LINE",
"119 145 LINE",
"41 -27 LINE",
"623 -27 LINE",
"586 148 LINE",
"346 148 LINE",
"753 473 LINE",
"760 576 LINE",
"298 576 LINE",
"265 455 LINE"
);
}
);
width = 678;
}
);
unicode = 007A;
},
{
glyphname = zcurl;
lastChange = "2019-09-05 22:37:17 +0000";
layers = (
{
anchors = (
{
name = _right_el;
position = "{344, 514}";
},
{
name = bottom;
position = "{339, 0}";
},
{
name = center;
position = "{417, 288}";
},
{
name = top;
position = "{499, 547}";
}
);
layerId = "BA196CD0-EE58-4274-B8DF-4393D3617A29";
paths = (
{
closed = 1;
nodes = (
"616 482 LINE",
"140 131 LINE",
"81 0 LINE",
"514 0 LINE SMOOTH",
"647 0 OFFCURVE",
"773 219 OFFCURVE",
"643 255 CURVE SMOOTH",
"515 291 OFFCURVE",
"435 181 OFFCURVE",
"335 -193 CURVE",
"435 -193 LINE",
"534 175 OFFCURVE",
"574 192 OFFCURVE",
"596 169 CURVE SMOOTH",
"605 159 OFFCURVE",
"610 121 OFFCURVE",
"516 121 CURVE SMOOTH",
"274 121 LINE",
"726 482 LINE",
"731 549 LINE",
"318 549 LINE",
"300 482 LINE"
);
}
);
width = 733;
},
{
anchors = (
{
name = _right_el;
position = "{344, 514}";
},
{
name = bottom;
position = "{339, 0}";
},
{
name = center;
position = "{417, 288}";
},
{
name = top;
position = "{499, 547}";
}
);
layerId = "BBDB329E-CE83-4304-A6B1-53EA5ACC004E";
paths = (
{
closed = 1;
nodes = (
"539 455 LINE",
"119 145 LINE",
"41 -27 LINE",
"507 -27 LINE SMOOTH",
"679 -27 OFFCURVE",
"810 239 OFFCURVE",
"657 281 CURVE SMOOTH",
"501 325 OFFCURVE",
"406 186 OFFCURVE",
"301 -220 CURVE",
"455 -220 LINE",
"506 -24 OFFCURVE",
"572 149 OFFCURVE",
"573 148 CURVE",
"572 149 OFFCURVE",
"526 148 OFFCURVE",
"523 148 CURVE SMOOTH",
"346 148 LINE",
"753 473 LINE",
"760 576 LINE",
"298 576 LINE",
"265 455 LINE"
);
}
);
width = 733;
}
);
unicode = 0291;
},
{
glyphname = zretroflexhook;
lastChange = "2019-09-05 22:37:17 +0000";
layers = (
{
components = (
{
name = z;
},
{
name = od_hook;
transform = "{1, 0, 0, 1, 156, -335}";
}
);
layerId = "BA196CD0-EE58-4274-B8DF-4393D3617A29";
paths = (
{
closed = 1;
nodes = (
"529 0 LINE",
"605 0 LINE",
"637 121 LINE",
"522 121 LINE"
);
}
);
width = 686;
},
{
components = (
{
name = z;
},
{
name = od_hook;
transform = "{1, 0, 0, 1, 297, -335}";
}
);
layerId = "BBDB329E-CE83-4304-A6B1-53EA5ACC004E";
paths = (
{
closed = 1;
nodes = (
"502 -27 LINE",
"625 -27 LINE",
"672 148 LINE",
"492 148 LINE"
);
}
);
width = 686;
}
);
unicode = 0290;
},
{
color = 7;
glyphname = a.ss01;
lastChange = "2019-09-05 22:37:17 +0000";
layers = (
{
anchors = (
{
name = bottom;
position = "{345, 0}";
},
{
name = ogonek;
position = "{516, 29}";
},
{
name = top;
position = "{489, 577}";
}
);
background = {
components = (
{
alignment = -1;
name = "";
transform = "{1, 0, 0, 1, 9, 150}";
},
{
alignment = -1;
name = "";
transform = "{1, 0, 0, 1, 9, 200}";
},
{
alignment = -1;
name = "";
transform = "{1, 0, 0, 1, 59, 50}";
},
{
alignment = -1;
name = "";
transform = "{1, 0, 0, 1, 59, 100}";
},
{
alignment = -1;
name = "";
transform = "{1, 0, 0, 1, 59, 150}";
},
{
alignment = -1;
name = "";
transform = "{1, 0, 0, 1, 59, 200}";
},
{
alignment = -1;
name = "";
transform = "{1, 0, 0, 1, 59, 250}";
},
{
alignment = -1;
name = "";
transform = "{1, 0, 0, 1, 59, 300}";
},
{
alignment = -1;
name = "";
transform = "{1, 0, 0, 1, 59, 350}";
},
{
alignment = -1;
name = "";
transform = "{1, 0, 0, 1, 109, 0}";
},
{
alignment = -1;
name = "";
transform = "{1, 0, 0, 1, 109, 50}";
},
{
alignment = -1;
name = "";
transform = "{1, 0, 0, 1, 109, 100}";
},
{
alignment = -1;
name = "";
transform = "{1, 0, 0, 1, 109, 400}";
},
{
alignment = -1;
name = "";
transform = "{1, 0, 0, 1, 159, 0}";
},
{
alignment = -1;
name = "";
transform = "{1, 0, 0, 1, 159, 50}";
},
{
alignment = -1;
name = "";
transform = "{1, 0, 0, 1, 159, 100}";
},
{
alignment = -1;
name = "";
transform = "{1, 0, 0, 1, 159, 450}";
},
{
alignment = -1;
name = "";
transform = "{1, 0, 0, 1, 209, 0}";
},
{
alignment = -1;
name = "";
transform = "{1, 0, 0, 1, 209, 50}";
},
{
alignment = -1;
name = "";
transform = "{1, 0, 0, 1, 209, 100}";
},
{
alignment = -1;
name = "";
transform = "{1, 0, 0, 1, 209, 450}";
},
{
alignment = -1;
name = "";
transform = "{1, 0, 0, 1, 259, 0}";
},
{
alignment = -1;
name = "";
transform = "{1, 0, 0, 1, 259, 50}";
},
{
alignment = -1;
name = "";
transform = "{1, 0, 0, 1, 259, 100}";
},
{
alignment = -1;
name = "";
transform = "{1, 0, 0, 1, 259, 450}";
},
{
alignment = -1;
name = "";
transform = "{1, 0, 0, 1, 309, 0}";
},
{
alignment = -1;
name = "";
transform = "{1, 0, 0, 1, 309, 50}";
},
{
alignment = -1;
name = "";
transform = "{1, 0, 0, 1, 309, 100}";
},
{
alignment = -1;
name = "";
transform = "{1, 0, 0, 1, 309, 450}";
},
{
alignment = -1;
name = "";
transform = "{1, 0, 0, 1, 359, 0}";
},
{
alignment = -1;
name = "";
transform = "{1, 0, 0, 1, 359, 50}";
},
{
alignment = -1;
name = "";
transform = "{1, 0, 0, 1, 359, 100}";
},
{
alignment = -1;
name = "";
transform = "{1, 0, 0, 1, 359, 450}";
},
{
alignment = -1;
name = "";
transform = "{1, 0, 0, 1, 409, 50}";
},
{
alignment = -1;
name = "";
transform = "{1, 0, 0, 1, 409, 100}";
},
{
alignment = -1;
name = "";
transform = "{1, 0, 0, 1, 409, 150}";
},
{
alignment = -1;
name = "";
transform = "{1, 0, 0, 1, 409, 200}";
},
{
alignment = -1;
name = "";
transform = "{1, 0, 0, 1, 409, 250}";
},
{
alignment = -1;
name = "";
transform = "{1, 0, 0, 1, 409, 300}";
},
{
alignment = -1;
name = "";
transform = "{1, 0, 0, 1, 409, 350}";
},
{
alignment = -1;
name = "";
transform = "{1, 0, 0, 1, 409, 400}";
},
{
alignment = -1;
name = "";
transform = "{1, 0, 0, 1, 409, 450}";
},
{
alignment = -1;
name = "";
transform = "{1, 0, 0, 1, 409, 500}";
},
{
alignment = -1;
name = "";
transform = "{1, 0, 0, 1, 459, 0}";
},
{
alignment = -1;
name = "";
transform = "{1, 0, 0, 1, 459, 50}";
},
{
alignment = -1;
name = "";
transform = "{1, 0, 0, 1, 459, 100}";
},
{
alignment = -1;
name = "";
transform = "{1, 0, 0, 1, 459, 150}";
},
{
alignment = -1;
name = "";
transform = "{1, 0, 0, 1, 459, 200}";
},
{
alignment = -1;
name = "";
transform = "{1, 0, 0, 1, 459, 250}";
},
{
alignment = -1;
name = "";
transform = "{1, 0, 0, 1, 459, 300}";
},
{
alignment = -1;
name = "";
transform = "{1, 0, 0, 1, 459, 350}";
}
);
paths = (
{
closed = 1;
nodes = (
"418 525 LINE",
"469 525 LINE",
"536 0 LINE",
"446 0 LINE",
"446 82 LINE",
"408 17 OFFCURVE",
"336 -14 OFFCURVE",
"256 -14 CURVE SMOOTH",
"94 -14 OFFCURVE",
"-6 105 OFFCURVE",
"39 273 CURVE SMOOTH",
"78 419 OFFCURVE",
"165 525 OFFCURVE",
"256 525 CURVE SMOOTH",
"327 525 OFFCURVE",
"394 504 OFFCURVE",
"430 446 CURVE"
);
},
{
closed = 1;
nodes = (
"71 175 OFFCURVE",
"94 136 OFFCURVE",
"244 138 CURVE SMOOTH",
"425 140 OFFCURVE",
"429 170 OFFCURVE",
"429 299 CURVE SMOOTH",
"429 448 OFFCURVE",
"322 476 OFFCURVE",
"255 476 CURVE",
"194 476 OFFCURVE",
"135 434 OFFCURVE",
"101 296 CURVE SMOOTH"
);
}
);
};
layerId = "BA196CD0-EE58-4274-B8DF-4393D3617A29";
paths = (
{
closed = 1;
nodes = (
"374 276 LINE SMOOTH",
"263 276 OFFCURVE",
"222 252 OFFCURVE",
"202 196 CURVE SMOOTH",
"198 186 OFFCURVE",
"196 178 OFFCURVE",
"197 167 CURVE SMOOTH",
"199 126 OFFCURVE",
"239 122 OFFCURVE",
"292 122 CURVE SMOOTH",
"374 122 OFFCURVE",
"411 141 OFFCURVE",
"442 256 CURVE SMOOTH",
"441 252 LINE SMOOTH",
"446 268 OFFCURVE",
"439 276 OFFCURVE",
"425 276 CURVE SMOOTH"
);
},
{
closed = 1;
nodes = (
"507 24 LINE SMOOTH",
"503 9 OFFCURVE",
"507 21 OFFCURVE",
"501 0 CURVE",
"419 0 LINE",
"423 13 OFFCURVE",
"421 8 OFFCURVE",
"426 24 CURVE SMOOTH",
"429 35 LINE SMOOTH",
"434 56 OFFCURVE",
"425 60 OFFCURVE",
"406 45 CURVE SMOOTH",
"360 6 OFFCURVE",
"307 -14 OFFCURVE",
"243 -14 CURVE SMOOTH",
"143 -14 OFFCURVE",
"95 53 OFFCURVE",
"123 157 CURVE SMOOTH",
"156 279 OFFCURVE",
"247 342 OFFCURVE",
"396 342 CURVE SMOOTH",
"489 342 LINE SMOOTH",
"503 342 OFFCURVE",
"512 345 OFFCURVE",
"513 350 CURVE SMOOTH",
"535 433 OFFCURVE",
"503 482 OFFCURVE",
"409 489 CURVE",
"361 489 OFFCURVE",
"313 478 OFFCURVE",
"266 458 CURVE SMOOTH",
"249 450 OFFCURVE",
"251 452 OFFCURVE",
"235 441 CURVE",
"255 516 LINE",
"259 517 OFFCURVE",
"262 519 OFFCURVE",
"276 524 CURVE SMOOTH",
"334 545 OFFCURVE",
"387 554 OFFCURVE",
"434 554 CURVE SMOOTH",
"579 554 OFFCURVE",
"628 474 OFFCURVE",
"584 309 CURVE SMOOTH"
);
}
);
width = 582;
},
{
anchors = (
{
name = bottom;
position = "{386, 0}";
},
{
name = ogonek;
position = "{556, 29}";
},
{
name = top;
position = "{529, 577}";
}
);
background = {
components = (
{
alignment = -1;
name = "";
transform = "{1, 0, 0, 1, 49, 150}";
},
{
alignment = -1;
name = "";
transform = "{1, 0, 0, 1, 49, 200}";
},
{
alignment = -1;
name = "";
transform = "{1, 0, 0, 1, 99, 50}";
},
{
alignment = -1;
name = "";
transform = "{1, 0, 0, 1, 99, 100}";
},
{
alignment = -1;
name = "";
transform = "{1, 0, 0, 1, 99, 150}";
},
{
alignment = -1;
name = "";
transform = "{1, 0, 0, 1, 99, 200}";
},
{
alignment = -1;
name = "";
transform = "{1, 0, 0, 1, 99, 250}";
},
{
alignment = -1;
name = "";
transform = "{1, 0, 0, 1, 99, 300}";
},
{
alignment = -1;
name = "";
transform = "{1, 0, 0, 1, 99, 350}";
},
{
alignment = -1;
name = "";
transform = "{1, 0, 0, 1, 149, 0}";
},
{
alignment = -1;
name = "";
transform = "{1, 0, 0, 1, 149, 50}";
},
{
alignment = -1;
name = "";
transform = "{1, 0, 0, 1, 149, 100}";
},
{
alignment = -1;
name = "";
transform = "{1, 0, 0, 1, 149, 400}";
},
{
alignment = -1;
name = "";
transform = "{1, 0, 0, 1, 199, 0}";
},
{
alignment = -1;
name = "";
transform = "{1, 0, 0, 1, 199, 50}";
},
{
alignment = -1;
name = "";
transform = "{1, 0, 0, 1, 199, 100}";
},
{
alignment = -1;
name = "";
transform = "{1, 0, 0, 1, 199, 450}";
},
{
alignment = -1;
name = "";
transform = "{1, 0, 0, 1, 249, 0}";
},
{
alignment = -1;
name = "";
transform = "{1, 0, 0, 1, 249, 50}";
},
{
alignment = -1;
name = "";
transform = "{1, 0, 0, 1, 249, 100}";
},
{
alignment = -1;
name = "";
transform = "{1, 0, 0, 1, 249, 450}";
},
{
alignment = -1;
name = "";
transform = "{1, 0, 0, 1, 299, 0}";
},
{
alignment = -1;
name = "";
transform = "{1, 0, 0, 1, 299, 50}";
},
{
alignment = -1;
name = "";
transform = "{1, 0, 0, 1, 299, 100}";
},
{
alignment = -1;
name = "";
transform = "{1, 0, 0, 1, 299, 450}";
},
{
alignment = -1;
name = "";
transform = "{1, 0, 0, 1, 349, 0}";
},
{
alignment = -1;
name = "";
transform = "{1, 0, 0, 1, 349, 50}";
},
{
alignment = -1;
name = "";
transform = "{1, 0, 0, 1, 349, 100}";
},
{
alignment = -1;
name = "";
transform = "{1, 0, 0, 1, 349, 450}";
},
{
alignment = -1;
name = "";
transform = "{1, 0, 0, 1, 399, 0}";
},
{
alignment = -1;
name = "";
transform = "{1, 0, 0, 1, 399, 50}";
},
{
alignment = -1;
name = "";
transform = "{1, 0, 0, 1, 399, 100}";
},
{
alignment = -1;
name = "";
transform = "{1, 0, 0, 1, 399, 450}";
},
{
alignment = -1;
name = "";
transform = "{1, 0, 0, 1, 449, 50}";
},
{
alignment = -1;
name = "";
transform = "{1, 0, 0, 1, 449, 100}";
},
{
alignment = -1;
name = "";
transform = "{1, 0, 0, 1, 449, 150}";
},
{
alignment = -1;
name = "";
transform = "{1, 0, 0, 1, 449, 200}";
},
{
alignment = -1;
name = "";
transform = "{1, 0, 0, 1, 449, 250}";
},
{
alignment = -1;
name = "";
transform = "{1, 0, 0, 1, 449, 300}";
},
{
alignment = -1;
name = "";
transform = "{1, 0, 0, 1, 449, 350}";
},
{
alignment = -1;
name = "";
transform = "{1, 0, 0, 1, 449, 400}";
},
{
alignment = -1;
name = "";
transform = "{1, 0, 0, 1, 449, 450}";
},
{
alignment = -1;
name = "";
transform = "{1, 0, 0, 1, 449, 500}";
},
{
alignment = -1;
name = "";
transform = "{1, 0, 0, 1, 499, 0}";
},
{
alignment = -1;
name = "";
transform = "{1, 0, 0, 1, 499, 50}";
},
{
alignment = -1;
name = "";
transform = "{1, 0, 0, 1, 499, 100}";
},
{
alignment = -1;
name = "";
transform = "{1, 0, 0, 1, 499, 150}";
},
{
alignment = -1;
name = "";
transform = "{1, 0, 0, 1, 499, 200}";
},
{
alignment = -1;
name = "";
transform = "{1, 0, 0, 1, 499, 250}";
},
{
alignment = -1;
name = "";
transform = "{1, 0, 0, 1, 499, 300}";
},
{
alignment = -1;
name = "";
transform = "{1, 0, 0, 1, 499, 350}";
}
);
paths = (
{
closed = 1;
nodes = (
"458 525 LINE",
"509 525 LINE",
"576 0 LINE",
"486 0 LINE",
"486 82 LINE",
"448 17 OFFCURVE",
"376 -14 OFFCURVE",
"296 -14 CURVE SMOOTH",
"134 -14 OFFCURVE",
"34 105 OFFCURVE",
"79 273 CURVE SMOOTH",
"118 419 OFFCURVE",
"205 525 OFFCURVE",
"296 525 CURVE SMOOTH",
"367 525 OFFCURVE",
"434 504 OFFCURVE",
"470 446 CURVE"
);
},
{
closed = 1;
nodes = (
"111 175 OFFCURVE",
"134 136 OFFCURVE",
"284 138 CURVE SMOOTH",
"465 140 OFFCURVE",
"469 170 OFFCURVE",
"469 299 CURVE SMOOTH",
"469 448 OFFCURVE",
"362 476 OFFCURVE",
"295 476 CURVE",
"234 476 OFFCURVE",
"175 434 OFFCURVE",
"141 296 CURVE SMOOTH"
);
}
);
};
layerId = "BBDB329E-CE83-4304-A6B1-53EA5ACC004E";
paths = (
{
closed = 1;
nodes = (
"459 249 OFFCURVE",
"455 254 OFFCURVE",
"454 252 CURVE",
"509 252 LINE",
"492 207 LINE",
"430 143 OFFCURVE",
"413 149 OFFCURVE",
"340 149 CURVE SMOOTH",
"273 149 OFFCURVE",
"263 157 OFFCURVE",
"266 185 CURVE",
"266 187 OFFCURVE",
"268 190 OFFCURVE",
"269 193 CURVE",
"284 235 OFFCURVE",
"313 249 OFFCURVE",
"407 249 CURVE SMOOTH",
"459 249 LINE"
);
},
{
closed = 1;
nodes = (
"666 466 OFFCURVE",
"619 554 OFFCURVE",
"475 554 CURVE SMOOTH",
"427 554 OFFCURVE",
"375 549 OFFCURVE",
"317 527 CURVE SMOOTH",
"303 522 OFFCURVE",
"300 520 OFFCURVE",
"297 519 CURVE",
"274 433 LINE",
"290 444 OFFCURVE",
"287 442 OFFCURVE",
"304 450 CURVE",
"351 470 OFFCURVE",
"390 481 OFFCURVE",
"438 481 CURVE",
"532 474 OFFCURVE",
"553 425 OFFCURVE",
"533 350 CURVE SMOOTH",
"532 345 OFFCURVE",
"514 342 OFFCURVE",
"500 342 CURVE SMOOTH",
"407 342 LINE SMOOTH",
"258 342 OFFCURVE",
"196 279 OFFCURVE",
"163 157 CURVE SMOOTH",
"135 53 OFFCURVE",
"183 -14 OFFCURVE",
"283 -14 CURVE SMOOTH",
"348 -14 OFFCURVE",
"401 6 OFFCURVE",
"446 45 CURVE",
"466 60 OFFCURVE",
"475 56 OFFCURVE",
"469 35 CURVE SMOOTH",
"466 24 LINE SMOOTH",
"462 8 OFFCURVE",
"463 13 OFFCURVE",
"460 0 CURVE",
"541 0 LINE",
"547 21 OFFCURVE",
"544 9 OFFCURVE",
"548 24 CURVE SMOOTH",
"624 309 LINE SMOOTH"
);
}
);
width = 663;
}
);
leftKerningGroup = Round;
},
{
color = 7;
glyphname = a.ss04;
lastChange = "2019-09-05 22:37:17 +0000";
layers = (
{
anchors = (
{
name = abovecomb;
position = "{473, 580}";
},
{
name = bottom;
position = "{316, 0}";
},
{
name = dotbelow;
position = "{311, -8}";
},
{
name = ogonek;
position = "{557, 50}";
},
{
name = top;
position = "{476, 581}";
}
);
background = {
components = (
{
alignment = -1;
name = "";
transform = "{1, 0, 0, 1, 49, 150}";
},
{
alignment = -1;
name = "";
transform = "{1, 0, 0, 1, 49, 200}";
},
{
alignment = -1;
name = "";
transform = "{1, 0, 0, 1, 99, 50}";
},
{
alignment = -1;
name = "";
transform = "{1, 0, 0, 1, 99, 100}";
},
{
alignment = -1;
name = "";
transform = "{1, 0, 0, 1, 99, 150}";
},
{
alignment = -1;
name = "";
transform = "{1, 0, 0, 1, 99, 200}";
},
{
alignment = -1;
name = "";
transform = "{1, 0, 0, 1, 99, 250}";
},
{
alignment = -1;
name = "";
transform = "{1, 0, 0, 1, 99, 300}";
},
{
alignment = -1;
name = "";
transform = "{1, 0, 0, 1, 99, 350}";
},
{
alignment = -1;
name = "";
transform = "{1, 0, 0, 1, 149, 0}";
},
{
alignment = -1;
name = "";
transform = "{1, 0, 0, 1, 149, 50}";
},
{
alignment = -1;
name = "";
transform = "{1, 0, 0, 1, 149, 100}";
},
{
alignment = -1;
name = "";
transform = "{1, 0, 0, 1, 149, 400}";
},
{
alignment = -1;
name = "";
transform = "{1, 0, 0, 1, 199, 0}";
},
{
alignment = -1;
name = "";
transform = "{1, 0, 0, 1, 199, 50}";
},
{
alignment = -1;
name = "";
transform = "{1, 0, 0, 1, 199, 100}";
},
{
alignment = -1;
name = "";
transform = "{1, 0, 0, 1, 199, 450}";
},
{
alignment = -1;
name = "";
transform = "{1, 0, 0, 1, 249, 0}";
},
{
alignment = -1;
name = "";
transform = "{1, 0, 0, 1, 249, 50}";
},
{
alignment = -1;
name = "";
transform = "{1, 0, 0, 1, 249, 100}";
},
{
alignment = -1;
name = "";
transform = "{1, 0, 0, 1, 249, 450}";
},
{
alignment = -1;
name = "";
transform = "{1, 0, 0, 1, 299, 0}";
},
{
alignment = -1;
name = "";
transform = "{1, 0, 0, 1, 299, 50}";
},
{
alignment = -1;
name = "";
transform = "{1, 0, 0, 1, 299, 100}";
},
{
alignment = -1;
name = "";
transform = "{1, 0, 0, 1, 299, 450}";
},
{
alignment = -1;
name = "";
transform = "{1, 0, 0, 1, 349, 0}";
},
{
alignment = -1;
name = "";
transform = "{1, 0, 0, 1, 349, 50}";
},
{
alignment = -1;
name = "";
transform = "{1, 0, 0, 1, 349, 100}";
},
{
alignment = -1;
name = "";
transform = "{1, 0, 0, 1, 349, 450}";
},
{
alignment = -1;
name = "";
transform = "{1, 0, 0, 1, 399, 0}";
},
{
alignment = -1;
name = "";
transform = "{1, 0, 0, 1, 399, 50}";
},
{
alignment = -1;
name = "";
transform = "{1, 0, 0, 1, 399, 100}";
},
{
alignment = -1;
name = "";
transform = "{1, 0, 0, 1, 399, 450}";
},
{
alignment = -1;
name = "";
transform = "{1, 0, 0, 1, 449, 50}";
},
{
alignment = -1;
name = "";
transform = "{1, 0, 0, 1, 449, 100}";
},
{
alignment = -1;
name = "";
transform = "{1, 0, 0, 1, 449, 150}";
},
{
alignment = -1;
name = "";
transform = "{1, 0, 0, 1, 449, 200}";
},
{
alignment = -1;
name = "";
transform = "{1, 0, 0, 1, 449, 250}";
},
{
alignment = -1;
name = "";
transform = "{1, 0, 0, 1, 449, 300}";
},
{
alignment = -1;
name = "";
transform = "{1, 0, 0, 1, 449, 350}";
},
{
alignment = -1;
name = "";
transform = "{1, 0, 0, 1, 449, 400}";
},
{
alignment = -1;
name = "";
transform = "{1, 0, 0, 1, 449, 450}";
},
{
alignment = -1;
name = "";
transform = "{1, 0, 0, 1, 449, 500}";
},
{
alignment = -1;
name = "";
transform = "{1, 0, 0, 1, 499, 0}";
},
{
alignment = -1;
name = "";
transform = "{1, 0, 0, 1, 499, 50}";
},
{
alignment = -1;
name = "";
transform = "{1, 0, 0, 1, 499, 100}";
},
{
alignment = -1;
name = "";
transform = "{1, 0, 0, 1, 499, 150}";
},
{
alignment = -1;
name = "";
transform = "{1, 0, 0, 1, 499, 200}";
},
{
alignment = -1;
name = "";
transform = "{1, 0, 0, 1, 499, 250}";
},
{
alignment = -1;
name = "";
transform = "{1, 0, 0, 1, 499, 300}";
},
{
alignment = -1;
name = "";
transform = "{1, 0, 0, 1, 499, 350}";
}
);
paths = (
{
closed = 1;
nodes = (
"458 525 LINE",
"509 525 LINE",
"576 0 LINE",
"486 0 LINE",
"486 82 LINE",
"448 17 OFFCURVE",
"376 -14 OFFCURVE",
"296 -14 CURVE SMOOTH",
"134 -14 OFFCURVE",
"34 105 OFFCURVE",
"79 273 CURVE SMOOTH",
"118 419 OFFCURVE",
"205 525 OFFCURVE",
"296 525 CURVE SMOOTH",
"367 525 OFFCURVE",
"434 504 OFFCURVE",
"470 446 CURVE"
);
},
{
closed = 1;
nodes = (
"111 175 OFFCURVE",
"134 136 OFFCURVE",
"284 138 CURVE SMOOTH",
"465 140 OFFCURVE",
"469 170 OFFCURVE",
"469 299 CURVE SMOOTH",
"469 448 OFFCURVE",
"362 476 OFFCURVE",
"295 476 CURVE",
"234 476 OFFCURVE",
"175 434 OFFCURVE",
"141 296 CURVE SMOOTH"
);
}
);
};
layerId = "BA196CD0-EE58-4274-B8DF-4393D3617A29";
paths = (
{
closed = 1;
nodes = (
"573 504 OFFCURVE",
"511 525 OFFCURVE",
"440 525 CURVE SMOOTH",
"348 525 OFFCURVE",
"225 404 OFFCURVE",
"154 251 CURVE SMOOTH",
"85 101 OFFCURVE",
"137 -14 OFFCURVE",
"295 -14 CURVE SMOOTH",
"376 -14 OFFCURVE",
"457 17 OFFCURVE",
"513 82 CURVE",
"491 0 LINE",
"582 0 LINE",
"655 525 LINE",
"603 525 LINE",
"594 446 LINE"
);
},
{
closed = 1;
nodes = (
"307 434 OFFCURVE",
"364 476 OFFCURVE",
"425 476 CURVE",
"493 476 OFFCURVE",
"594 448 OFFCURVE",
"554 299 CURVE SMOOTH",
"519 170 OFFCURVE",
"507 138 OFFCURVE",
"324 138 CURVE SMOOTH",
"174 138 OFFCURVE",
"173 175 OFFCURVE",
"236 296 CURVE SMOOTH"
);
}
);
width = 663;
},
{
anchors = (
{
name = abovecomb;
position = "{478, 599}";
},
{
name = bottom;
position = "{305, -40}";
},
{
name = dotbelow;
position = "{264, -126}";
},
{
name = ogonek;
position = "{563, 0}";
},
{
name = top;
position = "{480, 597}";
}
);
background = {
components = (
{
alignment = -1;
name = "";
transform = "{1, 0, 0, 1, 49, 150}";
},
{
alignment = -1;
name = "";
transform = "{1, 0, 0, 1, 49, 200}";
},
{
alignment = -1;
name = "";
transform = "{1, 0, 0, 1, 99, 50}";
},
{
alignment = -1;
name = "";
transform = "{1, 0, 0, 1, 99, 100}";
},
{
alignment = -1;
name = "";
transform = "{1, 0, 0, 1, 99, 150}";
},
{
alignment = -1;
name = "";
transform = "{1, 0, 0, 1, 99, 200}";
},
{
alignment = -1;
name = "";
transform = "{1, 0, 0, 1, 99, 250}";
},
{
alignment = -1;
name = "";
transform = "{1, 0, 0, 1, 99, 300}";
},
{
alignment = -1;
name = "";
transform = "{1, 0, 0, 1, 99, 350}";
},
{
alignment = -1;
name = "";
transform = "{1, 0, 0, 1, 149, 0}";
},
{
alignment = -1;
name = "";
transform = "{1, 0, 0, 1, 149, 50}";
},
{
alignment = -1;
name = "";
transform = "{1, 0, 0, 1, 149, 100}";
},
{
alignment = -1;
name = "";
transform = "{1, 0, 0, 1, 149, 400}";
},
{
alignment = -1;
name = "";
transform = "{1, 0, 0, 1, 199, 0}";
},
{
alignment = -1;
name = "";
transform = "{1, 0, 0, 1, 199, 50}";
},
{
alignment = -1;
name = "";
transform = "{1, 0, 0, 1, 199, 100}";
},
{
alignment = -1;
name = "";
transform = "{1, 0, 0, 1, 199, 450}";
},
{
alignment = -1;
name = "";
transform = "{1, 0, 0, 1, 249, 0}";
},
{
alignment = -1;
name = "";
transform = "{1, 0, 0, 1, 249, 50}";
},
{
alignment = -1;
name = "";
transform = "{1, 0, 0, 1, 249, 100}";
},
{
alignment = -1;
name = "";
transform = "{1, 0, 0, 1, 249, 450}";
},
{
alignment = -1;
name = "";
transform = "{1, 0, 0, 1, 299, 0}";
},
{
alignment = -1;
name = "";
transform = "{1, 0, 0, 1, 299, 50}";
},
{
alignment = -1;
name = "";
transform = "{1, 0, 0, 1, 299, 100}";
},
{
alignment = -1;
name = "";
transform = "{1, 0, 0, 1, 299, 450}";
},
{
alignment = -1;
name = "";
transform = "{1, 0, 0, 1, 349, 0}";
},
{
alignment = -1;
name = "";
transform = "{1, 0, 0, 1, 349, 50}";
},
{
alignment = -1;
name = "";
transform = "{1, 0, 0, 1, 349, 100}";
},
{
alignment = -1;
name = "";
transform = "{1, 0, 0, 1, 349, 450}";
},
{
alignment = -1;
name = "";
transform = "{1, 0, 0, 1, 399, 0}";
},
{
alignment = -1;
name = "";
transform = "{1, 0, 0, 1, 399, 50}";
},
{
alignment = -1;
name = "";
transform = "{1, 0, 0, 1, 399, 100}";
},
{
alignment = -1;
name = "";
transform = "{1, 0, 0, 1, 399, 450}";
},
{
alignment = -1;
name = "";
transform = "{1, 0, 0, 1, 449, 50}";
},
{
alignment = -1;
name = "";
transform = "{1, 0, 0, 1, 449, 100}";
},
{
alignment = -1;
name = "";
transform = "{1, 0, 0, 1, 449, 150}";
},
{
alignment = -1;
name = "";
transform = "{1, 0, 0, 1, 449, 200}";
},
{
alignment = -1;
name = "";
transform = "{1, 0, 0, 1, 449, 250}";
},
{
alignment = -1;
name = "";
transform = "{1, 0, 0, 1, 449, 300}";
},
{
alignment = -1;
name = "";
transform = "{1, 0, 0, 1, 449, 350}";
},
{
alignment = -1;
name = "";
transform = "{1, 0, 0, 1, 449, 400}";
},
{
alignment = -1;
name = "";
transform = "{1, 0, 0, 1, 449, 450}";
},
{
alignment = -1;
name = "";
transform = "{1, 0, 0, 1, 449, 500}";
},
{
alignment = -1;
name = "";
transform = "{1, 0, 0, 1, 499, 0}";
},
{
alignment = -1;
name = "";
transform = "{1, 0, 0, 1, 499, 50}";
},
{
alignment = -1;
name = "";
transform = "{1, 0, 0, 1, 499, 100}";
},
{
alignment = -1;
name = "";
transform = "{1, 0, 0, 1, 499, 150}";
},
{
alignment = -1;
name = "";
transform = "{1, 0, 0, 1, 499, 200}";
},
{
alignment = -1;
name = "";
transform = "{1, 0, 0, 1, 499, 250}";
},
{
alignment = -1;
name = "";
transform = "{1, 0, 0, 1, 499, 300}";
},
{
alignment = -1;
name = "";
transform = "{1, 0, 0, 1, 499, 350}";
}
);
paths = (
{
closed = 1;
nodes = (
"458 525 LINE",
"509 525 LINE",
"576 0 LINE",
"486 0 LINE",
"486 82 LINE",
"448 17 OFFCURVE",
"376 -14 OFFCURVE",
"296 -14 CURVE SMOOTH",
"134 -14 OFFCURVE",
"34 105 OFFCURVE",
"79 273 CURVE SMOOTH",
"118 419 OFFCURVE",
"205 525 OFFCURVE",
"296 525 CURVE SMOOTH",
"367 525 OFFCURVE",
"434 504 OFFCURVE",
"470 446 CURVE"
);
},
{
closed = 1;
nodes = (
"111 175 OFFCURVE",
"134 136 OFFCURVE",
"284 138 CURVE SMOOTH",
"465 140 OFFCURVE",
"469 170 OFFCURVE",
"469 299 CURVE SMOOTH",
"469 448 OFFCURVE",
"362 476 OFFCURVE",
"295 476 CURVE",
"234 476 OFFCURVE",
"175 434 OFFCURVE",
"141 296 CURVE SMOOTH"
);
}
);
};
layerId = "BBDB329E-CE83-4304-A6B1-53EA5ACC004E";
paths = (
{
closed = 1;
nodes = (
"544 541 OFFCURVE",
"500 552 OFFCURVE",
"447 552 CURVE SMOOTH",
"342 552 OFFCURVE",
"208 426 OFFCURVE",
"128 256 CURVE SMOOTH",
"49 85 OFFCURVE",
"116 -41 OFFCURVE",
"288 -41 CURVE SMOOTH",
"353 -41 OFFCURVE",
"415 -23 OFFCURVE",
"467 11 CURVE",
"456 -27 LINE",
"606 -27 LINE",
"686 552 LINE",
"579 552 LINE",
"575 520 LINE"
);
},
{
closed = 1;
nodes = (
"321 405 OFFCURVE",
"366 449 OFFCURVE",
"418 449 CURVE SMOOTH",
"514 449 OFFCURVE",
"553 396 OFFCURVE",
"527 299 CURVE SMOOTH",
"493 173 OFFCURVE",
"484 165 OFFCURVE",
"331 165 CURVE SMOOTH",
"209 165 OFFCURVE",
"203 178 OFFCURVE",
"261 290 CURVE SMOOTH"
);
}
);
width = 663;
}
);
leftKerningGroup = Round;
},
